<?xml version="1.0" encoding="utf-8"?>
<!-- Generator: Adobe Illustrator 21.1.0, SVG Export Plug-In . SVG Version: 6.00 Build 0)  -->
<svg version="1.1" id="Layer_2" xmlns="http://www.w3.org/2000/svg" xmlns:xlink="http://www.w3.org/1999/xlink" x="0px" y="0px"
	 viewBox="0 0 46 46" style="enable-background:new 0 0 46 46;" xml:space="preserve">
<style type="text/css">
	.st0{fill:#1E272B;}
	.st1{fill:url(#SVGID_1_);}
	.st2{opacity:0.25;fill:#242E35;enable-background:new    ;}
</style>
<g>
	<path class="st0" d="M25.7,12.6c1.1-2.9,2.1-5.7,3.5-8.5c1.9-3.7,6.1-5.1,9.9-3.2c3.5,1.7,4.7,5.9,3.3,9.6
		c-2.5,6.4-5.1,12.8-7.5,19.2c-1.5,4-3.1,8-4.7,12c-1.3,3.2-4.1,4.5-7.3,4.3c-4.7,0.1-7.2-1.5-8.7-5.6"/>
	
		<linearGradient id="SVGID_1_" gradientUnits="userSpaceOnUse" x1="6.3128" y1="304.7468" x2="21.3554" y2="341.4624" gradientTransform="matrix(1 0 0 1 0 -304)">
		<stop  offset="0" style="stop-color:#1C8DF3"/>
		<stop  offset="0.3621" style="stop-color:#137CDB"/>
		<stop  offset="0.7281" style="stop-color:#0C6FCA"/>
		<stop  offset="1" style="stop-color:#0A6BC4"/>
	</linearGradient>
	<path class="st1" d="M14.2,40.4c-0.4-1.1-2.9-7.5-3.1-7.9c-2.4-6.1-4.8-12.3-7.1-18.4c-0.9-2.3-2.1-4.4-2-6.9
		c0.3-3.2,2.8-6.3,5.7-6.7c3.6-0.7,6.9,1.1,8.4,4.3c1.7,4,6.3,15.8,6.3,15.8L14.2,40.4z"/>
	<polyline class="st2" points="14.2,40.4 12.9,36.6 22.5,20.3 	"/>
</g>
</svg>
