<?xml version="1.0" encoding="utf-8"?>
<!-- Generator: Adobe Illustrator 21.1.0, SVG Export Plug-In . SVG Version: 6.00 Build 0)  -->
<svg version="1.1" id="Layer_2" xmlns="http://www.w3.org/2000/svg" xmlns:xlink="http://www.w3.org/1999/xlink" x="0px" y="0px"
	 viewBox="0 0 212.9 30.7" style="enable-background:new 0 0 212.9 30.7;" xml:space="preserve">
<style type="text/css">
	.st0{enable-background:new    ;}
	.st1{fill:#1E272B;}
	.st2{fill:url(#SVGID_1_);}
	.st3{fill:url(#SVGID_2_);}
	.st4{fill:url(#SVGID_3_);}
	.st5{display:none;}
	.st6{display:inline;fill:#1E272B;}
	.st7{display:none;fill:#137CDB;}
	.st8{fill:url(#SVGID_4_);}
</style>
<g id="Layer_2_10_">
	<g>
		<g class="st0">
			<path class="st1" d="M38.6,4.2h5l5,14.6l0.9,3.1h0.3l1-3.1L56,4.2h5l-8.8,24.2h-4.8L38.6,4.2z"/>
			<path class="st1" d="M64.1,4.2h4.6v24.2h-4.6V4.2z"/>
			<path class="st1" d="M75.8,27.1c-1.6-1.2-2.8-2.9-3.4-5.1l4.3-1.7c0.3,1.3,0.9,2.3,1.7,3.1c0.9,0.8,1.9,1.2,3.1,1.2
				c1,0,1.9-0.3,2.6-0.8s1.1-1.2,1.1-2.1s-0.3-1.7-1-2.2c-0.7-0.6-1.9-1.2-3.7-1.9L79,17.2c-1.6-0.5-2.9-1.4-4-2.5s-1.7-2.5-1.7-4.2
				c0-1.3,0.3-2.4,1-3.5c0.7-1,1.6-1.9,2.8-2.5c1.2-0.6,2.6-0.9,4.1-0.9c2.2,0,3.9,0.5,5.2,1.6c1.3,1,2.1,2.2,2.6,3.6l-4.1,1.7
				c-0.2-0.8-0.6-1.5-1.2-2s-1.4-0.8-2.4-0.8s-1.8,0.2-2.5,0.7c-0.6,0.5-1,1.1-1,1.8s0.3,1.3,0.9,1.9c0.6,0.5,1.6,1,3,1.5l1.5,0.5
				c2.1,0.7,3.7,1.7,4.9,2.9c1.1,1.2,1.7,2.8,1.7,4.7c0,1.6-0.4,2.9-1.2,4c-0.8,1.1-1.9,1.9-3.2,2.5c-1.3,0.5-2.6,0.8-4,0.8
				C79.2,28.9,77.5,28.3,75.8,27.1z"/>
			<path class="st1" d="M94,4.2h4.6v24.2H94V4.2z"/>
			<path class="st1" d="M108.8,27.3c-1.9-1.1-3.5-2.7-4.6-4.6c-1.1-2-1.7-4.1-1.7-6.3s0.6-4.5,1.7-6.3c1.1-2,2.6-3.5,4.6-4.6
				c1.9-1.1,4.1-1.7,6.4-1.7s4.6,0.6,6.4,1.7s3.5,2.7,4.6,4.6c1.1,2,1.7,4.1,1.7,6.3s-0.6,4.5-1.7,6.3c-1.1,2-2.6,3.5-4.6,4.6
				c-1.9,1.1-4.1,1.7-6.4,1.7C112.8,28.9,110.6,28.3,108.8,27.3z M119.3,23.5c1.3-0.7,2.2-1.7,3-3c0.7-1.3,1.1-2.7,1.1-4.4
				c0-1.6-0.4-3.1-1.1-4.4s-1.7-2.3-3-3s-2.6-1.1-4.1-1.1s-2.9,0.4-4.1,1.1s-2.2,1.7-2.9,3c-0.7,1.3-1.1,2.7-1.1,4.4
				c0,1.6,0.4,3.1,1.1,4.4s1.7,2.3,2.9,3c1.2,0.7,2.6,1.1,4.1,1.1S118,24.2,119.3,23.5z"/>
			<path class="st1" d="M132.1,4.2h5.3l9.7,16.2h0.3l-0.3-4.7V4.2h4.6v24.2H147l-10.3-17.1h-0.3l0.3,4.7v12.5h-4.5L132.1,4.2
				L132.1,4.2z"/>
			<linearGradient id="SVGID_1_" gradientUnits="userSpaceOnUse" x1="160.7929" y1="11.2295" x2="167.7672" y2="28.2522">
				<stop  offset="0" style="stop-color:#1C8DF3"/>
				<stop  offset="0.3621" style="stop-color:#137CDB"/>
				<stop  offset="0.7281" style="stop-color:#0C6FCA"/>
				<stop  offset="1" style="stop-color:#0A6BC4"/>
			</linearGradient>
			<path class="st2" d="M159.9,27.7c-1.3-0.8-2.4-1.9-3.1-3.3c-0.8-1.4-1.1-3-1.1-4.7c0-1.8,0.4-3.3,1.1-4.7
				c0.8-1.4,1.8-2.5,3.1-3.3s2.9-1.2,4.5-1.2c1.9,0,3.5,0.4,4.8,1.3c1.3,0.9,2.2,2,2.7,3.5l-2.6,1.1c-0.4-1.1-1.1-1.9-1.9-2.4
				c-0.9-0.6-1.9-0.8-3.1-0.8c-1,0-2,0.3-2.9,0.8c-0.9,0.6-1.6,1.3-2.1,2.3s-0.8,2.1-0.8,3.4s0.3,2.4,0.8,3.4s1.2,1.8,2.1,2.3
				c0.9,0.6,1.8,0.8,2.9,0.8c1.2,0,2.3-0.3,3.2-0.9s1.5-1.4,2-2.4L172,24c-0.6,1.4-1.5,2.6-2.8,3.5s-2.9,1.3-4.8,1.3
				C162.7,28.9,161.2,28.4,159.9,27.7z"/>
			<linearGradient id="SVGID_2_" gradientUnits="userSpaceOnUse" x1="176.0994" y1="10.5676" x2="182.5503" y2="26.3128">
				<stop  offset="0" style="stop-color:#1C8DF3"/>
				<stop  offset="0.3621" style="stop-color:#137CDB"/>
				<stop  offset="0.7281" style="stop-color:#0C6FCA"/>
				<stop  offset="1" style="stop-color:#0A6BC4"/>
			</linearGradient>
			<path class="st3" d="M174.8,11.1h2.8v2.8h0.1c0.3-1,1-1.7,2-2.4c1-0.6,2-0.9,3.1-0.9c0.8,0,1.5,0.1,2,0.3V14
				c-0.7-0.4-1.5-0.5-2.5-0.5c-0.8,0-1.6,0.2-2.3,0.7s-1.3,1.1-1.7,1.9c-0.4,0.8-0.6,1.7-0.6,2.6v9.6h-2.9L174.8,11.1L174.8,11.1z"
				/>
			<linearGradient id="SVGID_3_" gradientUnits="userSpaceOnUse" x1="194.4056" y1="8.0659" x2="204.2612" y2="32.1213">
				<stop  offset="0" style="stop-color:#1C8DF3"/>
				<stop  offset="0.3621" style="stop-color:#137CDB"/>
				<stop  offset="0.7281" style="stop-color:#0C6FCA"/>
				<stop  offset="1" style="stop-color:#0A6BC4"/>
			</linearGradient>
			<path class="st4" d="M187.5,11.1h2.8v2.6h0.1c0.5-0.9,1.2-1.6,2.3-2.2c1-0.6,2.1-0.9,3.2-0.9c1.3,0,2.4,0.3,3.3,0.9
				c0.9,0.6,1.6,1.4,2,2.5c0.6-1,1.4-1.8,2.4-2.5c1-0.6,2.2-0.9,3.5-0.9c2,0,3.5,0.6,4.5,1.8s1.5,2.9,1.5,5v11.1H210V17.7
				c0-1.6-0.3-2.8-1-3.5s-1.6-1.1-2.9-1.1c-0.9,0-1.6,0.3-2.4,0.8c-0.7,0.5-1.3,1.2-1.7,2s-0.6,1.8-0.6,2.7v9.7h-2.9V17.7
				c0-1.6-0.3-2.8-1-3.5s-1.6-1.1-2.9-1.1c-0.9,0-1.6,0.3-2.4,0.8c-0.7,0.5-1.3,1.2-1.7,2c-0.4,0.9-0.6,1.8-0.6,2.7v9.7H187V11.1
				H187.5z"/>
		</g>
	</g>
</g>
<g class="st5">
	<path class="st6" d="M7.7,1.2C5.1,2.8,2.9,5.1,1.6,7.9V8C1.4,8.3,1.3,8.6,1.2,9C1,9.3,0.9,9.5,0.8,9.8c-0.1,0.2-0.1,0.4-0.2,0.7
		c-0.1,0.2-0.1,0.5-0.2,0.7c-0.1,0.3-0.1,0.6-0.2,0.8c0,0.2-0.1,0.4-0.1,0.5c0,0.3-0.1,0.6-0.1,0.9c0,0.2,0,0.4,0,0.6
		c0,0.3,0,0.6,0,0.8c0,0.3,0,0.6,0,0.9c0,0.2,0,0.3,0,0.5c0.3,3.7,2,7.2,4.6,9.9c0.1,0.1,0.2,0.2,0.3,0.3c0.1,0.1,0.2,0.2,0.4,0.3
		c0.3,0.2,0.5,0.5,0.8,0.7c0.2,0.2,0.4,0.3,0.7,0.5c0.6,0.4,1.1,0.7,1.7,1c0.9,0.5,1.8,0.8,2.7,1.1c1,0.3,2,0.5,3,0.6c0,0,0,0,0.1,0
		c1.5,0.2,3,0.1,4.5-0.2h0.1c1.5-0.3,3-0.8,4.3-1.6c4.2-2.3,7.2-6.5,8.2-11.2c0.6-3.8-0.1-7.7-2-11c-0.8-0.8-2.2-1.1-3.2-0.4
		c-1.3,0.7-1.9,2.4-1.1,3.7c0.6,1.3,1.1,2.7,1.1,4.3c0,0.6,0,1.2-0.1,1.6c-0.1,0.9-0.3,1.8-0.6,2.7c-1.3,3.2-4,5.5-7.3,6.3
		c-0.5,0.1-1,0.2-1.6,0.2c-0.2,0-0.3,0-0.5,0c-0.1,0-0.3,0-0.4,0c-0.2,0-0.4,0-0.6,0c-0.2,0-0.4,0-0.6-0.1c-0.2,0-0.3-0.1-0.5-0.1
		s-0.5-0.1-0.7-0.2c-0.1,0-0.1,0-0.2-0.1c-0.7-0.2-1.3-0.4-2-0.7c-0.4-0.2-0.7-0.4-1.1-0.7c-1-0.7-1.9-1.6-2.6-2.6
		c-0.1-0.1-0.1-0.1-0.1-0.2c-0.2-0.2-0.3-0.5-0.5-0.8c0,0,0-0.1-0.1-0.1c0,0,0-0.1-0.1-0.1c-0.1-0.2-0.2-0.4-0.3-0.6
		c-0.1-0.1-0.1-0.2-0.1-0.4C6.1,18.1,6.1,18,6,17.8c0,0.2,0,0-0.1-0.1c0-0.1-0.1-0.3-0.1-0.4c0-0.2-0.1-0.3-0.1-0.5
		c0-0.1,0-0.3-0.1-0.4c0-0.2,0-0.3-0.1-0.5c0-0.2,0-0.3,0-0.5c0-0.1,0-0.3,0-0.4c0-0.2,0-0.4,0-0.7c0-0.1,0-0.2,0-0.2
		c0-0.3,0.1-0.6,0.1-0.8c0,0,0,0,0-0.1c0.1-0.5,0.2-0.9,0.3-1.4v-0.1C6,11.5,6,11.3,6.1,11.1s0.2-0.4,0.3-0.6v-0.1
		C7.3,8.5,8.6,7,10.3,6l0,0c0.2-0.2,0.3-0.2,0.5-0.3c0.2-0.1,0.4-0.2,0.6-0.3l0.2-0.1c0.1-0.1,0.1,0,0.3-0.1C13.1,4.5,13.6,3,13,1.7
		c-0.4-1.1-1.8-1.8-3-1.5c-0.2-0.1-0.4,0-0.6,0.1"/>
</g>
<path id="Fill-7_2_" class="st7" d="M10.3,17.3c1.4,3,5,4.5,8,3.2s4.5-5,3.2-8c-1.4-3-5-4.5-8-3.2S8.9,14.3,10.3,17.3"/>
<path class="st1" d="M9.3,3.3C16-1.8,25.4-0.6,30.5,6.1c5.2,6.7,3.9,16.4-2.9,21.5c-6.6,5-16.3,3.6-21.3-3C1.3,17.9,2.6,8.4,9.3,3.3
	z M25.6,24.2c4.9-3.9,5.7-11.1,1.8-15.9S16.3,2.6,11.5,6.4c-5,3.9-5.8,11.1-1.8,16.1C13.6,27.4,20.7,28.1,25.6,24.2z"/>
<linearGradient id="SVGID_4_" gradientUnits="userSpaceOnUse" x1="15.3605" y1="7.6139" x2="21.6405" y2="22.9419">
	<stop  offset="0" style="stop-color:#1C8DF3"/>
	<stop  offset="0.3621" style="stop-color:#137CDB"/>
	<stop  offset="0.7281" style="stop-color:#0C6FCA"/>
	<stop  offset="1" style="stop-color:#0A6BC4"/>
</linearGradient>
<path class="st8" d="M11.9,20.4c-2.9-3.8-2-9.3,2-12c1-0.6,1.7-1.4,2.3,0.6c1,3.5,4.4,4.8,7.3,2.7c2.2-1.5,2.5-0.3,3,1.3
	c1,3.7-0.7,7.8-4.2,9.6C18.8,24.6,14.3,23.6,11.9,20.4z"/>
</svg>
