<?xml version="1.0" encoding="utf-8"?>
<!-- Generator: Adobe Illustrator 21.1.0, SVG Export Plug-In . SVG Version: 6.00 Build 0)  -->
<svg version="1.1" xmlns="http://www.w3.org/2000/svg" xmlns:xlink="http://www.w3.org/1999/xlink" x="0px" y="0px"
	 viewBox="0 0 154.9 46.1" style="enable-background:new 0 0 154.9 46.1;" xml:space="preserve">
<style type="text/css">
	.st0{display:none;}
	.st1{display:inline;fill:#377DFF;}
	.st2{display:inline;opacity:0.65;fill:#3F7DE0;enable-background:new    ;}
	.st3{display:inline;opacity:0.5;fill:#00DFFC;enable-background:new    ;}
	.st4{display:inline;opacity:0.7;fill:#3F7DE0;enable-background:new    ;}
	.st5{display:inline;fill:#FFFFFF;}
	.st6{display:inline;}
	.st7{fill:#1E272B;}
	.st8{fill:url(#SVGID_1_);}
	.st9{opacity:0.25;fill:#242E35;enable-background:new    ;}
	.st10{enable-background:new    ;}
	.st11{fill:url(#SVGID_2_);}
</style>
<g id="Layer_1" class="st0">
	<g id="Layer_1_1_">
		<path class="st1" d="M58.9,38.2V10h17.9v5.2H65.6v6.1H74v5.2h-8.4v11.7H58.9z"/>
		<path class="st1" d="M86.2,15.8V20c1.6-2.9,3.7-4.4,6.3-4.4v7h-1.6c-1.5,0-2.7,0.4-3.5,1.1c-0.8,0.8-1.2,2.1-1.2,3.9v10.6h-6.7
			V15.8H86.2z"/>
		<path class="st1" d="M95.9,35.3c-2.2-2.1-3.3-4.9-3.3-8.4s1.1-6.2,3.3-8.3c2.2-2.1,4.9-3.1,8.1-3.1s5.9,1,8.1,3.1s3.3,4.8,3.3,8.3
			s-1.1,6.2-3.3,8.4s-4.9,3.2-8.1,3.2S98.1,37.4,95.9,35.3z M107.3,31.2c0.9-1,1.3-2.4,1.3-4.2s-0.5-3.2-1.4-4.2s-2-1.4-3.3-1.4
			s-2.3,0.5-3.2,1.4c-0.9,1-1.4,2.3-1.4,4.2s0.5,3.2,1.4,4.2s2,1.4,3.3,1.4S106.4,32.1,107.3,31.2z"/>
		<path class="st1" d="M124.5,15.8v3.3c1.4-2.4,3.6-3.5,6.6-3.5c2.5,0,4.5,0.9,6.1,2.6s2.3,4,2.3,7v13.1h-6.7V26
			c0-1.4-0.4-2.6-1.1-3.4c-0.7-0.8-1.8-1.2-3.1-1.2s-2.3,0.4-3.1,1.2c-0.7,0.8-1.1,1.9-1.1,3.4v12.2h-6.7V15.8H124.5z"/>
		<path class="st1" d="M152.5,32.4h2.4v5.8h-3.4c-2.5,0-4.4-0.6-5.7-1.7c-1.3-1.1-2-3-2-5.7v-9.3h-2v-5.7h2v-5.5h6.7v5.5h4.4v5.7
			h-4.4v9.3C150.5,31.8,151.2,32.4,152.5,32.4z"/>
		<path class="st2" d="M23,41.1L23,41.1c-9.9,0-18-8-18-18l0,0c0-9.9,8-18,18-18h11.3c3.7,0,6.6,3,6.6,6.6v11.4
			C41,33,32.9,41.1,23,41.1z"/>
		<path class="st3" d="M28,36L28,36c-9.9,0-18-8-18-18l0,0c0-9.9,8-18,18-18h11.3C43,0.1,46,3.1,46,6.7v11.4C46,28,38,36,28,36z"/>
		<path class="st4" d="M18,46.1L18,46.1c-10,0-18-8-18-18l0,0c0-9.9,8-18,18-18h11.3c3.7,0,6.6,3,6.6,6.6v11.4
			C35.9,38.1,27.9,46.1,18,46.1z"/>
		<path class="st5" d="M17.4,34.1V18.4h10.2v2.9h-6.4v3.4H26v2.9h-4.8v6.5H17.4z"/>
	</g>
	<g id="Layer_2" class="st6">
		<g id="Layer_2_1_">
			<g>
				<path class="st7" d="M15.5,16.8c0.7-1.9,1.4-3.8,2.3-5.6c1.2-2.5,4-3.3,6.5-2.1c2.3,1.1,3.1,3.9,2.2,6.3
					c-1.7,4.2-3.3,8.4-4.9,12.6c-1,2.6-2,5.3-3.1,7.9c-0.9,2.1-2.7,3-4.8,2.8C10.6,38.8,9,37.7,8,35"/>
				
					<linearGradient id="SVGID_1_" gradientUnits="userSpaceOnUse" x1="2.8105" y1="160.9934" x2="12.6992" y2="185.1295" gradientTransform="matrix(1 0 0 1 0 -152)">
					<stop  offset="0" style="stop-color:#1C8DF3"/>
					<stop  offset="0.3621" style="stop-color:#137CDB"/>
					<stop  offset="0.7281" style="stop-color:#0C6FCA"/>
					<stop  offset="1" style="stop-color:#0A6BC4"/>
				</linearGradient>
				<path class="st8" d="M8,35c-0.3-0.7-1.9-4.9-2-5.2c-1.6-4-3.2-8-4.7-12.1c-0.6-1.5-1.4-2.9-1.3-4.6C0.2,11,1.8,9,3.8,8.7
					c2.4-0.4,4.6,0.7,5.5,2.8c1.1,2.6,4.1,10.4,4.1,10.4L8,35z"/>
				<polyline class="st9" points="8,35 7.1,32.6 13.4,21.9 				"/>
			</g>
			<g>
				<g class="st10">
					<path class="st7" d="M33.4,12h5.3l5.4,15.7L45,31h0.3l1-3.3L51.9,12h5.3l-9.5,25.9h-5.1L33.4,12z"/>
					<path class="st7" d="M60.7,12h4.9v25.9h-4.9C60.7,37.9,60.7,12,60.7,12z"/>
					<path class="st7" d="M73.3,36.6c-1.7-1.3-3-3.1-3.7-5.4l4.6-1.8c0.4,1.4,1,2.5,1.8,3.3c0.8,0.8,2,1.2,3.3,1.2
						c1.1,0,2-0.3,2.8-0.8s1.2-1.3,1.2-2.3s-0.4-1.8-1.1-2.4s-2-1.3-3.9-2l-1.6-0.6c-1.7-0.6-3.1-1.5-4.3-2.7
						c-1.2-1.2-1.8-2.7-1.8-4.5c0-1.4,0.4-2.6,1.1-3.7s1.7-2,3-2.6c1.3-0.6,2.7-1,4.3-1c2.3,0,4.2,0.5,5.5,1.6
						c1.4,1.1,2.3,2.4,2.8,3.9L83,18.7c-0.3-0.8-0.7-1.5-1.4-2s-1.5-0.8-2.6-0.8s-1.9,0.2-2.6,0.7s-1,1.1-1,1.9s0.3,1.4,1,2
						s1.7,1.1,3.2,1.6l1.6,0.5c2.2,0.8,4,1.8,5.2,3.1s1.8,2.9,1.8,5c0,1.7-0.4,3.1-1.3,4.3s-2,2-3.4,2.6s-2.8,0.9-4.2,0.9
						C77,38.5,75,37.9,73.3,36.6z"/>
					<path class="st7" d="M92.8,12h4.9v25.9h-4.9V12z"/>
					<path class="st7" d="M108.6,36.7c-2.1-1.2-3.7-2.8-4.9-4.9c-1.2-2.1-1.8-4.4-1.8-6.8c0-2.5,0.6-4.8,1.8-6.8
						c1.2-2.1,2.8-3.7,4.9-4.9s4.4-1.8,6.9-1.8s4.8,0.6,6.9,1.8s3.7,2.8,4.9,4.9c1.2,2.1,1.8,4.4,1.8,6.8c0,2.5-0.6,4.8-1.8,6.8
						c-1.2,2.1-2.8,3.7-4.9,4.9s-4.4,1.8-6.9,1.8C112.9,38.5,110.6,37.9,108.6,36.7z M119.9,32.8c1.3-0.7,2.4-1.8,3.1-3.2
						s1.1-2.9,1.1-4.6s-0.4-3.3-1.1-4.6c-0.8-1.4-1.8-2.4-3.1-3.2c-1.3-0.7-2.8-1.1-4.4-1.1s-3,0.4-4.4,1.1
						c-1.3,0.7-2.4,1.8-3.1,3.2c-0.8,1.4-1.1,2.9-1.1,4.6s0.4,3.3,1.1,4.6s1.8,2.4,3.1,3.2c1.3,0.8,2.8,1.1,4.4,1.1
						C117.1,33.9,118.5,33.5,119.9,32.8z"/>
					<path class="st7" d="M133.7,12h5.7l10.4,17.4h0.3l-0.3-5V12h4.9v25.9h-5.1l-11-18.4h-0.3l0.3,5v13.4h-4.8L133.7,12L133.7,12z"
						/>
				</g>
			</g>
		</g>
	</g>
</g>
<g id="Layer_2_2_">
	<g id="Layer_2_3_">
		<g id="Layer_2_4_">
			<g>
				<path class="st7" d="M17.7,16.4c0.8-2.2,1.6-4.3,2.6-6.4c1.4-2.8,4.6-3.8,7.4-2.4c2.6,1.3,3.5,4.4,2.5,7.2
					c-1.9,4.8-3.8,9.6-5.6,14.4c-1.1,3-2.3,6-3.5,9c-1,2.4-3.1,3.4-5.5,3.2c-3.5,0.1-5.4-1.1-6.5-4.2"/>
				
					<linearGradient id="SVGID_2_" gradientUnits="userSpaceOnUse" x1="3.2119" y1="159.535" x2="14.4785" y2="187.0343" gradientTransform="matrix(1 0 0 1 0 -152)">
					<stop  offset="0" style="stop-color:#1C8DF3"/>
					<stop  offset="0.3621" style="stop-color:#137CDB"/>
					<stop  offset="0.7281" style="stop-color:#0C6FCA"/>
					<stop  offset="1" style="stop-color:#0A6BC4"/>
				</linearGradient>
				<path class="st11" d="M9.1,37.2c-0.3-0.8-2.2-5.6-2.3-5.9C5,26.7,3.2,22.1,1.5,17.5c-0.7-1.7-1.6-3.3-1.5-5.2
					c0.2-2.4,2.1-4.7,4.3-5c2.7-0.5,5.2,0.8,6.3,3.2c1.3,3,4.7,11.8,4.7,11.8L9.1,37.2z"/>
				<polyline class="st9" points="9.1,37.2 8.1,34.4 15.3,22.2 				"/>
			</g>
			<g>
				<g class="st10">
					<path class="st7" d="M42.3,14.2h4.9l5,14.5l0.8,3.1h0.3l0.9-3.1l5.2-14.5h4.9l-8.8,24h-4.7L42.3,14.2z"/>
					<path class="st7" d="M67.6,14.2h4.5v24h-4.5C67.6,38.2,67.6,14.2,67.6,14.2z"/>
					<path class="st7" d="M79.3,36.9c-1.6-1.2-2.8-2.9-3.4-5l4.3-1.7c0.4,1.3,0.9,2.3,1.7,3.1s1.9,1.1,3.1,1.1c1,0,1.9-0.3,2.6-0.7
						c0.7-0.5,1.1-1.2,1.1-2.1s-0.4-1.7-1-2.2s-1.9-1.2-3.6-1.9l-1.5-0.6c-1.6-0.6-2.9-1.4-4-2.5c-1.1-1.1-1.7-2.5-1.7-4.2
						c0-1.3,0.4-2.4,1-3.4c0.6-1,1.6-1.9,2.8-2.4c1.2-0.6,2.5-0.9,4-0.9c2.1,0,3.9,0.5,5.1,1.5c1.3,1,2.1,2.2,2.6,3.6l-4,1.8
						C88,19.6,87.6,19,87,18.5s-1.4-0.7-2.4-0.7s-1.8,0.2-2.4,0.6c-0.6,0.5-0.9,1-0.9,1.8c0,0.7,0.3,1.3,0.9,1.9s1.6,1,3,1.5
						l1.5,0.5c2,0.7,3.7,1.7,4.8,2.9c1.1,1.2,1.7,2.7,1.7,4.6c0,1.6-0.4,2.9-1.2,4s-1.9,1.9-3.1,2.4c-1.3,0.6-2.6,0.8-3.9,0.8
						C82.7,38.7,80.9,38.2,79.3,36.9z"/>
					<path class="st7" d="M97.4,14.2h4.5v24h-4.5V14.2z"/>
					<path class="st7" d="M112,37c-1.9-1.1-3.4-2.6-4.5-4.5c-1.1-1.9-1.7-4.1-1.7-6.3c0-2.3,0.6-4.4,1.7-6.3
						c1.1-1.9,2.6-3.4,4.5-4.5c1.9-1.1,4.1-1.7,6.4-1.7s4.4,0.6,6.4,1.7c1.9,1.1,3.4,2.6,4.5,4.5c1.1,1.9,1.7,4.1,1.7,6.3
						c0,2.3-0.6,4.4-1.7,6.3c-1.1,1.9-2.6,3.4-4.5,4.5c-1.9,1.1-4.1,1.7-6.4,1.7C116,38.7,113.8,38.2,112,37z M122.5,33.4
						c1.2-0.6,2.2-1.7,2.9-3c0.6-1.3,1-2.7,1-4.3s-0.4-3.1-1-4.3c-0.7-1.3-1.7-2.2-2.9-3c-1.2-0.6-2.6-1-4.1-1c-1.5,0-2.8,0.4-4.1,1
						c-1.2,0.6-2.2,1.7-2.9,3c-0.7,1.3-1,2.7-1,4.3s0.4,3.1,1,4.3c0.6,1.2,1.7,2.2,2.9,3c1.2,0.7,2.6,1,4.1,1
						C119.9,34.4,121.2,34.1,122.5,33.4z"/>
					<path class="st7" d="M135.2,14.2h5.3l9.6,16.1h0.3l-0.3-4.6V14.2h4.5v24H150l-10.2-17h-0.3l0.3,4.6v12.4h-4.4L135.2,14.2
						L135.2,14.2z"/>
				</g>
			</g>
		</g>
	</g>
</g>
</svg>
