<?xml version="1.0" encoding="utf-8"?>
<!-- Generator: Adobe Illustrator 21.1.0, SVG Export Plug-In . SVG Version: 6.00 Build 0)  -->
<svg version="1.1" xmlns="http://www.w3.org/2000/svg" xmlns:xlink="http://www.w3.org/1999/xlink" x="0px" y="0px"
	 viewBox="0 0 214.6 30" style="enable-background:new 0 0 214.6 30;" xml:space="preserve">
<style type="text/css">
	.st0{display:none;}
	.st1{display:inline;}
	.st2{fill:#377DFF;}
	.st3{opacity:0.65;fill:#3F7DE0;enable-background:new    ;}
	.st4{opacity:0.5;fill:#00DFFC;enable-background:new    ;}
	.st5{opacity:0.7;fill:#3F7DE0;enable-background:new    ;}
	.st6{fill:#FFFFFF;}
	.st7{fill:#1E272B;}
	.st8{fill:url(#SVGID_1_);}
	.st9{opacity:0.25;fill:#242E35;enable-background:new    ;}
	.st10{enable-background:new    ;}
	.st11{fill:url(#SVGID_2_);}
	.st12{display:inline;enable-background:new    ;}
	.st13{fill:url(#SVGID_3_);}
	.st14{fill:#137CDB;}
</style>
<g id="Layer_1" class="st0">
	<g id="Layer_1_3_" class="st1">
		<g id="Layer_1_2_" class="st0">
			<g id="Layer_1_1_" class="st1">
				<path class="st2" d="M89,30.6V2.4h17.9v5.2H95.7v6.1h8.4v5.2h-8.4v11.7H89z"/>
				<path class="st2" d="M116.2,8.2v4.2c1.6-2.9,3.7-4.4,6.3-4.4v7H121c-1.5,0-2.7,0.4-3.5,1.1c-0.8,0.8-1.2,2.1-1.2,3.9v10.6h-6.7
					V8.2H116.2z"/>
				<path class="st2" d="M126,27.7c-2.2-2.1-3.3-4.9-3.3-8.4s1.1-6.2,3.3-8.3c2.2-2.1,4.9-3.1,8.1-3.1s5.9,1,8.1,3.1
					c2.2,2.1,3.3,4.8,3.3,8.3s-1.1,6.2-3.3,8.4c-2.2,2.2-4.9,3.2-8.1,3.2S128.1,29.8,126,27.7z M137.4,23.6c0.9-1,1.3-2.4,1.3-4.2
					s-0.5-3.2-1.4-4.2s-2-1.4-3.3-1.4s-2.3,0.5-3.2,1.4c-0.9,1-1.4,2.3-1.4,4.2s0.5,3.2,1.4,4.2s2,1.4,3.3,1.4
					C135.4,25,136.5,24.5,137.4,23.6z"/>
				<path class="st2" d="M154.6,8.2v3.3c1.4-2.4,3.6-3.5,6.6-3.5c2.5,0,4.5,0.9,6.1,2.6s2.3,4,2.3,7v13.1h-6.7V18.4
					c0-1.4-0.4-2.6-1.1-3.4c-0.7-0.8-1.8-1.2-3.1-1.2s-2.3,0.4-3.1,1.2c-0.7,0.8-1.1,1.9-1.1,3.4v12.2h-6.7V8.2H154.6z"/>
				<path class="st2" d="M182.6,24.8h2.4v5.8h-3.4c-2.5,0-4.4-0.6-5.7-1.7c-1.3-1.1-2-3-2-5.7v-9.3h-2V8.2h2V2.7h6.7v5.5h4.4v5.7
					h-4.4v9.3C180.6,24.2,181.2,24.8,182.6,24.8z"/>
				<path class="st3" d="M53.1,33.5L53.1,33.5c-9.9,0-18-8-18-18l0,0c0-9.9,8-18,18-18h11.3c3.7,0,6.6,3,6.6,6.6v11.4
					C71.1,25.4,63,33.5,53.1,33.5z"/>
				<path class="st4" d="M58.1,28.4L58.1,28.4c-9.9,0-18-8-18-18l0,0c0-9.9,8-18,18-18h11.3c3.7,0.1,6.7,3.1,6.7,6.7v11.4
					C76.1,20.4,68.1,28.4,58.1,28.4z"/>
				<path class="st5" d="M48.1,38.5L48.1,38.5c-10,0-18-8-18-18l0,0c0-9.9,8-18,18-18h11.3c3.7,0,6.6,3,6.6,6.6v11.4
					C66,30.5,58,38.5,48.1,38.5z"/>
				<path class="st6" d="M47.5,26.5V10.8h10.2v2.9h-6.4v3.4h4.8V20h-4.8v6.5H47.5z"/>
			</g>
			<g id="Layer_2" class="st1">
				<g id="Layer_2_1_">
					<g>
						<path class="st7" d="M45.6,9.2c0.7-1.9,1.4-3.8,2.3-5.6c1.2-2.5,4-3.3,6.5-2.1c2.3,1.1,3.1,3.9,2.2,6.3
							c-1.7,4.2-3.3,8.4-4.9,12.6c-1,2.6-2,5.3-3.1,7.9c-0.9,2.1-2.7,3-4.8,2.8c-3.1,0.1-4.7-1-5.7-3.7"/>
						
							<linearGradient id="SVGID_1_" gradientUnits="userSpaceOnUse" x1="32.9105" y1="305.4312" x2="42.7992" y2="329.5673" gradientTransform="matrix(1 0 0 1 0 -304)">
							<stop  offset="0" style="stop-color:#1C8DF3"/>
							<stop  offset="0.3621" style="stop-color:#137CDB"/>
							<stop  offset="0.7281" style="stop-color:#0C6FCA"/>
							<stop  offset="1" style="stop-color:#0A6BC4"/>
						</linearGradient>
						<path class="st8" d="M38.1,27.4c-0.3-0.7-1.9-4.9-2-5.2c-1.6-4-3.2-8-4.7-12.1c-0.6-1.5-1.4-2.9-1.3-4.6
							c0.2-2.1,1.8-4.1,3.8-4.4c2.4-0.4,4.6,0.7,5.5,2.8c1.1,2.6,4.1,10.4,4.1,10.4L38.1,27.4z"/>
						<polyline class="st9" points="38.1,27.4 37.2,25 43.5,14.3 						"/>
					</g>
					<g>
						<g class="st10">
							<path class="st7" d="M63.5,4.4h5.3l5.4,15.7l0.9,3.3h0.3l1-3.3L82,4.4h5.3l-9.5,25.9h-5.1L63.5,4.4z"/>
							<path class="st7" d="M90.8,4.4h4.9v25.9h-4.9V4.4z"/>
							<path class="st7" d="M103.4,29c-1.7-1.3-3-3.1-3.7-5.4l4.6-1.8c0.4,1.4,1,2.5,1.8,3.3c0.8,0.8,2,1.2,3.3,1.2
								c1.1,0,2-0.3,2.8-0.8s1.2-1.3,1.2-2.3s-0.4-1.8-1.1-2.4s-2-1.3-3.9-2l-1.6-0.6c-1.7-0.6-3.1-1.5-4.3-2.7
								c-1.2-1.2-1.8-2.7-1.8-4.5c0-1.4,0.4-2.6,1.1-3.7s1.7-2,3-2.6c1.3-0.6,2.7-1,4.3-1c2.3,0,4.2,0.5,5.5,1.6
								c1.4,1.1,2.3,2.4,2.8,3.9l-4.3,1.9c-0.3-0.8-0.7-1.5-1.4-2s-1.5-0.8-2.6-0.8s-1.9,0.2-2.6,0.7s-1,1.1-1,1.9s0.3,1.4,1,2
								s1.7,1.1,3.2,1.6l1.6,0.5c2.2,0.8,4,1.8,5.2,3.1s1.8,2.9,1.8,5c0,1.7-0.4,3.1-1.3,4.3s-2,2-3.4,2.6s-2.8,0.9-4.2,0.9
								C107.1,30.9,105.1,30.3,103.4,29z"/>
							<path class="st7" d="M122.9,4.4h4.9v25.9h-4.9V4.4z"/>
							<path class="st7" d="M138.6,29.1c-2.1-1.2-3.7-2.8-4.9-4.9s-1.8-4.4-1.8-6.8c0-2.5,0.6-4.8,1.8-6.8c1.2-2.1,2.8-3.7,4.9-4.9
								c2.1-1.2,4.4-1.8,6.9-1.8s4.8,0.6,6.9,1.8c2.1,1.2,3.7,2.8,4.9,4.9s1.8,4.4,1.8,6.8c0,2.5-0.6,4.8-1.8,6.8
								c-1.2,2.1-2.8,3.7-4.9,4.9c-2.1,1.2-4.4,1.8-6.9,1.8S140.6,30.3,138.6,29.1z M150,25.2c1.3-0.7,2.4-1.8,3.1-3.2
								s1.1-2.9,1.1-4.6s-0.4-3.3-1.1-4.6c-0.8-1.4-1.8-2.4-3.1-3.2c-1.3-0.7-2.8-1.1-4.4-1.1s-3,0.4-4.4,1.1
								c-1.3,0.7-2.4,1.8-3.1,3.2c-0.8,1.4-1.1,2.9-1.1,4.6s0.4,3.3,1.1,4.6s1.8,2.4,3.1,3.2c1.3,0.8,2.8,1.1,4.4,1.1
								C147.1,26.3,148.6,25.9,150,25.2z"/>
							<path class="st7" d="M163.8,4.4h5.7l10.4,17.4h0.3l-0.3-5V4.4h4.9v25.9h-5.1l-11-18.4h-0.3l0.3,5v13.4h-4.8L163.8,4.4
								L163.8,4.4z"/>
						</g>
					</g>
				</g>
			</g>
		</g>
		<g id="Layer_2_2_">
			<g id="Layer_2_3_">
				<g id="Layer_2_4_">
					<g>
						<path class="st7" d="M19.8,8.8c0.8-2.2,1.6-4.3,2.6-6.4C23.8-0.4,27-1.4,29.8,0c2.6,1.3,3.5,4.4,2.5,7.2
							c-1.9,4.8-3.8,9.6-5.6,14.4c-1.1,3-2.3,6-3.5,9c-1,2.4-3.1,3.4-5.5,3.2c-3.5,0.1-5.4-1.1-6.5-4.2"/>
						
							<linearGradient id="SVGID_2_" gradientUnits="userSpaceOnUse" x1="5.2715" y1="303.9689" x2="16.5381" y2="331.4682" gradientTransform="matrix(1 0 0 1 0 -304)">
							<stop  offset="0" style="stop-color:#1C8DF3"/>
							<stop  offset="0.3621" style="stop-color:#137CDB"/>
							<stop  offset="0.7281" style="stop-color:#0C6FCA"/>
							<stop  offset="1" style="stop-color:#0A6BC4"/>
						</linearGradient>
						<path class="st11" d="M11.2,29.6C10.9,28.8,9,24,8.9,23.7c-1.8-4.6-3.6-9.2-5.3-13.8C2.9,8.2,2,6.6,2.1,4.7
							c0.2-2.4,2.1-4.7,4.3-5c2.7-0.5,5.2,0.8,6.3,3.2c1.3,3,4.7,11.8,4.7,11.8L11.2,29.6z"/>
						<polyline class="st9" points="11.2,29.6 10.2,26.8 17.4,14.6 						"/>
					</g>
					<g class="st0">
						<g class="st12">
							<path class="st7" d="M44.4,6.6h4.9l5,14.5l0.8,3.1h0.3l0.9-3.1l5.2-14.5h4.9l-8.8,24h-4.7L44.4,6.6z"/>
							<path class="st7" d="M69.7,6.6h4.5v24h-4.5V6.6z"/>
							<path class="st7" d="M81.4,29.3c-1.6-1.2-2.8-2.9-3.4-5l4.3-1.7c0.4,1.3,0.9,2.3,1.7,3.1s1.9,1.1,3.1,1.1
								c1,0,1.9-0.3,2.6-0.7c0.7-0.5,1.1-1.2,1.1-2.1s-0.4-1.7-1-2.2s-1.9-1.2-3.6-1.9l-1.5-0.6c-1.6-0.6-2.9-1.4-4-2.5
								S79,14.3,79,12.6c0-1.3,0.4-2.4,1-3.4s1.6-1.9,2.8-2.4c1.2-0.6,2.5-0.9,4-0.9c2.1,0,3.9,0.5,5.1,1.5c1.3,1,2.1,2.2,2.6,3.6
								l-4,1.8c-0.4-0.8-0.8-1.4-1.4-1.9s-1.4-0.7-2.4-0.7s-1.8,0.2-2.4,0.6c-0.6,0.5-0.9,1-0.9,1.8c0,0.7,0.3,1.3,0.9,1.9
								s1.6,1,3,1.5l1.5,0.5c2,0.7,3.7,1.7,4.8,2.9c1.1,1.2,1.7,2.7,1.7,4.6c0,1.6-0.4,2.9-1.2,4s-1.9,1.9-3.1,2.4
								c-1.3,0.6-2.6,0.8-3.9,0.8C84.8,31.1,83,30.6,81.4,29.3z"/>
							<path class="st7" d="M99.5,6.6h4.5v24h-4.5V6.6z"/>
							<path class="st7" d="M114.1,29.4c-1.9-1.1-3.4-2.6-4.5-4.5c-1.1-1.9-1.7-4.1-1.7-6.3c0-2.3,0.6-4.4,1.7-6.3s2.6-3.4,4.5-4.5
								s4.1-1.7,6.4-1.7s4.4,0.6,6.4,1.7c1.9,1.1,3.4,2.6,4.5,4.5s1.7,4.1,1.7,6.3c0,2.3-0.6,4.4-1.7,6.3c-1.1,1.9-2.6,3.4-4.5,4.5
								c-1.9,1.1-4.1,1.7-6.4,1.7C118.1,31.1,115.9,30.6,114.1,29.4z M124.6,25.8c1.2-0.6,2.2-1.7,2.9-3c0.6-1.3,1-2.7,1-4.3
								s-0.4-3.1-1-4.3c-0.7-1.3-1.7-2.2-2.9-3c-1.2-0.6-2.6-1-4.1-1s-2.8,0.4-4.1,1c-1.2,0.6-2.2,1.7-2.9,3c-0.7,1.3-1,2.7-1,4.3
								s0.4,3.1,1,4.3c0.6,1.2,1.7,2.2,2.9,3c1.2,0.7,2.6,1,4.1,1S123.2,26.5,124.6,25.8z"/>
							<path class="st7" d="M137.2,6.6h5.3l9.6,16.1h0.3l-0.3-4.6V6.6h4.5v24H152l-10.2-17h-0.3l0.3,4.6v12.4h-4.4L137.2,6.6
								L137.2,6.6z"/>
						</g>
					</g>
				</g>
			</g>
		</g>
	</g>
	<g id="Layer_2_5_" class="st1">
		<g id="Layer_2_6_">
			<g>
				<g class="st10">
					<path class="st7" d="M43.9,6.5h4.9l5,14.5l0.9,3.1H55l0.9-3.1L61,6.5h4.9l-8.8,24h-4.8L43.9,6.5z"/>
					<path class="st7" d="M68.3,10.7c-0.6-0.6-0.8-1.2-0.8-2s0.3-1.4,0.8-2c0.6-0.5,1.2-0.8,2-0.8s1.4,0.3,2,0.8
						c0.5,0.5,0.8,1.2,0.8,2s-0.3,1.5-0.8,2c-0.5,0.6-1.2,0.8-2,0.8S68.9,11.3,68.3,10.7z M68.1,13.4h4.4v17.1h-4.4V13.4z"/>
					<path class="st7" d="M78.6,29.8c-1.3-0.9-2.2-2-2.7-3.3l3.9-1.7c0.4,0.8,0.9,1.4,1.5,1.8s1.4,0.6,2.3,0.6c0.8,0,1.5-0.1,2-0.4
						c0.5-0.3,0.8-0.7,0.8-1.3s-0.2-1-0.7-1.3s-1.2-0.5-2.2-0.8l-2-0.4c-1.4-0.3-2.5-0.9-3.5-1.8s-1.4-2-1.4-3.3
						c0-1,0.3-1.9,0.9-2.7c0.6-0.8,1.4-1.4,2.4-1.8s2.1-0.6,3.4-0.6c3.5,0,5.9,1.2,7.1,3.7l-3.8,1.6c-0.7-1.2-1.7-1.8-3.2-1.8
						c-0.8,0-1.4,0.1-1.8,0.4s-0.7,0.6-0.7,1.1c0,0.8,0.8,1.4,2.3,1.8l2.5,0.6c1.7,0.4,3,1.1,3.8,1.9c0.9,0.9,1.3,1.9,1.3,3.2
						c0,1.1-0.3,2.1-1,2.9c-0.6,0.8-1.5,1.5-2.6,2s-2.3,0.7-3.7,0.7C81.6,31.1,79.9,30.7,78.6,29.8z"/>
					<path class="st7" d="M94.4,10.7c-0.6-0.6-0.8-1.2-0.8-2s0.3-1.4,0.8-2c0.6-0.5,1.2-0.8,2-0.8s1.4,0.3,2,0.8
						c0.5,0.5,0.8,1.2,0.8,2s-0.3,1.5-0.8,2c-0.5,0.6-1.2,0.8-2,0.8S95,11.3,94.4,10.7z M94.2,13.4h4.4v17.1h-4.4V13.4z"/>
					<path class="st7" d="M106.5,29.9c-1.4-0.8-2.5-1.9-3.2-3.3s-1.2-2.9-1.2-4.7c0-1.7,0.4-3.2,1.2-4.6c0.8-1.4,1.9-2.5,3.2-3.3
						c1.4-0.8,3-1.2,4.7-1.2s3.3,0.4,4.7,1.2c1.4,0.8,2.5,1.9,3.2,3.3c0.8,1.4,1.2,2.9,1.2,4.6s-0.4,3.3-1.2,4.7s-1.9,2.5-3.2,3.3
						c-1.4,0.8-3,1.2-4.7,1.2S107.9,30.7,106.5,29.9z M113.6,26.4c0.7-0.4,1.3-1,1.7-1.7c0.4-0.8,0.6-1.7,0.6-2.7s-0.2-1.9-0.6-2.7
						c-0.4-0.8-1-1.3-1.7-1.7c-0.7-0.4-1.5-0.6-2.4-0.6s-1.6,0.2-2.4,0.6c-0.7,0.4-1.3,1-1.7,1.7c-0.4,0.8-0.7,1.6-0.7,2.7
						c0,1,0.2,1.9,0.7,2.7c0.5,0.8,1,1.4,1.7,1.8c0.7,0.4,1.5,0.6,2.4,0.6C112.1,27,112.9,26.8,113.6,26.4z"/>
					<path class="st7" d="M123.3,13.4h4.1v2.1h0.3c0.5-0.8,1.2-1.5,2.2-2c0.9-0.5,2-0.7,3.1-0.7c2.1,0,3.6,0.6,4.7,1.9
						c1.1,1.3,1.6,3,1.6,5.1v10.6h-4.4v-10c0-1.1-0.3-1.9-0.8-2.6c-0.6-0.6-1.3-0.9-2.4-0.9c-1.2,0-2.1,0.5-2.9,1.4
						c-0.7,0.9-1.1,2.1-1.1,3.5v8.7h-4.4L123.3,13.4L123.3,13.4z"/>
					<path class="st7" d="M148.9,29.4c-1.9-1.1-3.4-2.6-4.5-4.5s-1.6-4-1.6-6.4s0.5-4.5,1.6-6.4s2.6-3.4,4.5-4.5s4-1.6,6.3-1.6
						c1.8,0,3.4,0.3,4.9,1s2.8,1.7,3.9,2.9l-2,2c-0.9-1.1-1.9-1.9-3-2.4s-2.3-0.8-3.7-0.8c-1.7,0-3.3,0.4-4.8,1.2
						c-1.5,0.8-2.6,2-3.5,3.5s-1.3,3.2-1.3,5.2s0.4,3.7,1.3,5.2c0.9,1.5,2,2.6,3.5,3.5s3.1,1.2,4.8,1.2c2.9,0,5.4-1.2,7.4-3.6l2.1,2
						c-1.1,1.3-2.5,2.4-4.1,3.1c-1.6,0.8-3.4,1.2-5.4,1.2C152.9,31.1,150.8,30.5,148.9,29.4z"/>
					<path class="st7" d="M168.9,6.5h8.1c1.3,0,2.6,0.3,3.7,0.9c1.1,0.6,2.1,1.4,2.7,2.5c0.7,1.1,1,2.3,1,3.7c0,1.1-0.3,2.2-0.8,3.1
						c-0.5,1-1.2,1.8-2.1,2.4c-0.9,0.6-1.9,1.1-2.9,1.3l-0.1,0.1l6.8,9.8v0.1H182l-6.5-9.8h-3.8v9.8h-2.8V6.5z M176.8,18.1
						c0.8,0,1.6-0.2,2.3-0.6s1.3-0.9,1.7-1.6s0.7-1.4,0.7-2.3c0-0.7-0.2-1.4-0.6-2.1c-0.4-0.7-0.9-1.2-1.6-1.6
						c-0.7-0.4-1.5-0.6-2.4-0.6h-5.3v8.9L176.8,18.1L176.8,18.1z"/>
					<path class="st7" d="M188.6,6.5h4.1l7.7,19.7h0.1l7.7-19.7h4.1v24h-2.8V15.3l0.1-4.6h-0.1l-7.9,19.8h-2.4l-7.9-19.8h-0.1
						l0.1,4.6v15.3h-2.8L188.6,6.5L188.6,6.5z"/>
				</g>
			</g>
		</g>
	</g>
</g>
<g id="Layer_2_7_">
	<g>
		<path class="st7" d="M15.4,8.2c0.7-1.9,1.4-3.8,2.3-5.6c1.2-2.5,4-3.3,6.5-2c2.2,1.1,3.1,3.9,2.2,6.3c-1.7,4.2-3.3,8.4-4.9,12.6
			c-1,2.6-2,5.2-3.1,7.8c-0.9,2-2.7,3-4.8,2.8c-2.9,0-4.5-1.1-5.5-3.7"/>
		
			<linearGradient id="SVGID_3_" gradientUnits="userSpaceOnUse" x1="2.7979" y1="32.4554" x2="12.6192" y2="8.4841" gradientTransform="matrix(1 0 0 -1 0 32.8757)">
			<stop  offset="0" style="stop-color:#1C8DF3"/>
			<stop  offset="0.3621" style="stop-color:#137CDB"/>
			<stop  offset="0.7281" style="stop-color:#0C6FCA"/>
			<stop  offset="1" style="stop-color:#0A6BC4"/>
		</linearGradient>
		<path class="st13" d="M8,26.3c-0.3-0.7-1.9-4.9-2-5.2c-1.6-4-3.1-8-4.7-12C0.8,7.6-0.1,6.3,0,4.6c0.2-2.2,1.8-4.1,3.8-4.5
			c2.4-0.4,4.6,0.7,5.4,2.8c1.1,2.6,4.1,10.3,4.1,10.3L8,26.3z"/>
		<polyline class="st9" points="8,26.3 7,23.9 13.3,13.2 		"/>
	</g>
	<g>
		<g class="st10">
			<path class="st7" d="M38.5,3.8l6.8,20.1l6.8-20.1h5.4l-9,25.4h-6.5l-9-25.4H38.5z"/>
			<path class="st7" d="M60.6,1.5C61.2,1,62,0.7,62.9,0.7s1.7,0.3,2.3,0.8C65.7,2,66,2.7,66,3.5c0,0.8-0.3,1.4-0.9,2
				c-0.6,0.5-1.3,0.8-2.3,0.8S61.2,6,60.6,5.5c-0.6-0.5-0.9-1.2-0.9-2C59.8,2.7,60.1,2,60.6,1.5z M65.4,9.2v19.9h-5.1V9.2H65.4z"/>
			<path class="st7" d="M82.7,10.8c1.5,1.2,2.4,2.9,2.7,4.9h-4.8c-0.2-1-0.6-1.7-1.3-2.3c-0.7-0.6-1.5-0.9-2.6-0.9
				c-0.9,0-1.5,0.2-2,0.6c-0.5,0.4-0.7,1-0.7,1.7c0,0.6,0.2,1,0.6,1.3c0.4,0.3,0.9,0.6,1.4,0.8c0.6,0.2,1.4,0.4,2.5,0.7
				c1.5,0.3,2.7,0.7,3.7,1.1c0.9,0.4,1.8,1,2.4,1.8c0.7,0.8,1,1.9,1,3.3c0,1.7-0.7,3.1-2,4.1c-1.3,1.1-3.1,1.6-5.4,1.6
				c-2.6,0-4.7-0.6-6.2-1.7c-1.6-1.2-2.5-2.8-2.8-5h4.9c0.1,1,0.6,1.8,1.3,2.3c0.7,0.6,1.7,0.8,2.9,0.8c0.9,0,1.5-0.2,2-0.6
				c0.5-0.4,0.7-1,0.7-1.6c0-0.6-0.2-1-0.6-1.4c-0.4-0.4-0.9-0.6-1.5-0.8c-0.6-0.2-1.4-0.4-2.5-0.7c-1.5-0.3-2.7-0.7-3.6-1
				c-0.9-0.3-1.7-0.9-2.4-1.7c-0.7-0.8-1-1.8-1-3.2c0-1.7,0.7-3.1,2-4.2C72.8,9.5,74.6,9,76.9,9C79.3,9,81.3,9.6,82.7,10.8z"/>
			<path class="st7" d="M89.8,1.5c0.6-0.5,1.3-0.8,2.3-0.8s1.7,0.3,2.3,0.8c0.6,0.5,0.9,1.2,0.9,2c0,0.8-0.3,1.4-0.9,2
				C93.7,6,93,6.2,92.1,6.2S90.4,6,89.8,5.5c-0.6-0.5-0.9-1.2-0.9-2C88.9,2.7,89.2,2,89.8,1.5z M94.6,9.2v19.9h-5.1V9.2H94.6z"/>
			<path class="st7" d="M113.6,10.2c1.5,0.8,2.8,2,3.7,3.5c0.9,1.5,1.3,3.4,1.3,5.5c0,2.1-0.4,3.9-1.3,5.4c-0.9,1.5-2.1,2.7-3.7,3.5
				c-1.5,0.8-3.3,1.2-5.2,1.2c-1.9,0-3.7-0.4-5.2-1.2c-1.5-0.8-2.8-2-3.7-3.5s-1.3-3.3-1.3-5.4c0-2.1,0.4-3.9,1.3-5.5
				c0.9-1.5,2.1-2.7,3.7-3.5c1.5-0.8,3.3-1.2,5.2-1.2C110.3,9,112.1,9.4,113.6,10.2z M104.8,14.9c-1,1-1.5,2.4-1.5,4.3
				c0,1.9,0.5,3.3,1.5,4.3c1,1,2.2,1.5,3.6,1.5c1.4,0,2.6-0.5,3.6-1.5c1-1,1.5-2.4,1.5-4.3c0-1.9-0.5-3.3-1.5-4.3
				c-1-1-2.2-1.5-3.6-1.5C107,13.4,105.8,13.9,104.8,14.9z"/>
			<path class="st7" d="M139.6,11.2c1.4,1.5,2.1,3.6,2.1,6.4v11.6h-5v-11c0-1.6-0.4-2.8-1.2-3.7c-0.8-0.9-1.9-1.3-3.3-1.3
				c-1.4,0-2.6,0.5-3.5,1.4c-0.9,0.9-1.3,2.3-1.3,4v10.6h-5.1V9.2h5.1v4c0.5-1.3,1.4-2.4,2.6-3.1c1.2-0.8,2.6-1.1,4.2-1.1
				C136.4,8.9,138.2,9.7,139.6,11.2z"/>
			<path class="st14" d="M161.4,11.2c1.7,1.3,2.7,3.1,3.1,5.4H161c-0.2-1.4-0.9-2.5-2-3.3c-1.1-0.8-2.4-1.2-4-1.2
				c-1.2,0-2.2,0.3-3.1,0.8c-0.9,0.5-1.7,1.3-2.3,2.4c-0.6,1.1-0.9,2.4-0.9,4c0,1.6,0.3,3,0.9,4c0.6,1.1,1.3,1.9,2.3,2.4
				c0.9,0.5,2,0.8,3.1,0.8c1.6,0,2.9-0.4,4-1.2c1.1-0.8,1.7-1.9,2-3.3h3.5c-0.4,2.3-1.4,4.1-3.1,5.4c-1.7,1.3-3.7,2-6.3,2
				c-1.9,0-3.6-0.4-5-1.2c-1.5-0.8-2.6-2-3.4-3.5c-0.8-1.5-1.2-3.3-1.2-5.4c0-2.1,0.4-3.9,1.2-5.4c0.8-1.5,2-2.7,3.4-3.5
				c1.5-0.8,3.1-1.2,5-1.2C157.7,9.2,159.8,9.8,161.4,11.2z"/>
			<path class="st14" d="M174.9,10.2c1.2-0.8,2.7-1.1,4.5-1.1v3.6h-1c-1.8,0-3.4,0.5-4.5,1.4c-1.2,0.9-1.8,2.5-1.8,4.7v10.4h-3.3
				V9.4h3.3v4C172.7,12,173.6,11,174.9,10.2z"/>
			<path class="st14" d="M212.5,11.3c1.4,1.5,2.1,3.6,2.1,6.4v11.5h-3.3V18c0-1.9-0.5-3.4-1.4-4.5c-0.9-1-2.2-1.5-3.9-1.5
				c-1.7,0-3.1,0.6-4.2,1.7c-1,1.1-1.6,2.8-1.6,5v10.5H197V18c0-1.9-0.5-3.4-1.4-4.5c-1-1-2.3-1.5-3.9-1.5c-1.8,0-3.1,0.6-4.2,1.7
				c-1,1.1-1.6,2.8-1.6,5v10.5h-3.3V9.4h3.3v4.5c0.5-1.6,1.3-2.8,2.6-3.6c1.2-0.8,2.7-1.2,4.3-1.2c1.7,0,3.1,0.4,4.4,1.3
				c1.2,0.9,2.1,2.1,2.6,3.8c0.6-1.6,1.5-2.8,2.8-3.7c1.3-0.9,2.8-1.3,4.4-1.3C209.2,9.1,211,9.8,212.5,11.3z"/>
		</g>
	</g>
</g>
</svg>
