<?xml version="1.0" encoding="utf-8"?>
<!-- Generator: Adobe Illustrator 21.1.0, SVG Export Plug-In . SVG Version: 6.00 Build 0)  -->
<svg version="1.1" id="Layer_2" xmlns="http://www.w3.org/2000/svg" xmlns:xlink="http://www.w3.org/1999/xlink" x="0px" y="0px"
	 viewBox="0 0 46 46" style="enable-background:new 0 0 46 46;" xml:space="preserve">
<style type="text/css">
	.st0{fill:#1E272B;}
	.st1{fill:url(#SVGID_1_);}
</style>
<path class="st0" d="M9.2,4.9C19.3-2.8,33.3-1,41.1,9.1c7.8,10.1,5.8,24.6-4.3,32.3c-9.9,7.5-24.5,5.4-32-4.5
	C-2.8,26.8-0.8,12.5,9.2,4.9z M33.6,36.2c7.3-5.9,8.5-16.6,2.8-23.9c-5.8-7.2-16.6-8.5-23.9-2.8C5,15.4,3.8,26.2,9.8,33.7
	C15.7,41,26.3,42.2,33.6,36.2z"/>
<linearGradient id="SVGID_1_" gradientUnits="userSpaceOnUse" x1="18.2977" y1="11.4643" x2="27.7845" y2="34.6193">
	<stop  offset="0" style="stop-color:#1C8DF3"/>
	<stop  offset="0.3621" style="stop-color:#137CDB"/>
	<stop  offset="0.7281" style="stop-color:#0C6FCA"/>
	<stop  offset="1" style="stop-color:#0A6BC4"/>
</linearGradient>
<path class="st1" d="M13.1,30.6c-4.4-5.7-3.1-14,2.9-18c1.5-1,2.6-2.1,3.5,1c1.5,5.2,6.6,7.2,11,4.1c3.3-2.3,3.8-0.5,4.5,2
	c1.6,5.6-1.1,11.7-6.3,14.4C23.5,36.9,16.8,35.4,13.1,30.6z"/>
</svg>
