<?xml version="1.0" encoding="utf-8"?>
<!-- Generator: Adobe Illustrator 21.1.0, SVG Export Plug-In . SVG Version: 6.00 Build 0)  -->
<svg version="1.1" id="Layer_1" xmlns="http://www.w3.org/2000/svg" xmlns:xlink="http://www.w3.org/1999/xlink" x="0px" y="0px"
	 viewBox="0 0 182.9 28.2" style="enable-background:new 0 0 182.9 28.2;" xml:space="preserve">
<style type="text/css">
	.st0{display:none;}
	.st1{display:inline;}
	.st2{fill:#377DFF;}
	.st3{opacity:0.65;fill:#3F7DE0;enable-background:new    ;}
	.st4{opacity:0.5;fill:#00DFFC;enable-background:new    ;}
	.st5{opacity:0.7;fill:#3F7DE0;enable-background:new    ;}
	.st6{fill:#FFFFFF;}
	.st7{fill:#1E272B;}
	.st8{fill:url(#SVGID_1_);}
	.st9{opacity:0.25;fill:#242E35;enable-background:new    ;}
	.st10{enable-background:new    ;}
	.st11{fill:url(#SVGID_2_);}
	.st12{display:inline;enable-background:new    ;}
	.st13{fill:url(#SVGID_3_);}
	.st14{fill:#137CDB;}
</style>
<g id="Layer_1_4_" class="st0">
	<g id="Layer_1_3_" class="st1">
		<g id="Layer_1_2_" class="st0">
			<g id="Layer_1_1_" class="st1">
				<path class="st2" d="M90.3,28.9V0.7h17.9v5.2H97v6h8.4v5.2H97v11.8H90.3z"/>
				<path class="st2" d="M117.5,6.5v4.2c1.6-2.9,3.7-4.4,6.3-4.4v7h-1.5c-1.5,0-2.7,0.4-3.5,1.1c-0.8,0.8-1.2,2.1-1.2,3.9v10.6h-6.7
					V6.5H117.5z"/>
				<path class="st2" d="M127.3,25.9c-2.2-2.1-3.3-4.9-3.3-8.4s1.1-6.2,3.3-8.3c2.2-2.1,4.9-3.1,8.1-3.1s5.9,1,8.1,3.1
					c2.2,2.1,3.3,4.8,3.3,8.3s-1.1,6.2-3.3,8.4s-4.9,3.2-8.1,3.2S129.4,28.1,127.3,25.9z M138.7,21.9c0.9-1,1.3-2.4,1.3-4.2
					s-0.5-3.2-1.4-4.2s-2-1.4-3.3-1.4s-2.3,0.5-3.2,1.4c-0.9,1-1.4,2.3-1.4,4.2s0.5,3.2,1.4,4.2s2,1.4,3.3,1.4
					C136.7,23.2,137.8,22.7,138.7,21.9z"/>
				<path class="st2" d="M155.9,6.5v3.3c1.4-2.4,3.6-3.5,6.6-3.5c2.5,0,4.5,0.9,6.1,2.6s2.3,4,2.3,7V29h-6.7V16.7
					c0-1.4-0.4-2.6-1.1-3.4c-0.7-0.8-1.8-1.2-3.1-1.2s-2.3,0.4-3.1,1.2c-0.7,0.8-1.1,1.9-1.1,3.4v12.2h-6.7V6.5H155.9z"/>
				<path class="st2" d="M183.9,23.1h2.4v5.8h-3.4c-2.5,0-4.4-0.6-5.7-1.7s-2-3-2-5.7v-9.3h-2V6.5h2V1h6.7v5.5h4.4v5.7h-4.4v9.3
					C181.9,22.4,182.5,23.1,183.9,23.1z"/>
				<path class="st3" d="M54.4,31.7L54.4,31.7c-9.9,0-18-8-18-18l0,0c0-9.9,8-18,18-18h11.3c3.7,0,6.6,3,6.6,6.6v11.4
					C72.4,23.7,64.3,31.7,54.4,31.7z"/>
				<path class="st4" d="M59.4,26.7L59.4,26.7c-9.9,0-18-8-18-18l0,0c0-9.9,8-18,18-18h11.3c3.7,0.1,6.7,3.1,6.7,6.7V8.8
					C77.4,18.7,69.4,26.7,59.4,26.7z"/>
				<path class="st5" d="M49.4,36.7L49.4,36.7c-10,0-18-8-18-18l0,0c0-9.9,8-18,18-18h11.3c3.7,0,6.6,3,6.6,6.6v11.4
					C67.3,28.7,59.3,36.7,49.4,36.7z"/>
				<path class="st6" d="M48.8,24.7V9H59v2.9h-6.4v3.4h4.8v2.9h-4.8v6.5H48.8z"/>
			</g>
			<g id="Layer_2" class="st1">
				<g id="Layer_2_1_">
					<g>
						<path class="st7" d="M46.9,7.4c0.7-1.9,1.4-3.8,2.3-5.6c1.2-2.5,4-3.3,6.5-2.1C58,0.8,58.8,3.6,57.9,6
							c-1.7,4.2-3.3,8.4-4.9,12.6c-1,2.6-2,5.3-3.1,7.9c-0.9,2.1-2.7,3-4.8,2.8c-3.1,0.1-4.7-1-5.7-3.7"/>
						
							<linearGradient id="SVGID_1_" gradientUnits="userSpaceOnUse" x1="34.2263" y1="-271.8724" x2="44.115" y2="-296.0085" gradientTransform="matrix(1 0 0 -1 0 -272.2437)">
							<stop  offset="0" style="stop-color:#1C8DF3"/>
							<stop  offset="0.3621" style="stop-color:#137CDB"/>
							<stop  offset="0.7281" style="stop-color:#0C6FCA"/>
							<stop  offset="1" style="stop-color:#0A6BC4"/>
						</linearGradient>
						<path class="st8" d="M39.4,25.7c-0.3-0.7-1.9-4.9-2-5.2c-1.6-4-3.2-8-4.7-12.1c-0.6-1.5-1.4-2.9-1.3-4.6
							c0.2-2.1,1.8-4.1,3.8-4.4c2.4-0.4,4.6,0.7,5.5,2.8c1.1,2.6,4.1,10.4,4.1,10.4L39.4,25.7z"/>
						<polyline class="st9" points="39.4,25.7 38.5,23.2 44.8,12.5 						"/>
					</g>
					<g>
						<g class="st10">
							<path class="st7" d="M64.8,2.7h5.3l5.4,15.7l0.9,3.3h0.3l1-3.3l5.6-15.7h5.3l-9.5,25.9H74L64.8,2.7z"/>
							<path class="st7" d="M92.1,2.7H97v25.9h-4.9V2.7z"/>
							<path class="st7" d="M104.7,27.2c-1.7-1.3-3-3.1-3.7-5.4l4.6-1.8c0.4,1.4,1,2.5,1.8,3.3s2,1.2,3.3,1.2c1.1,0,2-0.3,2.8-0.8
								s1.2-1.3,1.2-2.3s-0.4-1.8-1.1-2.4s-2-1.3-3.9-2l-1.6-0.6c-1.7-0.6-3.1-1.5-4.3-2.7c-1.2-1.2-1.8-2.7-1.8-4.5
								c0-1.4,0.4-2.6,1.1-3.7s1.7-2,3-2.6s2.7-1,4.3-1c2.3,0,4.2,0.5,5.5,1.6c1.4,1.1,2.3,2.4,2.8,3.9l-4.3,1.9
								c-0.3-0.8-0.7-1.5-1.4-2s-1.5-0.8-2.6-0.8s-1.9,0.2-2.6,0.7s-1,1.1-1,1.9s0.3,1.4,1,2s1.7,1.1,3.2,1.6l1.6,0.5
								c2.2,0.8,4,1.8,5.2,3.1s1.8,2.9,1.8,5c0,1.7-0.4,3.1-1.3,4.3s-2,2-3.4,2.6s-2.8,0.9-4.2,0.9
								C108.4,29.1,106.4,28.6,104.7,27.2z"/>
							<path class="st7" d="M124.2,2.7h4.9v25.9h-4.9V2.7z"/>
							<path class="st7" d="M139.9,27.4c-2.1-1.2-3.7-2.8-4.9-4.9s-1.8-4.4-1.8-6.8c0-2.5,0.6-4.8,1.8-6.8c1.2-2.1,2.8-3.7,4.9-4.9
								c2.1-1.2,4.4-1.8,6.9-1.8s4.8,0.6,6.9,1.8c2.1,1.2,3.7,2.8,4.9,4.9s1.8,4.4,1.8,6.8c0,2.5-0.6,4.8-1.8,6.8
								c-1.2,2.1-2.8,3.7-4.9,4.9c-2.1,1.2-4.4,1.8-6.9,1.8S141.9,28.6,139.9,27.4z M151.3,23.4c1.3-0.7,2.4-1.8,3.1-3.2
								s1.1-2.9,1.1-4.6s-0.4-3.3-1.1-4.6c-0.8-1.4-1.8-2.4-3.1-3.2c-1.3-0.7-2.8-1.1-4.4-1.1s-3,0.4-4.4,1.1
								c-1.3,0.7-2.4,1.8-3.1,3.2c-0.8,1.4-1.1,2.9-1.1,4.6s0.4,3.3,1.1,4.6s1.8,2.4,3.1,3.2c1.3,0.8,2.8,1.1,4.4,1.1
								C148.4,24.6,149.9,24.1,151.3,23.4z"/>
							<path class="st7" d="M165.1,2.7h5.7l10.4,17.4h0.3l-0.3-5V2.7h4.9v25.9H181l-11-18.4h-0.3l0.3,5v13.4h-4.8L165.1,2.7
								L165.1,2.7z"/>
						</g>
					</g>
				</g>
			</g>
		</g>
		<g id="Layer_2_2_">
			<g id="Layer_2_3_">
				<g id="Layer_2_4_">
					<g>
						<path class="st7" d="M21.1,7c0.8-2.2,1.6-4.3,2.6-6.4c1.4-2.8,4.6-3.8,7.4-2.4c2.6,1.3,3.5,4.4,2.5,7.2
							c-1.9,4.8-3.8,9.6-5.6,14.4c-1.1,3-2.3,6-3.5,9c-1,2.4-3.1,3.4-5.5,3.2c-3.5,0.1-5.4-1.1-6.5-4.2"/>
						
							<linearGradient id="SVGID_2_" gradientUnits="userSpaceOnUse" x1="6.5952" y1="-270.4069" x2="17.8618" y2="-297.9062" gradientTransform="matrix(1 0 0 -1 0 -272.2437)">
							<stop  offset="0" style="stop-color:#1C8DF3"/>
							<stop  offset="0.3621" style="stop-color:#137CDB"/>
							<stop  offset="0.7281" style="stop-color:#0C6FCA"/>
							<stop  offset="1" style="stop-color:#0A6BC4"/>
						</linearGradient>
						<path class="st11" d="M12.5,27.9c-0.3-0.8-2.2-5.6-2.3-5.9c-1.8-4.6-3.6-9.2-5.3-13.8C4.2,6.5,3.3,4.8,3.4,3
							c0.2-2.4,2.1-4.7,4.3-5c2.7-0.5,5.2,0.8,6.3,3.2c1.3,2.9,4.7,11.7,4.7,11.7L12.5,27.9z"/>
						<polyline class="st9" points="12.5,27.9 11.5,25.1 18.7,12.9 						"/>
					</g>
					<g class="st0">
						<g class="st12">
							<path class="st7" d="M45.7,4.8h4.9l5,14.5l0.8,3.1h0.3l0.9-3.1l5.2-14.4h4.9l-8.8,24h-4.7L45.7,4.8z"/>
							<path class="st7" d="M71,4.8h4.5v24H71V4.8z"/>
							<path class="st7" d="M82.7,27.6c-1.6-1.2-2.8-2.9-3.4-5l4.3-1.7c0.4,1.3,0.9,2.3,1.7,3.1s1.9,1.1,3.1,1.1
								c1,0,1.9-0.3,2.6-0.7c0.7-0.5,1.1-1.2,1.1-2.1s-0.4-1.7-1-2.2s-1.9-1.2-3.6-1.9L86,17.6c-1.6-0.6-2.9-1.4-4-2.5
								s-1.7-2.6-1.7-4.2c0-1.3,0.4-2.4,1-3.4s1.6-1.9,2.8-2.4c1.2-0.6,2.5-0.9,4-0.9c2.1,0,3.9,0.5,5.1,1.5c1.3,1,2.1,2.2,2.6,3.6
								l-4,1.8c-0.4-0.8-0.8-1.4-1.4-1.9S89,8.5,88,8.5s-1.8,0.2-2.4,0.6c-0.6,0.5-0.9,1-0.9,1.8c0,0.7,0.3,1.3,0.9,1.9s1.6,1,3,1.5
								l1.5,0.5c2,0.7,3.7,1.7,4.8,2.9c1.1,1.2,1.7,2.7,1.7,4.6c0,1.6-0.4,2.9-1.2,4s-1.9,1.9-3.1,2.4c-1.3,0.6-2.6,0.8-3.9,0.8
								C86.1,29.4,84.3,28.9,82.7,27.6z"/>
							<path class="st7" d="M100.8,4.8h4.5v24h-4.5V4.8z"/>
							<path class="st7" d="M115.4,27.7c-1.9-1.1-3.4-2.6-4.5-4.5s-1.7-4.1-1.7-6.3c0-2.3,0.6-4.4,1.7-6.3s2.6-3.4,4.5-4.5
								s4.1-1.7,6.4-1.7s4.4,0.6,6.4,1.7c1.9,1.1,3.4,2.6,4.5,4.5s1.7,4.1,1.7,6.3c0,2.3-0.6,4.4-1.7,6.3c-1.1,1.9-2.6,3.4-4.5,4.5
								c-1.9,1.1-4.1,1.7-6.4,1.7C119.4,29.4,117.2,28.9,115.4,27.7z M125.9,24.1c1.2-0.6,2.2-1.7,2.9-3c0.6-1.3,1-2.7,1-4.3
								s-0.4-3.1-1-4.3c-0.7-1.3-1.7-2.2-2.9-3c-1.2-0.6-2.6-1-4.1-1s-2.8,0.4-4.1,1c-1.2,0.6-2.2,1.7-2.9,3c-0.7,1.3-1,2.7-1,4.3
								s0.4,3.1,1,4.3c0.6,1.2,1.7,2.2,2.9,3c1.2,0.7,2.6,1,4.1,1S124.5,24.7,125.9,24.1z"/>
							<path class="st7" d="M138.5,4.8h5.3l9.6,16.1h0.3l-0.3-4.6V4.8h4.5v24h-4.6l-10.2-17h-0.3l0.3,4.6v12.5h-4.4L138.5,4.8
								L138.5,4.8z"/>
						</g>
					</g>
				</g>
			</g>
		</g>
	</g>
	<g id="Layer_2_5_" class="st1">
		<g id="Layer_2_6_">
			<g>
				<g class="st10">
					<path class="st7" d="M45.2,4.8h4.9l5,14.5l0.9,3.1h0.3l0.9-3.1l5.1-14.5h4.9l-8.8,24h-4.8L45.2,4.8z"/>
					<path class="st7" d="M69.6,8.9c-0.6-0.6-0.8-1.2-0.8-2s0.3-1.4,0.8-2c0.6-0.5,1.2-0.8,2-0.8s1.4,0.3,2,0.8
						c0.5,0.5,0.8,1.2,0.8,2s-0.3,1.5-0.8,2c-0.5,0.6-1.2,0.8-2,0.8S70.2,9.5,69.6,8.9z M69.4,11.7h4.4v17.1h-4.4V11.7z"/>
					<path class="st7" d="M79.9,28.1c-1.3-0.9-2.2-2-2.7-3.3l3.9-1.7c0.4,0.8,0.9,1.4,1.5,1.8s1.4,0.6,2.3,0.6c0.8,0,1.5-0.1,2-0.4
						s0.8-0.7,0.8-1.3s-0.2-1-0.7-1.3s-1.2-0.5-2.2-0.8l-2-0.4c-1.4-0.3-2.5-0.9-3.5-1.8s-1.4-2-1.4-3.3c0-1,0.3-1.9,0.9-2.7
						s1.4-1.4,2.4-1.8s2.1-0.6,3.4-0.6c3.5,0,5.9,1.2,7.1,3.7l-3.8,1.6c-0.7-1.2-1.7-1.8-3.2-1.8c-0.8,0-1.4,0.1-1.8,0.4
						s-0.7,0.6-0.7,1.1c0,0.8,0.8,1.4,2.3,1.8l2.5,0.6c1.7,0.4,3,1.1,3.8,1.9c0.9,0.9,1.3,1.9,1.3,3.2c0,1.1-0.3,2.1-1,2.9
						c-0.6,0.8-1.5,1.5-2.6,2s-2.3,0.7-3.7,0.7C82.9,29.4,81.2,28.9,79.9,28.1z"/>
					<path class="st7" d="M95.7,8.9c-0.6-0.6-0.8-1.2-0.8-2s0.3-1.4,0.8-2c0.6-0.5,1.2-0.8,2-0.8s1.4,0.3,2,0.8
						c0.5,0.5,0.8,1.2,0.8,2s-0.3,1.5-0.8,2c-0.5,0.6-1.2,0.8-2,0.8S96.3,9.5,95.7,8.9z M95.5,11.7h4.4v17.1h-4.4V11.7z"/>
					<path class="st7" d="M107.8,28.1c-1.4-0.8-2.5-1.9-3.2-3.3s-1.2-2.9-1.2-4.7c0-1.7,0.4-3.2,1.2-4.6c0.8-1.4,1.9-2.5,3.2-3.3
						c1.4-0.8,3-1.2,4.7-1.2s3.3,0.4,4.7,1.2c1.4,0.8,2.5,1.9,3.2,3.3c0.8,1.4,1.2,2.9,1.2,4.6s-0.4,3.3-1.2,4.7s-1.9,2.5-3.2,3.3
						c-1.4,0.8-3,1.2-4.7,1.2S109.2,28.9,107.8,28.1z M114.9,24.7c0.7-0.4,1.3-1,1.7-1.7c0.4-0.8,0.6-1.7,0.6-2.7s-0.2-1.9-0.6-2.7
						c-0.4-0.8-1-1.3-1.7-1.7c-0.7-0.4-1.5-0.6-2.4-0.6s-1.6,0.2-2.4,0.6c-0.7,0.4-1.3,1-1.7,1.7c-0.4,0.8-0.7,1.6-0.7,2.7
						c0,1,0.2,1.9,0.7,2.7c0.5,0.8,1,1.4,1.7,1.8s1.5,0.6,2.4,0.6C113.4,25.2,114.2,25.1,114.9,24.7z"/>
					<path class="st7" d="M124.6,11.7h4.1v2.1h0.3c0.5-0.8,1.2-1.5,2.2-2c0.9-0.5,2-0.7,3.1-0.7c2.1,0,3.6,0.6,4.7,1.9
						c1.1,1.3,1.6,3,1.6,5.1v10.6h-4.4v-10c0-1.1-0.3-1.9-0.8-2.6c-0.6-0.6-1.3-0.9-2.4-0.9c-1.2,0-2.1,0.5-2.9,1.4
						c-0.7,0.9-1.1,2.1-1.1,3.5v8.7h-4.4L124.6,11.7L124.6,11.7z"/>
					<path class="st7" d="M150.2,27.7c-1.9-1.1-3.4-2.6-4.5-4.5s-1.6-4-1.6-6.4s0.5-4.5,1.6-6.4s2.6-3.4,4.5-4.5s4-1.6,6.3-1.6
						c1.8,0,3.4,0.3,4.9,1s2.8,1.7,3.9,2.9l-2,2c-0.9-1.1-1.9-1.9-3-2.4S158,7,156.6,7c-1.7,0-3.3,0.4-4.8,1.2s-2.6,2-3.5,3.5
						s-1.3,3.2-1.3,5.2s0.4,3.7,1.3,5.2c0.9,1.5,2,2.6,3.5,3.5s3.1,1.2,4.8,1.2c2.9,0,5.4-1.2,7.4-3.6l2.1,2
						c-1.1,1.3-2.5,2.4-4.1,3.1c-1.6,0.8-3.4,1.2-5.4,1.2C154.2,29.4,152.1,28.7,150.2,27.7z"/>
					<path class="st7" d="M170.2,4.8h8.1c1.3,0,2.6,0.3,3.7,0.9c1.1,0.6,2.1,1.4,2.7,2.5c0.7,1.1,1,2.3,1,3.7c0,1.1-0.3,2.2-0.8,3.1
						c-0.5,1-1.2,1.8-2.1,2.4c-0.9,0.6-1.9,1.1-2.9,1.3l-0.1,0.1l6.8,9.8v0.1h-3.3l-6.5-9.8H173v9.8h-2.8V4.8z M178.1,16.4
						c0.8,0,1.6-0.2,2.3-0.6c0.7-0.4,1.3-0.9,1.7-1.6s0.7-1.4,0.7-2.3c0-0.7-0.2-1.4-0.6-2.1c-0.4-0.7-0.9-1.2-1.6-1.6
						c-0.7-0.4-1.5-0.6-2.4-0.6h-5.3v8.9L178.1,16.4L178.1,16.4z"/>
					<path class="st7" d="M189.9,4.8h4.1l7.7,19.7h0.1l7.7-19.7h4.1v24h-2.8V13.5l0.1-4.6h-0.1l-7.9,19.8h-2.4l-7.9-19.8h-0.1
						l0.1,4.6v15.4h-2.8L189.9,4.8L189.9,4.8z"/>
				</g>
			</g>
		</g>
	</g>
</g>
<g id="Layer_2_7_" class="st0">
	<g class="st1">
		<path class="st7" d="M14.3,7c0.8-2.1,1.5-4.2,2.5-6.2c1.3-2.7,4.4-3.6,7.2-2.3c2.5,1.2,3.5,4.3,2.4,7c-1.9,4.6-3.6,9.3-5.4,13.9
			c-1.1,2.9-2.2,5.8-3.4,8.7c-1,2.3-2.9,3.3-5.3,3.1c-3.2,0-5-1.2-6.1-4.1"/>
		
			<linearGradient id="SVGID_3_" gradientUnits="userSpaceOnUse" x1="0.4211" y1="164.8524" x2="11.318" y2="191.4489" gradientTransform="matrix(1 0 0 1 0 -166.5)">
			<stop  offset="0" style="stop-color:#1C8DF3"/>
			<stop  offset="0.3621" style="stop-color:#137CDB"/>
			<stop  offset="0.7281" style="stop-color:#0C6FCA"/>
			<stop  offset="1" style="stop-color:#0A6BC4"/>
		</linearGradient>
		<path class="st13" d="M6.2,27.1c-0.3-0.8-2.1-5.4-2.2-5.7C2.2,16.9,0.4,12.5-1.2,8c-0.7-1.6-1.6-3.2-1.5-5c0.2-2.4,2-4.6,4.2-4.9
			c2.7-0.4,5.1,0.7,6,3.1C8.7,4.1,12,12.6,12,12.6L6.2,27.1z"/>
		<polyline class="st9" points="6.2,27.1 5.1,24.4 12,12.6 		"/>
	</g>
	<g class="st1">
		<g class="st10">
			<path class="st7" d="M38.7,3.1l7,20.8l7.1-20.8h5.6l-9.3,26.3h-6.7L33.1,3.1H38.7z"/>
			<path class="st7" d="M61.5,0.8C62.1,0.3,62.9,0,63.8,0c1,0,1.8,0.3,2.3,0.8C66.7,1.3,67,2,67,2.9c0,0.8-0.3,1.5-0.9,2
				s-1.4,0.8-2.3,0.8c-1,0-1.8-0.3-2.3-0.8c-0.6-0.5-0.9-1.2-0.9-2C60.7,2,60.9,1.3,61.5,0.8z M66.5,8.7v20.6h-5.3V8.7H66.5z"/>
			<path class="st7" d="M84.4,10.4c1.5,1.3,2.5,3,2.8,5.1h-4.9c-0.2-1-0.6-1.8-1.3-2.4c-0.7-0.6-1.6-0.9-2.7-0.9
				c-0.9,0-1.6,0.2-2.1,0.6c-0.5,0.4-0.7,1-0.7,1.7c0,0.6,0.2,1,0.6,1.4c0.4,0.4,0.9,0.6,1.5,0.8c0.6,0.2,1.5,0.4,2.6,0.7
				c1.6,0.3,2.8,0.7,3.8,1.1s1.8,1,2.5,1.8s1.1,2,1.1,3.4c0,1.8-0.7,3.2-2.1,4.3s-3.2,1.6-5.6,1.6c-2.7,0-4.8-0.6-6.4-1.8
				c-1.6-1.2-2.6-2.9-2.9-5.2h5c0.1,1,0.6,1.8,1.3,2.4c0.8,0.6,1.8,0.9,3,0.9c0.9,0,1.6-0.2,2-0.7c0.5-0.4,0.7-1,0.7-1.7
				c0-0.6-0.2-1.1-0.6-1.5s-0.9-0.7-1.5-0.9c-0.6-0.2-1.5-0.4-2.6-0.7c-1.5-0.3-2.8-0.7-3.7-1.1c-1-0.4-1.8-0.9-2.5-1.7
				c-0.7-0.8-1-1.9-1-3.3c0-1.8,0.7-3.2,2-4.4c1.4-1.1,3.3-1.7,5.7-1.7C80.9,8.5,82.9,9.1,84.4,10.4z"/>
			<path class="st7" d="M91.7,0.8C92.3,0.3,93.1,0,94,0c1,0,1.8,0.3,2.3,0.8c0.6,0.5,0.9,1.2,0.9,2.1c0,0.8-0.3,1.5-0.9,2
				S94.9,5.7,94,5.7c-1,0-1.8-0.3-2.3-0.8c-0.6-0.5-0.9-1.2-0.9-2C90.8,2,91.1,1.3,91.7,0.8z M96.7,8.7v20.6h-5.3V8.7H96.7z"/>
			<path class="st7" d="M116.4,9.7c1.6,0.8,2.9,2.1,3.8,3.7s1.4,3.5,1.4,5.6c0,2.2-0.5,4-1.4,5.6s-2.2,2.8-3.8,3.7
				c-1.6,0.9-3.4,1.3-5.4,1.3s-3.8-0.4-5.4-1.3s-2.9-2.1-3.8-3.7s-1.4-3.5-1.4-5.6c0-2.2,0.5-4,1.4-5.6s2.2-2.8,3.8-3.7
				c1.6-0.8,3.4-1.3,5.4-1.3C113,8.5,114.8,8.9,116.4,9.7z M107.2,14.6c-1,1-1.5,2.5-1.5,4.5s0.5,3.5,1.5,4.5s2.3,1.5,3.7,1.5
				c1.5,0,2.7-0.5,3.7-1.5s1.5-2.5,1.5-4.5s-0.5-3.5-1.5-4.5s-2.3-1.5-3.7-1.5C109.5,13,108.3,13.5,107.2,14.6z"/>
			<path class="st7" d="M143.3,10.8c1.4,1.6,2.1,3.8,2.1,6.6v12h-5.2V18c0-1.6-0.4-2.9-1.3-3.8c-0.8-0.9-2-1.4-3.5-1.4
				s-2.7,0.5-3.6,1.5c-0.9,1-1.3,2.4-1.3,4.2v11h-5.2V8.7h5.3v4.2c0.5-1.4,1.4-2.5,2.7-3.3s2.7-1.2,4.3-1.2
				C140,8.4,141.9,9.2,143.3,10.8z"/>
			<path class="st14" d="M165.9,10.8c1.7,1.4,2.8,3.3,3.2,5.6h-3.6c-0.2-1.5-0.9-2.6-2-3.4c-1.1-0.8-2.5-1.2-4.1-1.2
				c-1.2,0-2.3,0.3-3.3,0.8s-1.8,1.4-2.4,2.5c-0.6,1.1-0.9,2.5-0.9,4.2s0.3,3.1,0.9,4.2c0.6,1.1,1.4,2,2.4,2.5s2.1,0.8,3.3,0.8
				c1.6,0,3-0.4,4.1-1.3c1.1-0.8,1.8-2,2-3.5h3.6c-0.4,2.4-1.5,4.2-3.2,5.6s-3.9,2.1-6.5,2.1c-2,0-3.7-0.4-5.2-1.3
				c-1.5-0.8-2.7-2.1-3.6-3.6c-0.9-1.6-1.3-3.4-1.3-5.6c0-2.1,0.4-4,1.3-5.6c0.9-1.6,2-2.8,3.6-3.7c1.5-0.8,3.3-1.3,5.2-1.3
				C162,8.7,164.2,9.4,165.9,10.8z"/>
			<path class="st14" d="M179.8,9.8c1.3-0.8,2.8-1.2,4.6-1.2v3.7h-1c-1.9,0-3.5,0.5-4.7,1.5s-1.8,2.6-1.8,4.9v10.8h-3.4V8.9h3.4V13
				C177.5,11.6,178.5,10.5,179.8,9.8z"/>
			<path class="st14" d="M218.7,10.9c1.5,1.5,2.2,3.7,2.2,6.6v11.9h-3.4V17.8c0-2-0.5-3.6-1.5-4.6c-1-1.1-2.3-1.6-4-1.6
				c-1.8,0-3.2,0.6-4.3,1.8s-1.6,2.9-1.6,5.2v10.8h-3.4V17.8c0-2-0.5-3.6-1.5-4.6c-1-1.1-2.3-1.6-4-1.6c-1.8,0-3.3,0.6-4.3,1.8
				c-1.1,1.2-1.6,2.9-1.6,5.2v10.8h-3.4V8.9h3.4v4.7c0.5-1.6,1.4-2.8,2.7-3.7s2.7-1.3,4.4-1.3s3.2,0.4,4.5,1.3
				c1.3,0.9,2.2,2.2,2.7,3.9c0.6-1.7,1.5-2.9,2.9-3.9c1.3-0.9,2.9-1.4,4.5-1.4C215.3,8.6,217.2,9.4,218.7,10.9z"/>
		</g>
	</g>
</g>
<g id="Layer_2_8_">
	<g>
		<g class="st10">
			<path class="st7" d="M33.9,3.7l5.8,17l5.8-17h4.6l-7.6,21.5H37L29.3,3.7H33.9z"/>
			<path class="st7" d="M52.6,1.8c0.5-0.4,1.1-0.7,1.9-0.7c0.8,0,1.4,0.2,1.9,0.7c0.5,0.4,0.7,1,0.7,1.7c0,0.7-0.2,1.2-0.7,1.7
				c-0.5,0.4-1.1,0.7-1.9,0.7c-0.8,0-1.4-0.2-1.9-0.7c-0.5-0.4-0.7-1-0.7-1.7C51.9,2.8,52.2,2.2,52.6,1.8z M56.7,8.3v16.9h-4.3V8.3
				H56.7z"/>
			<path class="st7" d="M71.3,9.6c1.2,1,2,2.4,2.3,4.1h-4c-0.2-0.8-0.5-1.5-1.1-1.9c-0.6-0.5-1.3-0.7-2.2-0.7
				c-0.7,0-1.3,0.2-1.7,0.5C64.2,12,64,12.4,64,13c0,0.5,0.2,0.8,0.5,1.1c0.3,0.3,0.7,0.5,1.2,0.7c0.5,0.2,1.2,0.4,2.1,0.6
				c1.3,0.3,2.3,0.6,3.1,0.9c0.8,0.3,1.5,0.8,2.1,1.5s0.9,1.6,0.9,2.8c0,1.4-0.6,2.6-1.7,3.5c-1.1,0.9-2.6,1.3-4.6,1.3
				c-2.2,0-3.9-0.5-5.3-1.5c-1.3-1-2.1-2.4-2.4-4.2h4.1c0.1,0.8,0.5,1.5,1.1,2c0.6,0.5,1.5,0.7,2.5,0.7c0.7,0,1.3-0.2,1.7-0.5
				c0.4-0.4,0.6-0.8,0.6-1.4c0-0.5-0.2-0.9-0.5-1.2c-0.3-0.3-0.8-0.5-1.2-0.7S66.9,18.2,66,18c-1.3-0.3-2.3-0.6-3.1-0.9
				c-0.8-0.3-1.5-0.8-2-1.4c-0.6-0.6-0.8-1.5-0.8-2.7c0-1.5,0.6-2.6,1.7-3.6s2.7-1.4,4.6-1.4C68.5,8.1,70.1,8.6,71.3,9.6z"/>
			<path class="st7" d="M77.3,1.8c0.5-0.4,1.1-0.7,1.9-0.7c0.8,0,1.4,0.2,1.9,0.7c0.5,0.4,0.7,1,0.7,1.7c0,0.7-0.2,1.2-0.7,1.7
				c-0.5,0.4-1.1,0.7-1.9,0.7c-0.8,0-1.4-0.2-1.9-0.7c-0.5-0.4-0.7-1-0.7-1.7C76.6,2.8,76.8,2.2,77.3,1.8z M81.4,8.3v16.9h-4.3V8.3
				H81.4z"/>
			<path class="st7" d="M97.5,9.1c1.3,0.7,2.3,1.7,3.1,3c0.8,1.3,1.1,2.8,1.1,4.6c0,1.8-0.4,3.3-1.1,4.6c-0.8,1.3-1.8,2.3-3.1,3
				s-2.8,1.1-4.4,1.1c-1.6,0-3.1-0.4-4.4-1.1c-1.3-0.7-2.3-1.7-3.1-3c-0.8-1.3-1.1-2.8-1.1-4.6c0-1.8,0.4-3.3,1.1-4.6
				c0.8-1.3,1.8-2.3,3.1-3c1.3-0.7,2.8-1,4.4-1C94.7,8.1,96.2,8.4,97.5,9.1z M90,13.1c-0.8,0.8-1.2,2.1-1.2,3.7
				c0,1.6,0.4,2.8,1.2,3.7c0.8,0.8,1.8,1.3,3,1.3c1.2,0,2.2-0.4,3-1.3c0.8-0.8,1.2-2.1,1.2-3.7c0-1.6-0.4-2.8-1.2-3.7
				c-0.8-0.8-1.8-1.3-3-1.3C91.9,11.8,90.8,12.2,90,13.1z"/>
			<path class="st7" d="M119.5,10c1.2,1.3,1.7,3.1,1.7,5.4v9.8h-4.3v-9.3c0-1.3-0.3-2.4-1-3.1c-0.7-0.7-1.6-1.1-2.8-1.1
				c-1.2,0-2.2,0.4-2.9,1.2c-0.7,0.8-1.1,1.9-1.1,3.4v9h-4.3V8.3h4.3v3.4c0.4-1.1,1.2-2,2.2-2.7c1-0.6,2.2-1,3.5-1
				C116.8,8.1,118.3,8.7,119.5,10z"/>
			<path class="st14" d="M138,9.9c1.4,1.1,2.3,2.7,2.6,4.6h-2.9c-0.2-1.2-0.8-2.1-1.7-2.8c-0.9-0.7-2-1-3.4-1c-1,0-1.9,0.2-2.7,0.7
				c-0.8,0.4-1.4,1.1-1.9,2.1c-0.5,0.9-0.7,2.1-0.7,3.4c0,1.4,0.2,2.5,0.7,3.4c0.5,0.9,1.1,1.6,1.9,2.1s1.7,0.7,2.7,0.7
				c1.3,0,2.5-0.3,3.4-1c0.9-0.7,1.5-1.6,1.7-2.8h2.9c-0.3,1.9-1.2,3.5-2.6,4.6c-1.4,1.1-3.2,1.7-5.3,1.7c-1.6,0-3-0.3-4.3-1
				c-1.2-0.7-2.2-1.7-2.9-3c-0.7-1.3-1-2.8-1-4.6c0-1.7,0.4-3.3,1-4.6c0.7-1.3,1.7-2.3,2.9-3c1.2-0.7,2.7-1,4.3-1
				C134.8,8.2,136.6,8.8,138,9.9z"/>
			<path class="st14" d="M149.3,9.1c1.1-0.6,2.3-1,3.8-1v3h-0.9c-1.6,0-2.8,0.4-3.8,1.2c-1,0.8-1.5,2.1-1.5,4v8.8h-2.8V8.5h2.8v3.4
				C147.5,10.7,148.3,9.8,149.3,9.1z"/>
			<path class="st14" d="M181.1,10.1c1.2,1.2,1.8,3.1,1.8,5.4v9.7h-2.8v-9.5c0-1.6-0.4-2.9-1.2-3.8c-0.8-0.9-1.9-1.3-3.3-1.3
				c-1.5,0-2.6,0.5-3.5,1.4c-0.9,1-1.3,2.4-1.3,4.2v8.9H168v-9.5c0-1.6-0.4-2.9-1.2-3.8c-0.8-0.9-1.9-1.3-3.3-1.3
				c-1.5,0-2.7,0.5-3.5,1.4c-0.9,1-1.3,2.4-1.3,4.2v8.9h-2.8V8.5h2.8v3.8c0.4-1.3,1.1-2.3,2.2-3c1-0.7,2.2-1.1,3.6-1.1
				c1.4,0,2.7,0.4,3.7,1.1c1,0.7,1.8,1.8,2.2,3.2c0.5-1.4,1.2-2.4,2.3-3.2c1.1-0.7,2.3-1.1,3.7-1.1C178.4,8.2,179.9,8.8,181.1,10.1z
				"/>
		</g>
	</g>
</g>
<g>
	<path class="st7" d="M23.1,24.3c-0.6-1.8-1.7-3.2-3.2-4.4c-0.5-0.4-1-0.5-1.6-0.1c-3.3,2-5.8,1.9-8.8-0.3c-1.7-1.6-2.8-3.6-2.5-5.8
		c1-6.2,6.6-7.9,10.8-5.4c1.2,0.7,2,0.4,2.7-0.3c0.9-1,1.7-2,2.3-3.3c0.4-0.9,0.3-1.6-0.6-2.2c-6.6-4.5-16-2.5-20.1,4.2
		c-3.7,6-2.4,14.3,3,18.2c4.7,3.8,13.7,4.7,17.8,0.6C23.2,25.1,23.2,24.8,23.1,24.3z"/>
	<path class="st14" d="M9.8,14.1c0-2.5,1.9-4.4,4.4-4.4c2.5,0,4.4,2,4.4,4.5c0,2.5-2,4.5-4.6,4.5C11.6,18.6,9.8,16.6,9.8,14.1z"/>
</g>
</svg>
