<?xml version="1.0" encoding="utf-8"?>
<!-- Generator: Adobe Illustrator 21.1.0, SVG Export Plug-In . SVG Version: 6.00 Build 0)  -->
<svg version="1.1" xmlns="http://www.w3.org/2000/svg" xmlns:xlink="http://www.w3.org/1999/xlink" x="0px" y="0px"
	 viewBox="0 0 223.6 33.4" style="enable-background:new 0 0 223.6 33.4;" xml:space="preserve">
<style type="text/css">
	.st0{display:none;}
	.st1{display:inline;}
	.st2{fill:#377DFF;}
	.st3{opacity:0.65;fill:#3F7DE0;enable-background:new    ;}
	.st4{opacity:0.5;fill:#00DFFC;enable-background:new    ;}
	.st5{opacity:0.7;fill:#3F7DE0;enable-background:new    ;}
	.st6{fill:#FFFFFF;}
	.st7{fill:#1E272B;}
	.st8{fill:url(#SVGID_1_);}
	.st9{opacity:0.25;fill:#242E35;enable-background:new    ;}
	.st10{enable-background:new    ;}
	.st11{fill:url(#SVGID_2_);}
	.st12{display:inline;enable-background:new    ;}
	.st13{fill:url(#SVGID_3_);}
	.st14{fill:#137CDB;}
</style>
<g id="Layer_1" class="st0">
	<g id="Layer_1_3_" class="st1">
		<g id="Layer_1_2_" class="st0">
			<g id="Layer_1_1_" class="st1">
				<path class="st2" d="M93,31V2.8h17.9v5.2H99.7V14h8.4v5.2h-8.4V31H93z"/>
				<path class="st2" d="M120.2,8.6v4.2c1.6-2.9,3.7-4.4,6.3-4.4v7H125c-1.5,0-2.7,0.4-3.5,1.1c-0.8,0.8-1.2,2.1-1.2,3.9V31h-6.7
					V8.6H120.2z"/>
				<path class="st2" d="M130,28c-2.2-2.1-3.3-4.9-3.3-8.4s1.1-6.2,3.3-8.3c2.2-2.1,4.9-3.1,8.1-3.1s5.9,1,8.1,3.1
					c2.2,2.1,3.3,4.8,3.3,8.3s-1.1,6.2-3.3,8.4c-2.2,2.2-4.9,3.2-8.1,3.2S132.1,30.2,130,28z M141.4,24c0.9-1,1.3-2.4,1.3-4.2
					s-0.5-3.2-1.4-4.2s-2-1.4-3.3-1.4s-2.3,0.5-3.2,1.4c-0.9,1-1.4,2.3-1.4,4.2s0.5,3.2,1.4,4.2s2,1.4,3.3,1.4
					C139.4,25.3,140.5,24.8,141.4,24z"/>
				<path class="st2" d="M158.6,8.6v3.3c1.4-2.4,3.6-3.5,6.6-3.5c2.5,0,4.5,0.9,6.1,2.6s2.3,4,2.3,7v13.1h-6.7V18.8
					c0-1.4-0.4-2.6-1.1-3.4c-0.7-0.8-1.8-1.2-3.1-1.2s-2.3,0.4-3.1,1.2c-0.7,0.8-1.1,1.9-1.1,3.4V31h-6.7V8.6H158.6z"/>
				<path class="st2" d="M186.6,25.2h2.4V31h-3.4c-2.5,0-4.4-0.6-5.7-1.7c-1.3-1.1-2-3-2-5.7v-9.3h-2V8.6h2V3.1h6.7v5.5h4.4v5.7
					h-4.4v9.3C184.6,24.5,185.2,25.2,186.6,25.2z"/>
				<path class="st3" d="M57.1,33.8L57.1,33.8c-9.9,0-18-8-18-18l0,0c0-9.9,8-18,18-18h11.3c3.7,0,6.6,3,6.6,6.6v11.4
					C75.1,25.8,67,33.8,57.1,33.8z"/>
				<path class="st4" d="M62.1,28.8L62.1,28.8c-9.9,0-18-8-18-18l0,0c0-9.9,8-18,18-18h11.3c3.7,0.1,6.7,3.1,6.7,6.7v11.4
					C80.1,20.8,72.1,28.8,62.1,28.8z"/>
				<path class="st5" d="M52.1,38.8L52.1,38.8c-10,0-18-8-18-18l0,0c0-9.9,8-18,18-18h11.3c3.7,0,6.6,3,6.6,6.6v11.4
					C70,30.8,62,38.8,52.1,38.8z"/>
				<path class="st6" d="M51.5,26.8V11.1h10.2V14h-6.4v3.4h4.8v2.9h-4.8v6.5H51.5z"/>
			</g>
			<g id="Layer_2" class="st1">
				<g id="Layer_2_1_">
					<g>
						<path class="st7" d="M49.6,9.5c0.7-1.9,1.4-3.8,2.3-5.6c1.2-2.5,4-3.3,6.5-2.1c2.3,1.1,3.1,3.9,2.2,6.3
							c-1.7,4.2-3.3,8.4-4.9,12.6c-1,2.6-2,5.3-3.1,7.9c-0.9,2.1-2.7,3-4.8,2.8c-3.1,0.1-4.7-1-5.7-3.7"/>
						
							<linearGradient id="SVGID_1_" gradientUnits="userSpaceOnUse" x1="36.9105" y1="305.7434" x2="46.7992" y2="329.8795" gradientTransform="matrix(1 0 0 1 0 -304)">
							<stop  offset="0" style="stop-color:#1C8DF3"/>
							<stop  offset="0.3621" style="stop-color:#137CDB"/>
							<stop  offset="0.7281" style="stop-color:#0C6FCA"/>
							<stop  offset="1" style="stop-color:#0A6BC4"/>
						</linearGradient>
						<path class="st8" d="M42.1,27.8c-0.3-0.7-1.9-4.9-2-5.2c-1.6-4-3.2-8-4.7-12.1c-0.6-1.5-1.4-2.9-1.3-4.6
							c0.2-2.1,1.8-4.1,3.8-4.4c2.4-0.4,4.6,0.7,5.5,2.8c1.1,2.6,4.1,10.4,4.1,10.4L42.1,27.8z"/>
						<polyline class="st9" points="42.1,27.8 41.2,25.3 47.5,14.6 						"/>
					</g>
					<g>
						<g class="st10">
							<path class="st7" d="M67.5,4.8h5.3l5.4,15.7l0.9,3.3h0.3l1-3.3L86,4.8h5.3l-9.5,25.9h-5.1L67.5,4.8z"/>
							<path class="st7" d="M94.8,4.8h4.9v25.9h-4.9V4.8z"/>
							<path class="st7" d="M107.4,29.3c-1.7-1.3-3-3.1-3.7-5.4l4.6-1.8c0.4,1.4,1,2.5,1.8,3.3c0.8,0.8,2,1.2,3.3,1.2
								c1.1,0,2-0.3,2.8-0.8s1.2-1.3,1.2-2.3s-0.4-1.8-1.1-2.4s-2-1.3-3.9-2l-1.6-0.6c-1.7-0.6-3.1-1.5-4.3-2.7
								c-1.2-1.2-1.8-2.7-1.8-4.5c0-1.4,0.4-2.6,1.1-3.7s1.7-2,3-2.6c1.3-0.6,2.7-1,4.3-1c2.3,0,4.2,0.5,5.5,1.6
								c1.4,1.1,2.3,2.4,2.8,3.9l-4.3,1.9c-0.3-0.8-0.7-1.5-1.4-2s-1.5-0.8-2.6-0.8s-1.9,0.2-2.6,0.7s-1,1.1-1,1.9s0.3,1.4,1,2
								s1.7,1.1,3.2,1.6l1.6,0.5c2.2,0.8,4,1.8,5.2,3.1s1.8,2.9,1.8,5c0,1.7-0.4,3.1-1.3,4.3s-2,2-3.4,2.6s-2.8,0.9-4.2,0.9
								C111.1,31.2,109.1,30.7,107.4,29.3z"/>
							<path class="st7" d="M126.9,4.8h4.9v25.9h-4.9V4.8z"/>
							<path class="st7" d="M142.6,29.5c-2.1-1.2-3.7-2.8-4.9-4.9s-1.8-4.4-1.8-6.8c0-2.5,0.6-4.8,1.8-6.8c1.2-2.1,2.8-3.7,4.9-4.9
								c2.1-1.2,4.4-1.8,6.9-1.8s4.8,0.6,6.9,1.8c2.1,1.2,3.7,2.8,4.9,4.9s1.8,4.4,1.8,6.8c0,2.5-0.6,4.8-1.8,6.8
								c-1.2,2.1-2.8,3.7-4.9,4.9c-2.1,1.2-4.4,1.8-6.9,1.8S144.6,30.7,142.6,29.5z M154,25.5c1.3-0.7,2.4-1.8,3.1-3.2
								s1.1-2.9,1.1-4.6s-0.4-3.3-1.1-4.6c-0.8-1.4-1.8-2.4-3.1-3.2c-1.3-0.7-2.8-1.1-4.4-1.1s-3,0.4-4.4,1.1
								c-1.3,0.7-2.4,1.8-3.1,3.2c-0.8,1.4-1.1,2.9-1.1,4.6s0.4,3.3,1.1,4.6s1.8,2.4,3.1,3.2c1.3,0.8,2.8,1.1,4.4,1.1
								C151.1,26.7,152.6,26.2,154,25.5z"/>
							<path class="st7" d="M167.8,4.8h5.7l10.4,17.4h0.3l-0.3-5V4.8h4.9v25.9h-5.1l-11-18.4h-0.3l0.3,5v13.4h-4.8L167.8,4.8
								L167.8,4.8z"/>
						</g>
					</g>
				</g>
			</g>
		</g>
		<g id="Layer_2_2_">
			<g id="Layer_2_3_">
				<g id="Layer_2_4_">
					<g>
						<path class="st7" d="M23.8,9.1c0.8-2.2,1.6-4.3,2.6-6.4c1.4-2.8,4.6-3.8,7.4-2.4c2.6,1.3,3.5,4.4,2.5,7.2
							c-1.9,4.8-3.8,9.6-5.6,14.4c-1.1,3-2.3,6-3.5,9c-1,2.4-3.1,3.4-5.5,3.2c-3.5,0.1-5.4-1.1-6.5-4.2"/>
						
							<linearGradient id="SVGID_2_" gradientUnits="userSpaceOnUse" x1="9.2715" y1="304.2811" x2="20.5381" y2="331.7804" gradientTransform="matrix(1 0 0 1 0 -304)">
							<stop  offset="0" style="stop-color:#1C8DF3"/>
							<stop  offset="0.3621" style="stop-color:#137CDB"/>
							<stop  offset="0.7281" style="stop-color:#0C6FCA"/>
							<stop  offset="1" style="stop-color:#0A6BC4"/>
						</linearGradient>
						<path class="st11" d="M15.2,30c-0.3-0.8-2.2-5.6-2.3-5.9c-1.8-4.6-3.6-9.2-5.3-13.8C6.9,8.6,6,6.9,6.1,5.1
							c0.2-2.4,2.1-4.7,4.3-5c2.7-0.5,5.2,0.8,6.3,3.2C18,6.2,21.4,15,21.4,15L15.2,30z"/>
						<polyline class="st9" points="15.2,30 14.2,27.2 21.4,15 						"/>
					</g>
					<g class="st0">
						<g class="st12">
							<path class="st7" d="M48.4,6.9h4.9l5,14.5l0.8,3.1h0.3l0.9-3.1L65.5,7h4.9l-8.8,24h-4.7L48.4,6.9z"/>
							<path class="st7" d="M73.7,6.9h4.5v24h-4.5V6.9z"/>
							<path class="st7" d="M85.4,29.7c-1.6-1.2-2.8-2.9-3.4-5l4.3-1.7c0.4,1.3,0.9,2.3,1.7,3.1s1.9,1.1,3.1,1.1
								c1,0,1.9-0.3,2.6-0.7c0.7-0.5,1.1-1.2,1.1-2.1s-0.4-1.7-1-2.2s-1.9-1.2-3.6-1.9l-1.5-0.6c-1.6-0.6-2.9-1.4-4-2.5
								S83,14.6,83,13c0-1.3,0.4-2.4,1-3.4s1.6-1.9,2.8-2.4c1.2-0.6,2.5-0.9,4-0.9c2.1,0,3.9,0.5,5.1,1.5c1.3,1,2.1,2.2,2.6,3.6
								l-4,1.8c-0.4-0.8-0.8-1.4-1.4-1.9s-1.4-0.7-2.4-0.7s-1.8,0.2-2.4,0.6c-0.6,0.5-0.9,1-0.9,1.8c0,0.7,0.3,1.3,0.9,1.9
								s1.6,1,3,1.5l1.5,0.5c2,0.7,3.7,1.7,4.8,2.9c1.1,1.2,1.7,2.7,1.7,4.6c0,1.6-0.4,2.9-1.2,4s-1.9,1.9-3.1,2.4
								c-1.3,0.6-2.6,0.8-3.9,0.8C88.8,31.5,87,31,85.4,29.7z"/>
							<path class="st7" d="M103.5,6.9h4.5v24h-4.5V6.9z"/>
							<path class="st7" d="M118.1,29.8c-1.9-1.1-3.4-2.6-4.5-4.5c-1.1-1.9-1.7-4.1-1.7-6.3c0-2.3,0.6-4.4,1.7-6.3s2.6-3.4,4.5-4.5
								s4.1-1.7,6.4-1.7s4.4,0.6,6.4,1.7c1.9,1.1,3.4,2.6,4.5,4.5s1.7,4.1,1.7,6.3c0,2.3-0.6,4.4-1.7,6.3c-1.1,1.9-2.6,3.4-4.5,4.5
								c-1.9,1.1-4.1,1.7-6.4,1.7C122.1,31.5,119.9,31,118.1,29.8z M128.6,26.2c1.2-0.6,2.2-1.7,2.9-3c0.6-1.3,1-2.7,1-4.3
								s-0.4-3.1-1-4.3c-0.7-1.3-1.7-2.2-2.9-3c-1.2-0.6-2.6-1-4.1-1s-2.8,0.4-4.1,1c-1.2,0.6-2.2,1.7-2.9,3c-0.7,1.3-1,2.7-1,4.3
								s0.4,3.1,1,4.3c0.6,1.2,1.7,2.2,2.9,3c1.2,0.7,2.6,1,4.1,1S127.2,26.8,128.6,26.2z"/>
							<path class="st7" d="M141.2,6.9h5.3l9.6,16.1h0.3l-0.3-4.6V6.9h4.5v24H156l-10.2-17h-0.3l0.3,4.6V31h-4.4L141.2,6.9
								L141.2,6.9z"/>
						</g>
					</g>
				</g>
			</g>
		</g>
	</g>
	<g id="Layer_2_5_" class="st1">
		<g id="Layer_2_6_">
			<g>
				<g class="st10">
					<path class="st7" d="M47.9,6.9h4.9l5,14.5l0.9,3.1H59l0.9-3.1L65,6.9h4.9l-8.8,24h-4.8L47.9,6.9z"/>
					<path class="st7" d="M72.3,11c-0.6-0.6-0.8-1.2-0.8-2c0-0.8,0.3-1.4,0.8-2c0.6-0.5,1.2-0.8,2-0.8s1.4,0.3,2,0.8
						c0.5,0.5,0.8,1.2,0.8,2c0,0.8-0.3,1.5-0.8,2c-0.5,0.6-1.2,0.8-2,0.8S72.9,11.6,72.3,11z M72.1,13.8h4.4v17.1h-4.4V13.8z"/>
					<path class="st7" d="M82.6,30.2c-1.3-0.9-2.2-2-2.7-3.3l3.9-1.7c0.4,0.8,0.9,1.4,1.5,1.8s1.4,0.6,2.3,0.6c0.8,0,1.5-0.1,2-0.4
						c0.5-0.3,0.8-0.7,0.8-1.3s-0.2-1-0.7-1.3s-1.2-0.5-2.2-0.8l-2-0.4c-1.4-0.3-2.5-0.9-3.5-1.8s-1.4-2-1.4-3.3
						c0-1,0.3-1.9,0.9-2.7c0.6-0.8,1.4-1.4,2.4-1.8s2.1-0.6,3.4-0.6c3.5,0,5.9,1.2,7.1,3.7l-3.8,1.6c-0.7-1.2-1.7-1.8-3.2-1.8
						c-0.8,0-1.4,0.1-1.8,0.4s-0.7,0.6-0.7,1.1c0,0.8,0.8,1.4,2.3,1.8l2.5,0.6c1.7,0.4,3,1.1,3.8,1.9c0.9,0.9,1.3,1.9,1.3,3.2
						c0,1.1-0.3,2.1-1,2.9c-0.6,0.8-1.5,1.5-2.6,2s-2.3,0.7-3.7,0.7C85.6,31.5,83.9,31,82.6,30.2z"/>
					<path class="st7" d="M98.4,11c-0.6-0.6-0.8-1.2-0.8-2c0-0.8,0.3-1.4,0.8-2c0.6-0.5,1.2-0.8,2-0.8s1.4,0.3,2,0.8
						c0.5,0.5,0.8,1.2,0.8,2c0,0.8-0.3,1.5-0.8,2c-0.5,0.6-1.2,0.8-2,0.8S99,11.6,98.4,11z M98.2,13.8h4.4v17.1h-4.4V13.8z"/>
					<path class="st7" d="M110.5,30.2c-1.4-0.8-2.5-1.9-3.2-3.3s-1.2-2.9-1.2-4.7c0-1.7,0.4-3.2,1.2-4.6c0.8-1.4,1.9-2.5,3.2-3.3
						c1.4-0.8,3-1.2,4.7-1.2s3.3,0.4,4.7,1.2c1.4,0.8,2.5,1.9,3.2,3.3c0.8,1.4,1.2,2.9,1.2,4.6s-0.4,3.3-1.2,4.7s-1.9,2.5-3.2,3.3
						c-1.4,0.8-3,1.2-4.7,1.2S111.9,31,110.5,30.2z M117.6,26.8c0.7-0.4,1.3-1,1.7-1.7c0.4-0.8,0.6-1.7,0.6-2.7s-0.2-1.9-0.6-2.7
						c-0.4-0.8-1-1.3-1.7-1.7c-0.7-0.4-1.5-0.6-2.4-0.6s-1.6,0.2-2.4,0.6c-0.7,0.4-1.3,1-1.7,1.7c-0.4,0.8-0.7,1.6-0.7,2.7
						c0,1,0.2,1.9,0.7,2.7c0.5,0.8,1,1.4,1.7,1.8c0.7,0.4,1.5,0.6,2.4,0.6C116.1,27.3,116.9,27.2,117.6,26.8z"/>
					<path class="st7" d="M127.3,13.8h4.1v2.1h0.3c0.5-0.8,1.2-1.5,2.2-2c0.9-0.5,2-0.7,3.1-0.7c2.1,0,3.6,0.6,4.7,1.9
						c1.1,1.3,1.6,3,1.6,5.1v10.6h-4.4v-10c0-1.1-0.3-1.9-0.8-2.6c-0.6-0.6-1.3-0.9-2.4-0.9c-1.2,0-2.1,0.5-2.9,1.4
						c-0.7,0.9-1.1,2.1-1.1,3.5v8.7h-4.4L127.3,13.8L127.3,13.8z"/>
					<path class="st7" d="M152.9,29.8c-1.9-1.1-3.4-2.6-4.5-4.5s-1.6-4-1.6-6.4s0.5-4.5,1.6-6.4s2.6-3.4,4.5-4.5s4-1.6,6.3-1.6
						c1.8,0,3.4,0.3,4.9,1s2.8,1.7,3.9,2.9l-2,2c-0.9-1.1-1.9-1.9-3-2.4s-2.3-0.8-3.7-0.8c-1.7,0-3.3,0.4-4.8,1.2
						c-1.5,0.8-2.6,2-3.5,3.5s-1.3,3.2-1.3,5.2s0.4,3.7,1.3,5.2c0.9,1.5,2,2.6,3.5,3.5s3.1,1.2,4.8,1.2c2.9,0,5.4-1.2,7.4-3.6l2.1,2
						c-1.1,1.3-2.5,2.4-4.1,3.1c-1.6,0.8-3.4,1.2-5.4,1.2C156.9,31.5,154.8,30.8,152.9,29.8z"/>
					<path class="st7" d="M172.9,6.9h8.1c1.3,0,2.6,0.3,3.7,0.9c1.1,0.6,2.1,1.4,2.7,2.5c0.7,1.1,1,2.3,1,3.7c0,1.1-0.3,2.2-0.8,3.1
						c-0.5,1-1.2,1.8-2.1,2.4c-0.9,0.6-1.9,1.1-2.9,1.3l-0.1,0.1l6.8,9.8v0.1H186l-6.5-9.8h-3.8v9.8h-2.8V6.9z M180.8,18.5
						c0.8,0,1.6-0.2,2.3-0.6s1.3-0.9,1.7-1.6s0.7-1.4,0.7-2.3c0-0.7-0.2-1.4-0.6-2.1c-0.4-0.7-0.9-1.2-1.6-1.6
						c-0.7-0.4-1.5-0.6-2.4-0.6h-5.3v8.9L180.8,18.5L180.8,18.5z"/>
					<path class="st7" d="M192.6,6.9h4.1l7.7,19.7h0.1l7.7-19.7h4.1v24h-2.8V15.6l0.1-4.6h-0.1l-7.9,19.8h-2.4L195.3,11h-0.1
						l0.1,4.6V31h-2.8L192.6,6.9L192.6,6.9z"/>
				</g>
			</g>
		</g>
	</g>
</g>
<g id="Layer_2_7_">
	<g>
		<path class="st7" d="M17,9.1c0.8-2.1,1.5-4.2,2.5-6.2c1.3-2.7,4.4-3.6,7.2-2.3c2.5,1.2,3.5,4.3,2.4,7c-1.9,4.6-3.6,9.3-5.4,13.9
			c-1.1,2.9-2.2,5.8-3.4,8.7c-1,2.3-2.9,3.3-5.3,3.1c-3.2,0-5-1.2-6.1-4.1"/>
		
			<linearGradient id="SVGID_3_" gradientUnits="userSpaceOnUse" x1="3.1064" y1="33.0334" x2="14.0104" y2="6.4195" gradientTransform="matrix(1 0 0 -1 0 33.5)">
			<stop  offset="0" style="stop-color:#1C8DF3"/>
			<stop  offset="0.3621" style="stop-color:#137CDB"/>
			<stop  offset="0.7281" style="stop-color:#0C6FCA"/>
			<stop  offset="1" style="stop-color:#0A6BC4"/>
		</linearGradient>
		<path class="st13" d="M8.9,29.2c-0.3-0.8-2.1-5.4-2.2-5.7C4.9,19,3.1,14.6,1.5,10.1C0.8,8.5-0.1,6.9,0,5.1c0.2-2.4,2-4.6,4.2-4.9
			c2.7-0.4,5.1,0.7,6,3.1c1.2,2.9,4.5,11.4,4.5,11.4L8.9,29.2z"/>
		<polyline class="st9" points="8.9,29.2 7.8,26.5 14.7,14.7 		"/>
	</g>
	<g>
		<g class="st10">
			<path class="st7" d="M41.4,5.2l7,20.8l7.1-20.8h5.6l-9.3,26.3h-6.7L35.8,5.2H41.4z"/>
			<path class="st7" d="M64.2,2.9c0.6-0.5,1.4-0.8,2.3-0.8c1,0,1.8,0.3,2.3,0.8c0.6,0.5,0.9,1.2,0.9,2.1c0,0.8-0.3,1.5-0.9,2
				c-0.6,0.5-1.4,0.8-2.3,0.8c-1,0-1.8-0.3-2.3-0.8c-0.6-0.5-0.9-1.2-0.9-2C63.4,4.1,63.6,3.4,64.2,2.9z M69.2,10.8v20.6h-5.3V10.8
				H69.2z"/>
			<path class="st7" d="M87.1,12.5c1.5,1.3,2.5,3,2.8,5.1H85c-0.2-1-0.6-1.8-1.3-2.4c-0.7-0.6-1.6-0.9-2.7-0.9
				c-0.9,0-1.6,0.2-2.1,0.6c-0.5,0.4-0.7,1-0.7,1.7c0,0.6,0.2,1,0.6,1.4s0.9,0.6,1.5,0.8c0.6,0.2,1.5,0.4,2.6,0.7
				c1.6,0.3,2.8,0.7,3.8,1.1c1,0.4,1.8,1,2.5,1.8c0.7,0.8,1.1,2,1.1,3.4c0,1.8-0.7,3.2-2.1,4.3c-1.4,1.1-3.2,1.6-5.6,1.6
				c-2.7,0-4.8-0.6-6.4-1.8c-1.6-1.2-2.6-2.9-2.9-5.2h5c0.1,1,0.6,1.8,1.3,2.4c0.8,0.6,1.8,0.9,3,0.9c0.9,0,1.6-0.2,2-0.7
				c0.5-0.4,0.7-1,0.7-1.7c0-0.6-0.2-1.1-0.6-1.5c-0.4-0.4-0.9-0.7-1.5-0.9c-0.6-0.2-1.5-0.4-2.6-0.7c-1.5-0.3-2.8-0.7-3.7-1.1
				c-1-0.4-1.8-0.9-2.5-1.7c-0.7-0.8-1-1.9-1-3.3c0-1.8,0.7-3.2,2-4.4c1.4-1.1,3.3-1.7,5.7-1.7C83.6,10.6,85.6,11.2,87.1,12.5z"/>
			<path class="st7" d="M94.4,2.9c0.6-0.5,1.4-0.8,2.3-0.8c1,0,1.8,0.3,2.3,0.8c0.6,0.5,0.9,1.2,0.9,2.1c0,0.8-0.3,1.5-0.9,2
				c-0.6,0.5-1.4,0.8-2.3,0.8c-1,0-1.8-0.3-2.3-0.8c-0.6-0.5-0.9-1.2-0.9-2C93.5,4.1,93.8,3.4,94.4,2.9z M99.4,10.8v20.6h-5.3V10.8
				H99.4z"/>
			<path class="st7" d="M119.1,11.8c1.6,0.8,2.9,2.1,3.8,3.7c0.9,1.6,1.4,3.5,1.4,5.6c0,2.2-0.5,4-1.4,5.6c-0.9,1.6-2.2,2.8-3.8,3.7
				c-1.6,0.9-3.4,1.3-5.4,1.3c-2,0-3.8-0.4-5.4-1.3c-1.6-0.9-2.9-2.1-3.8-3.7c-0.9-1.6-1.4-3.5-1.4-5.6c0-2.2,0.5-4,1.4-5.6
				c0.9-1.6,2.2-2.8,3.8-3.7c1.6-0.8,3.4-1.3,5.4-1.3C115.7,10.6,117.5,11,119.1,11.8z M109.9,16.7c-1,1-1.5,2.5-1.5,4.5
				c0,2,0.5,3.5,1.5,4.5c1,1,2.3,1.5,3.7,1.5c1.5,0,2.7-0.5,3.7-1.5c1-1,1.5-2.5,1.5-4.5c0-2-0.5-3.5-1.5-4.5c-1-1-2.3-1.5-3.7-1.5
				C112.2,15.1,111,15.6,109.9,16.7z"/>
			<path class="st7" d="M146,12.9c1.4,1.6,2.1,3.8,2.1,6.6v12h-5.2V20.1c0-1.6-0.4-2.9-1.3-3.8c-0.8-0.9-2-1.4-3.5-1.4
				c-1.5,0-2.7,0.5-3.6,1.5c-0.9,1-1.3,2.4-1.3,4.2v11H128V10.8h5.3V15c0.5-1.4,1.4-2.5,2.7-3.3c1.3-0.8,2.7-1.2,4.3-1.2
				C142.7,10.5,144.6,11.3,146,12.9z"/>
			<path class="st14" d="M168.6,12.9c1.7,1.4,2.8,3.3,3.2,5.6h-3.6c-0.2-1.5-0.9-2.6-2-3.4c-1.1-0.8-2.5-1.2-4.1-1.2
				c-1.2,0-2.3,0.3-3.3,0.8c-1,0.5-1.8,1.4-2.4,2.5c-0.6,1.1-0.9,2.5-0.9,4.2c0,1.7,0.3,3.1,0.9,4.2c0.6,1.1,1.4,2,2.4,2.5
				c1,0.5,2.1,0.8,3.3,0.8c1.6,0,3-0.4,4.1-1.3c1.1-0.8,1.8-2,2-3.5h3.6c-0.4,2.4-1.5,4.2-3.2,5.6c-1.7,1.4-3.9,2.1-6.5,2.1
				c-2,0-3.7-0.4-5.2-1.3c-1.5-0.8-2.7-2.1-3.6-3.6c-0.9-1.6-1.3-3.4-1.3-5.6c0-2.1,0.4-4,1.3-5.6c0.9-1.6,2-2.8,3.6-3.7
				c1.5-0.8,3.3-1.3,5.2-1.3C164.7,10.8,166.9,11.5,168.6,12.9z"/>
			<path class="st14" d="M182.5,11.9c1.3-0.8,2.8-1.2,4.6-1.2v3.7h-1c-1.9,0-3.5,0.5-4.7,1.5c-1.2,1-1.8,2.6-1.8,4.9v10.8h-3.4V11
				h3.4v4.1C180.2,13.7,181.2,12.6,182.5,11.9z"/>
			<path class="st14" d="M221.4,13c1.5,1.5,2.2,3.7,2.2,6.6v11.9h-3.4V19.9c0-2-0.5-3.6-1.5-4.6c-1-1.1-2.3-1.6-4-1.6
				c-1.8,0-3.2,0.6-4.3,1.8c-1.1,1.2-1.6,2.9-1.6,5.2v10.8h-3.4V19.9c0-2-0.5-3.6-1.5-4.6c-1-1.1-2.3-1.6-4-1.6
				c-1.8,0-3.3,0.6-4.3,1.8c-1.1,1.2-1.6,2.9-1.6,5.2v10.8h-3.4V11h3.4v4.7c0.5-1.6,1.4-2.8,2.7-3.7c1.3-0.9,2.7-1.3,4.4-1.3
				c1.7,0,3.2,0.4,4.5,1.3c1.3,0.9,2.2,2.2,2.7,3.9c0.6-1.7,1.5-2.9,2.9-3.9c1.3-0.9,2.9-1.4,4.5-1.4C218,10.7,219.9,11.5,221.4,13z
				"/>
		</g>
	</g>
</g>
</svg>
