<?xml version="1.0" encoding="utf-8"?>
<!-- Generator: Adobe Illustrator 21.1.0, SVG Export Plug-In . SVG Version: 6.00 Build 0)  -->
<svg version="1.1" xmlns="http://www.w3.org/2000/svg" xmlns:xlink="http://www.w3.org/1999/xlink" x="0px" y="0px"
	 viewBox="0 0 215 46.1" style="enable-background:new 0 0 215 46.1;" xml:space="preserve">
<style type="text/css">
	.st0{display:none;}
	.st1{display:inline;}
	.st2{fill:#377DFF;}
	.st3{opacity:0.65;fill:#3F7DE0;enable-background:new    ;}
	.st4{opacity:0.5;fill:#00DFFC;enable-background:new    ;}
	.st5{opacity:0.7;fill:#3F7DE0;enable-background:new    ;}
	.st6{fill:#FFFFFF;}
	.st7{fill:#1E272B;}
	.st8{fill:url(#SVGID_1_);}
	.st9{opacity:0.25;fill:#242E35;enable-background:new    ;}
	.st10{enable-background:new    ;}
	.st11{fill:url(#SVGID_2_);}
	.st12{display:inline;enable-background:new    ;}
</style>
<g id="Layer_1">
	<g id="Layer_1_2_" class="st0">
		<g id="Layer_1_1_" class="st1">
			<path class="st2" d="M89,38.2V10h17.9v5.2H95.7v6.1h8.4v5.2h-8.4v11.7H89z"/>
			<path class="st2" d="M116.2,15.8V20c1.6-2.9,3.7-4.4,6.3-4.4v7H121c-1.5,0-2.7,0.4-3.5,1.1c-0.8,0.8-1.2,2.1-1.2,3.9v10.6h-6.7
				V15.8H116.2z"/>
			<path class="st2" d="M126,35.3c-2.2-2.1-3.3-4.9-3.3-8.4s1.1-6.2,3.3-8.3c2.2-2.1,4.9-3.1,8.1-3.1s5.9,1,8.1,3.1
				c2.2,2.1,3.3,4.8,3.3,8.3s-1.1,6.2-3.3,8.4c-2.2,2.2-4.9,3.2-8.1,3.2S128.1,37.4,126,35.3z M137.4,31.2c0.9-1,1.3-2.4,1.3-4.2
				s-0.5-3.2-1.4-4.2c-0.9-1-2-1.4-3.3-1.4c-1.3,0-2.3,0.5-3.2,1.4c-0.9,1-1.4,2.3-1.4,4.2s0.5,3.2,1.4,4.2c0.9,1,2,1.4,3.3,1.4
				C135.4,32.6,136.5,32.1,137.4,31.2z"/>
			<path class="st2" d="M154.6,15.8v3.3c1.4-2.4,3.6-3.5,6.6-3.5c2.5,0,4.5,0.9,6.1,2.6s2.3,4,2.3,7v13.1h-6.7V26
				c0-1.4-0.4-2.6-1.1-3.4c-0.7-0.8-1.8-1.2-3.1-1.2s-2.3,0.4-3.1,1.2c-0.7,0.8-1.1,1.9-1.1,3.4v12.2h-6.7V15.8H154.6z"/>
			<path class="st2" d="M182.6,32.4h2.4v5.8h-3.4c-2.5,0-4.4-0.6-5.7-1.7c-1.3-1.1-2-3-2-5.7v-9.3h-2v-5.7h2v-5.5h6.7v5.5h4.4v5.7
				h-4.4v9.3C180.6,31.8,181.2,32.4,182.6,32.4z"/>
			<path class="st3" d="M53.1,41.1L53.1,41.1c-9.9,0-18-8-18-18l0,0c0-9.9,8-18,18-18h11.3c3.7,0,6.6,3,6.6,6.6v11.4
				C71.1,33,63,41.1,53.1,41.1z"/>
			<path class="st4" d="M58.1,36L58.1,36c-9.9,0-18-8-18-18l0,0c0-9.9,8-18,18-18h11.3c3.7,0.1,6.7,3.1,6.7,6.7v11.4
				C76.1,28,68.1,36,58.1,36z"/>
			<path class="st5" d="M48.1,46.1L48.1,46.1c-10,0-18-8-18-18l0,0c0-9.9,8-18,18-18h11.3c3.7,0,6.6,3,6.6,6.6v11.4
				C66,38.1,58,46.1,48.1,46.1z"/>
			<path class="st6" d="M47.5,34.1V18.4h10.2v2.9h-6.4v3.4h4.8v2.9h-4.8v6.5H47.5z"/>
		</g>
		<g id="Layer_2" class="st1">
			<g id="Layer_2_1_">
				<g>
					<path class="st7" d="M45.6,16.8c0.7-1.9,1.4-3.8,2.3-5.6c1.2-2.5,4-3.3,6.5-2.1c2.3,1.1,3.1,3.9,2.2,6.3
						c-1.7,4.2-3.3,8.4-4.9,12.6c-1,2.6-2,5.3-3.1,7.9c-0.9,2.1-2.7,3-4.8,2.8c-3.1,0.1-4.7-1-5.7-3.7"/>
					
						<linearGradient id="SVGID_1_" gradientUnits="userSpaceOnUse" x1="32.8605" y1="-112.9934" x2="42.7492" y2="-137.1295" gradientTransform="matrix(1 0 0 -1 0 -104)">
						<stop  offset="0" style="stop-color:#1C8DF3"/>
						<stop  offset="0.3621" style="stop-color:#137CDB"/>
						<stop  offset="0.7281" style="stop-color:#0C6FCA"/>
						<stop  offset="1" style="stop-color:#0A6BC4"/>
					</linearGradient>
					<path class="st8" d="M38.1,35c-0.3-0.7-1.9-4.9-2-5.2c-1.6-4-3.2-8-4.7-12.1c-0.6-1.5-1.4-2.9-1.3-4.6c0.2-2.1,1.8-4.1,3.8-4.4
						c2.4-0.4,4.6,0.7,5.5,2.8c1.1,2.6,4.1,10.4,4.1,10.4L38.1,35z"/>
					<polyline class="st9" points="38.1,35 37.2,32.6 43.5,21.9 					"/>
				</g>
				<g>
					<g class="st10">
						<path class="st7" d="M63.5,12h5.3l5.4,15.7l0.9,3.3h0.3l1-3.3L82,12h5.3l-9.5,25.9h-5.1L63.5,12z"/>
						<path class="st7" d="M90.8,12h4.9v25.9h-4.9C90.8,37.9,90.8,12,90.8,12z"/>
						<path class="st7" d="M103.4,36.6c-1.7-1.3-3-3.1-3.7-5.4l4.6-1.8c0.4,1.4,1,2.5,1.8,3.3c0.8,0.8,2,1.2,3.3,1.2
							c1.1,0,2-0.3,2.8-0.8s1.2-1.3,1.2-2.3s-0.4-1.8-1.1-2.4s-2-1.3-3.9-2l-1.6-0.6c-1.7-0.6-3.1-1.5-4.3-2.7
							c-1.2-1.2-1.8-2.7-1.8-4.5c0-1.4,0.4-2.6,1.1-3.7s1.7-2,3-2.6c1.3-0.6,2.7-1,4.3-1c2.3,0,4.2,0.5,5.5,1.6
							c1.4,1.1,2.3,2.4,2.8,3.9l-4.3,1.9c-0.3-0.8-0.7-1.5-1.4-2s-1.5-0.8-2.6-0.8s-1.9,0.2-2.6,0.7s-1,1.1-1,1.9s0.3,1.4,1,2
							s1.7,1.1,3.2,1.6l1.6,0.5c2.2,0.8,4,1.8,5.2,3.1s1.8,2.9,1.8,5c0,1.7-0.4,3.1-1.3,4.3s-2,2-3.4,2.6s-2.8,0.9-4.2,0.9
							C107.1,38.5,105.1,37.9,103.4,36.6z"/>
						<path class="st7" d="M122.9,12h4.9v25.9h-4.9V12z"/>
						<path class="st7" d="M138.6,36.7c-2.1-1.2-3.7-2.8-4.9-4.9c-1.2-2.1-1.8-4.4-1.8-6.8c0-2.5,0.6-4.8,1.8-6.8
							c1.2-2.1,2.8-3.7,4.9-4.9c2.1-1.2,4.4-1.8,6.9-1.8s4.8,0.6,6.9,1.8c2.1,1.2,3.7,2.8,4.9,4.9c1.2,2.1,1.8,4.4,1.8,6.8
							c0,2.5-0.6,4.8-1.8,6.8c-1.2,2.1-2.8,3.7-4.9,4.9c-2.1,1.2-4.4,1.8-6.9,1.8C143,38.5,140.6,37.9,138.6,36.7z M150,32.8
							c1.3-0.7,2.4-1.8,3.1-3.2s1.1-2.9,1.1-4.6s-0.4-3.3-1.1-4.6c-0.8-1.4-1.8-2.4-3.1-3.2c-1.3-0.7-2.8-1.1-4.4-1.1
							s-3,0.4-4.4,1.1c-1.3,0.7-2.4,1.8-3.1,3.2c-0.8,1.4-1.1,2.9-1.1,4.6s0.4,3.3,1.1,4.6s1.8,2.4,3.1,3.2c1.3,0.8,2.8,1.1,4.4,1.1
							C147.1,33.9,148.6,33.5,150,32.8z"/>
						<path class="st7" d="M163.8,12h5.7l10.4,17.4h0.3l-0.3-5V12h4.9v25.9h-5.1l-11-18.4h-0.3l0.3,5v13.4h-4.8L163.8,12L163.8,12z"
							/>
					</g>
				</g>
			</g>
		</g>
	</g>
	<g id="Layer_2_2_">
		<g id="Layer_2_3_">
			<g id="Layer_2_4_">
				<g>
					<path class="st7" d="M19.8,16.4c0.8-2.2,1.6-4.3,2.6-6.4c1.4-2.8,4.6-3.8,7.4-2.4c2.6,1.3,3.5,4.4,2.5,7.2
						c-1.9,4.8-3.8,9.6-5.6,14.4c-1.1,3-2.3,6-3.5,9c-1,2.4-3.1,3.4-5.5,3.2c-3.5,0.1-5.4-1.1-6.5-4.2"/>
					
						<linearGradient id="SVGID_2_" gradientUnits="userSpaceOnUse" x1="5.2287" y1="-111.5486" x2="16.4953" y2="-139.0479" gradientTransform="matrix(1 0 0 -1 0 -104)">
						<stop  offset="0" style="stop-color:#1C8DF3"/>
						<stop  offset="0.3621" style="stop-color:#137CDB"/>
						<stop  offset="0.7281" style="stop-color:#0C6FCA"/>
						<stop  offset="1" style="stop-color:#0A6BC4"/>
					</linearGradient>
					<path class="st11" d="M11.2,37.2c-0.3-0.8-2.2-5.6-2.3-5.9c-1.8-4.6-3.6-9.2-5.3-13.8c-0.7-1.7-1.6-3.3-1.5-5.2
						c0.2-2.4,2.1-4.7,4.3-5c2.7-0.5,5.2,0.8,6.3,3.2c1.3,3,4.7,11.8,4.7,11.8L11.2,37.2z"/>
					<polyline class="st9" points="11.2,37.2 10.2,34.4 17.4,22.2 					"/>
				</g>
				<g class="st0">
					<g class="st12">
						<path class="st7" d="M44.4,14.2h4.9l5,14.5l0.8,3.1h0.3l0.9-3.1l5.2-14.5h4.9l-8.8,24h-4.7L44.4,14.2z"/>
						<path class="st7" d="M69.7,14.2h4.5v24h-4.5V14.2z"/>
						<path class="st7" d="M81.4,36.9c-1.6-1.2-2.8-2.9-3.4-5l4.3-1.7c0.4,1.3,0.9,2.3,1.7,3.1s1.9,1.1,3.1,1.1c1,0,1.9-0.3,2.6-0.7
							c0.7-0.5,1.1-1.2,1.1-2.1s-0.4-1.7-1-2.2s-1.9-1.2-3.6-1.9l-1.5-0.6c-1.6-0.6-2.9-1.4-4-2.5S79,21.9,79,20.2
							c0-1.3,0.4-2.4,1-3.4s1.6-1.9,2.8-2.4c1.2-0.6,2.5-0.9,4-0.9c2.1,0,3.9,0.5,5.1,1.5c1.3,1,2.1,2.2,2.6,3.6l-4,1.8
							c-0.4-0.8-0.8-1.4-1.4-1.9s-1.4-0.7-2.4-0.7s-1.8,0.2-2.4,0.6c-0.6,0.5-0.9,1-0.9,1.8c0,0.7,0.3,1.3,0.9,1.9s1.6,1,3,1.5
							l1.5,0.5c2,0.7,3.7,1.7,4.8,2.9c1.1,1.2,1.7,2.7,1.7,4.6c0,1.6-0.4,2.9-1.2,4S92.2,37.5,91,38c-1.3,0.6-2.6,0.8-3.9,0.8
							C84.8,38.7,83,38.2,81.4,36.9z"/>
						<path class="st7" d="M99.5,14.2h4.5v24h-4.5V14.2z"/>
						<path class="st7" d="M114.1,37c-1.9-1.1-3.4-2.6-4.5-4.5c-1.1-1.9-1.7-4.1-1.7-6.3c0-2.3,0.6-4.4,1.7-6.3s2.6-3.4,4.5-4.5
							s4.1-1.7,6.4-1.7s4.4,0.6,6.4,1.7c1.9,1.1,3.4,2.6,4.5,4.5s1.7,4.1,1.7,6.3c0,2.3-0.6,4.4-1.7,6.3c-1.1,1.9-2.6,3.4-4.5,4.5
							c-1.9,1.1-4.1,1.7-6.4,1.7C118.1,38.7,115.9,38.2,114.1,37z M124.6,33.4c1.2-0.6,2.2-1.7,2.9-3c0.6-1.3,1-2.7,1-4.3
							s-0.4-3.1-1-4.3c-0.7-1.3-1.7-2.2-2.9-3c-1.2-0.6-2.6-1-4.1-1s-2.8,0.4-4.1,1c-1.2,0.6-2.2,1.7-2.9,3c-0.7,1.3-1,2.7-1,4.3
							s0.4,3.1,1,4.3c0.6,1.2,1.7,2.2,2.9,3c1.2,0.7,2.6,1,4.1,1S123.2,34.1,124.6,33.4z"/>
						<path class="st7" d="M137.2,14.2h5.3l9.6,16.1h0.3l-0.3-4.6V14.2h4.5v24h-4.6l-10.2-17h-0.3l0.3,4.6v12.4h-4.4L137.2,14.2
							L137.2,14.2z"/>
					</g>
				</g>
			</g>
		</g>
	</g>
</g>
<g id="Layer_2_5_">
	<g id="Layer_2_6_">
		<g>
			<g class="st10">
				<path class="st7" d="M43.9,14.1h4.9l5,14.5l0.9,3.1h0.3l0.9-3.1L61,14.1h4.9l-8.8,24h-4.8L43.9,14.1z"/>
				<path class="st7" d="M68.3,18.3c-0.6-0.6-0.8-1.2-0.8-2c0-0.8,0.3-1.4,0.8-2c0.6-0.5,1.2-0.8,2-0.8s1.4,0.3,2,0.8
					c0.5,0.5,0.8,1.2,0.8,2c0,0.8-0.3,1.5-0.8,2c-0.5,0.6-1.2,0.8-2,0.8S68.9,18.9,68.3,18.3z M68.1,21h4.4v17.1h-4.4V21z"/>
				<path class="st7" d="M78.6,37.4c-1.3-0.9-2.2-2-2.7-3.3l3.9-1.7c0.4,0.8,0.9,1.4,1.5,1.8s1.4,0.6,2.3,0.6c0.8,0,1.5-0.1,2-0.4
					c0.5-0.3,0.8-0.7,0.8-1.3c0-0.6-0.2-1-0.7-1.3c-0.5-0.3-1.2-0.5-2.2-0.8l-2-0.4c-1.4-0.3-2.5-0.9-3.5-1.8s-1.4-2-1.4-3.3
					c0-1,0.3-1.9,0.9-2.7c0.6-0.8,1.4-1.4,2.4-1.8c1-0.4,2.1-0.6,3.4-0.6c3.5,0,5.9,1.2,7.1,3.7l-3.8,1.6c-0.7-1.2-1.7-1.8-3.2-1.8
					c-0.8,0-1.4,0.1-1.8,0.4c-0.4,0.3-0.7,0.6-0.7,1.1c0,0.8,0.8,1.4,2.3,1.8l2.5,0.6c1.7,0.4,3,1.1,3.8,1.9
					c0.9,0.9,1.3,1.9,1.3,3.2c0,1.1-0.3,2.1-1,2.9c-0.6,0.8-1.5,1.5-2.6,2c-1.1,0.5-2.3,0.7-3.7,0.7C81.6,38.7,79.9,38.3,78.6,37.4z
					"/>
				<path class="st7" d="M94.4,18.3c-0.6-0.6-0.8-1.2-0.8-2c0-0.8,0.3-1.4,0.8-2c0.6-0.5,1.2-0.8,2-0.8s1.4,0.3,2,0.8
					c0.5,0.5,0.8,1.2,0.8,2c0,0.8-0.3,1.5-0.8,2c-0.5,0.6-1.2,0.8-2,0.8S95,18.9,94.4,18.3z M94.2,21h4.4v17.1h-4.4V21z"/>
				<path class="st7" d="M106.5,37.5c-1.4-0.8-2.5-1.9-3.2-3.3s-1.2-2.9-1.2-4.7c0-1.7,0.4-3.2,1.2-4.6c0.8-1.4,1.9-2.5,3.2-3.3
					c1.4-0.8,3-1.2,4.7-1.2c1.7,0,3.3,0.4,4.7,1.2c1.4,0.8,2.5,1.9,3.2,3.3c0.8,1.4,1.2,2.9,1.2,4.6c0,1.7-0.4,3.3-1.2,4.7
					s-1.9,2.5-3.2,3.3c-1.4,0.8-3,1.2-4.7,1.2C109.5,38.7,107.9,38.3,106.5,37.5z M113.6,34c0.7-0.4,1.3-1,1.7-1.7
					c0.4-0.8,0.6-1.7,0.6-2.7c0-1-0.2-1.9-0.6-2.7c-0.4-0.8-1-1.3-1.7-1.7c-0.7-0.4-1.5-0.6-2.4-0.6c-0.9,0-1.6,0.2-2.4,0.6
					c-0.7,0.4-1.3,1-1.7,1.7c-0.4,0.8-0.7,1.6-0.7,2.7c0,1,0.2,1.9,0.7,2.7s1,1.4,1.7,1.8c0.7,0.4,1.5,0.6,2.4,0.6
					C112.1,34.6,112.9,34.4,113.6,34z"/>
				<path class="st7" d="M123.3,21h4.1v2.1h0.3c0.5-0.8,1.2-1.5,2.2-2c0.9-0.5,2-0.7,3.1-0.7c2.1,0,3.6,0.6,4.7,1.9
					c1.1,1.3,1.6,3,1.6,5.1v10.6h-4.4V28c0-1.1-0.3-1.9-0.8-2.6c-0.6-0.6-1.3-0.9-2.4-0.9c-1.2,0-2.1,0.5-2.9,1.4
					c-0.7,0.9-1.1,2.1-1.1,3.5v8.7h-4.4V21z"/>
				<path class="st7" d="M148.9,37c-1.9-1.1-3.4-2.6-4.5-4.5s-1.6-4-1.6-6.4s0.5-4.5,1.6-6.4s2.6-3.4,4.5-4.5c1.9-1.1,4-1.6,6.3-1.6
					c1.8,0,3.4,0.3,4.9,1c1.5,0.7,2.8,1.7,3.9,2.9l-2,2c-0.9-1.1-1.9-1.9-3-2.4c-1.1-0.5-2.3-0.8-3.7-0.8c-1.7,0-3.3,0.4-4.8,1.2
					c-1.5,0.8-2.6,2-3.5,3.5c-0.9,1.5-1.3,3.2-1.3,5.2s0.4,3.7,1.3,5.2c0.9,1.5,2,2.6,3.5,3.5s3.1,1.2,4.8,1.2
					c2.9,0,5.4-1.2,7.4-3.6l2.1,2c-1.1,1.3-2.5,2.4-4.1,3.1c-1.6,0.8-3.4,1.2-5.4,1.2C152.9,38.7,150.8,38.1,148.9,37z"/>
				<path class="st7" d="M168.9,14.1h8.1c1.3,0,2.6,0.3,3.7,0.9c1.1,0.6,2.1,1.4,2.7,2.5c0.7,1.1,1,2.3,1,3.7c0,1.1-0.3,2.2-0.8,3.1
					c-0.5,1-1.2,1.8-2.1,2.4c-0.9,0.6-1.9,1.1-2.9,1.3l-0.1,0.1l6.8,9.8v0.1H182l-6.5-9.8h-3.8v9.8h-2.8V14.1z M176.8,25.7
					c0.8,0,1.6-0.2,2.3-0.6c0.7-0.4,1.3-0.9,1.7-1.6c0.4-0.7,0.7-1.4,0.7-2.3c0-0.7-0.2-1.4-0.6-2.1c-0.4-0.7-0.9-1.2-1.6-1.6
					c-0.7-0.4-1.5-0.6-2.4-0.6h-5.3v8.9H176.8z"/>
				<path class="st7" d="M188.6,14.1h4.1l7.7,19.7h0.1l7.7-19.7h4.1v24h-2.8V22.9l0.1-4.6h-0.1l-7.9,19.8h-2.4l-7.9-19.8h-0.1
					l0.1,4.6v15.3h-2.8V14.1z"/>
			</g>
		</g>
	</g>
</g>
</svg>
