<?xml version="1.0" encoding="utf-8"?>
<!-- Generator: Adobe Illustrator 21.1.0, SVG Export Plug-In . SVG Version: 6.00 Build 0)  -->
<svg version="1.1" id="Layer_1" xmlns="http://www.w3.org/2000/svg" xmlns:xlink="http://www.w3.org/1999/xlink" x="0px" y="0px"
	 viewBox="0 0 215 46.1" style="enable-background:new 0 0 215 46.1;" xml:space="preserve">
<style type="text/css">
	.st0{fill:#FFFFFF;}
	.st1{opacity:0.25;fill:#242E35;enable-background:new    ;}
	.st2{display:none;}
	.st3{display:inline;enable-background:new    ;}
	.st4{fill:#1E272B;}
	.st5{enable-background:new    ;}
</style>
<g id="Layer_1_3_">
	<g id="Layer_2_2_">
		<g id="Layer_2_3_">
			<g id="Layer_2_4_">
				<g>
					<path class="st0" d="M19.8,16.4c0.8-2.2,1.6-4.3,2.6-6.4c1.4-2.8,4.6-3.8,7.4-2.4c2.6,1.3,3.5,4.4,2.5,7.2
						c-1.9,4.8-3.8,9.6-5.6,14.4c-1.1,3-2.3,6-3.5,9c-1,2.4-3.1,3.4-5.5,3.2c-3.5,0.1-5.4-1.1-6.5-4.2"/>
					<path class="st0" d="M11.2,37.2c-0.3-0.8-2.2-5.6-2.3-5.9c-1.8-4.6-3.6-9.2-5.3-13.8c-0.7-1.7-1.6-3.3-1.5-5.2
						c0.2-2.4,2.1-4.7,4.3-5c2.7-0.5,5.2,0.8,6.3,3.2c1.3,3,4.7,11.8,4.7,11.8L11.2,37.2z"/>
					<polyline class="st1" points="11.2,37.2 10.2,34.4 17.4,22.2 					"/>
				</g>
				<g class="st2">
					<g class="st3">
						<path class="st4" d="M44.4,14.2h4.9l5,14.5l0.8,3.1h0.3l0.9-3.1l5.2-14.5h4.9l-8.8,24h-4.7L44.4,14.2z"/>
						<path class="st4" d="M69.7,14.2h4.5v24h-4.5V14.2z"/>
						<path class="st4" d="M81.4,36.9c-1.6-1.2-2.8-2.9-3.4-5l4.3-1.7c0.4,1.3,0.9,2.3,1.7,3.1s1.9,1.1,3.1,1.1c1,0,1.9-0.3,2.6-0.7
							c0.7-0.5,1.1-1.2,1.1-2.1s-0.4-1.7-1-2.2s-1.9-1.2-3.6-1.9l-1.5-0.6c-1.6-0.6-2.9-1.4-4-2.5S79,21.9,79,20.2
							c0-1.3,0.4-2.4,1-3.4s1.6-1.9,2.8-2.4c1.2-0.6,2.5-0.9,4-0.9c2.1,0,3.9,0.5,5.1,1.5c1.3,1,2.1,2.2,2.6,3.6l-4,1.8
							c-0.4-0.8-0.8-1.4-1.4-1.9s-1.4-0.7-2.4-0.7s-1.8,0.2-2.4,0.6c-0.6,0.5-0.9,1-0.9,1.8c0,0.7,0.3,1.3,0.9,1.9s1.6,1,3,1.5
							l1.5,0.5c2,0.7,3.7,1.7,4.8,2.9c1.1,1.2,1.7,2.7,1.7,4.6c0,1.6-0.4,2.9-1.2,4S92.2,37.5,91,38c-1.3,0.6-2.6,0.8-3.9,0.8
							C84.8,38.7,83,38.2,81.4,36.9z"/>
						<path class="st4" d="M99.5,14.2h4.5v24h-4.5V14.2z"/>
						<path class="st4" d="M114.1,37c-1.9-1.1-3.4-2.6-4.5-4.5c-1.1-1.9-1.7-4.1-1.7-6.3c0-2.3,0.6-4.4,1.7-6.3s2.6-3.4,4.5-4.5
							s4.1-1.7,6.4-1.7s4.4,0.6,6.4,1.7c1.9,1.1,3.4,2.6,4.5,4.5s1.7,4.1,1.7,6.3c0,2.3-0.6,4.4-1.7,6.3c-1.1,1.9-2.6,3.4-4.5,4.5
							c-1.9,1.1-4.1,1.7-6.4,1.7C118.1,38.7,115.9,38.2,114.1,37z M124.6,33.4c1.2-0.6,2.2-1.7,2.9-3c0.6-1.3,1-2.7,1-4.3
							s-0.4-3.1-1-4.3c-0.7-1.3-1.7-2.2-2.9-3c-1.2-0.6-2.6-1-4.1-1s-2.8,0.4-4.1,1c-1.2,0.6-2.2,1.7-2.9,3c-0.7,1.3-1,2.7-1,4.3
							s0.4,3.1,1,4.3c0.6,1.2,1.7,2.2,2.9,3c1.2,0.7,2.6,1,4.1,1S123.2,34.1,124.6,33.4z"/>
						<path class="st4" d="M137.2,14.2h5.3l9.6,16.1h0.3l-0.3-4.6V14.2h4.5v24H152l-10.2-17h-0.3l0.3,4.6v12.4h-4.4L137.2,14.2
							L137.2,14.2z"/>
					</g>
				</g>
			</g>
		</g>
	</g>
</g>
<g id="Layer_2_5_">
	<g id="Layer_2_6_">
		<g>
			<g class="st5">
				<path class="st0" d="M43.9,14.1h4.9l5,14.5l0.9,3.1H55l0.9-3.1L61,14.1h4.9l-8.8,24h-4.8L43.9,14.1z"/>
				<path class="st0" d="M68.3,18.3c-0.6-0.6-0.8-1.2-0.8-2c0-0.8,0.3-1.4,0.8-2c0.6-0.5,1.2-0.8,2-0.8s1.4,0.3,2,0.8
					c0.5,0.5,0.8,1.2,0.8,2c0,0.8-0.3,1.5-0.8,2c-0.5,0.6-1.2,0.8-2,0.8S68.9,18.9,68.3,18.3z M68.1,21h4.4v17.1h-4.4V21z"/>
				<path class="st0" d="M78.6,37.4c-1.3-0.9-2.2-2-2.7-3.3l3.9-1.7c0.4,0.8,0.9,1.4,1.5,1.8s1.4,0.6,2.3,0.6c0.8,0,1.5-0.1,2-0.4
					c0.5-0.3,0.8-0.7,0.8-1.3s-0.2-1-0.7-1.3s-1.2-0.5-2.2-0.8l-2-0.4c-1.4-0.3-2.5-0.9-3.5-1.8s-1.4-2-1.4-3.3c0-1,0.3-1.9,0.9-2.7
					c0.6-0.8,1.4-1.4,2.4-1.8s2.1-0.6,3.4-0.6c3.5,0,5.9,1.2,7.1,3.7l-3.8,1.6c-0.7-1.2-1.7-1.8-3.2-1.8c-0.8,0-1.4,0.1-1.8,0.4
					s-0.7,0.6-0.7,1.1c0,0.8,0.8,1.4,2.3,1.8l2.5,0.6c1.7,0.4,3,1.1,3.8,1.9c0.9,0.9,1.3,1.9,1.3,3.2c0,1.1-0.3,2.1-1,2.9
					c-0.6,0.8-1.5,1.5-2.6,2s-2.3,0.7-3.7,0.7C81.6,38.7,79.9,38.3,78.6,37.4z"/>
				<path class="st0" d="M94.4,18.3c-0.6-0.6-0.8-1.2-0.8-2c0-0.8,0.3-1.4,0.8-2c0.6-0.5,1.2-0.8,2-0.8s1.4,0.3,2,0.8
					c0.5,0.5,0.8,1.2,0.8,2c0,0.8-0.3,1.5-0.8,2c-0.5,0.6-1.2,0.8-2,0.8S95,18.9,94.4,18.3z M94.2,21h4.4v17.1h-4.4V21z"/>
				<path class="st0" d="M106.5,37.5c-1.4-0.8-2.5-1.9-3.2-3.3s-1.2-2.9-1.2-4.7c0-1.7,0.4-3.2,1.2-4.6c0.8-1.4,1.9-2.5,3.2-3.3
					c1.4-0.8,3-1.2,4.7-1.2s3.3,0.4,4.7,1.2c1.4,0.8,2.5,1.9,3.2,3.3c0.8,1.4,1.2,2.9,1.2,4.6s-0.4,3.3-1.2,4.7s-1.9,2.5-3.2,3.3
					c-1.4,0.8-3,1.2-4.7,1.2S107.9,38.3,106.5,37.5z M113.6,34c0.7-0.4,1.3-1,1.7-1.7c0.4-0.8,0.6-1.7,0.6-2.7s-0.2-1.9-0.6-2.7
					c-0.4-0.8-1-1.3-1.7-1.7c-0.7-0.4-1.5-0.6-2.4-0.6s-1.6,0.2-2.4,0.6c-0.7,0.4-1.3,1-1.7,1.7c-0.4,0.8-0.7,1.6-0.7,2.7
					c0,1,0.2,1.9,0.7,2.7c0.5,0.8,1,1.4,1.7,1.8c0.7,0.4,1.5,0.6,2.4,0.6C112.1,34.6,112.9,34.4,113.6,34z"/>
				<path class="st0" d="M123.3,21h4.1v2.1h0.3c0.5-0.8,1.2-1.5,2.2-2c0.9-0.5,2-0.7,3.1-0.7c2.1,0,3.6,0.6,4.7,1.9
					c1.1,1.3,1.6,3,1.6,5.1V38h-4.4V28c0-1.1-0.3-1.9-0.8-2.6c-0.6-0.6-1.3-0.9-2.4-0.9c-1.2,0-2.1,0.5-2.9,1.4
					c-0.7,0.9-1.1,2.1-1.1,3.5v8.7h-4.4L123.3,21L123.3,21z"/>
				<path class="st0" d="M148.9,37c-1.9-1.1-3.4-2.6-4.5-4.5s-1.6-4-1.6-6.4s0.5-4.5,1.6-6.4s2.6-3.4,4.5-4.5s4-1.6,6.3-1.6
					c1.8,0,3.4,0.3,4.9,1s2.8,1.7,3.9,2.9l-2,2c-0.9-1.1-1.9-1.9-3-2.4s-2.3-0.8-3.7-0.8c-1.7,0-3.3,0.4-4.8,1.2
					c-1.5,0.8-2.6,2-3.5,3.5s-1.3,3.2-1.3,5.2s0.4,3.7,1.3,5.2c0.9,1.5,2,2.6,3.5,3.5s3.1,1.2,4.8,1.2c2.9,0,5.4-1.2,7.4-3.6l2.1,2
					c-1.1,1.3-2.5,2.4-4.1,3.1c-1.6,0.8-3.4,1.2-5.4,1.2C152.9,38.7,150.8,38.1,148.9,37z"/>
				<path class="st0" d="M168.9,14.1h8.1c1.3,0,2.6,0.3,3.7,0.9c1.1,0.6,2.1,1.4,2.7,2.5c0.7,1.1,1,2.3,1,3.7c0,1.1-0.3,2.2-0.8,3.1
					c-0.5,1-1.2,1.8-2.1,2.4c-0.9,0.6-1.9,1.1-2.9,1.3l-0.1,0.1l6.8,9.8V38H182l-6.5-9.8h-3.8V38h-2.8V14.1z M176.8,25.7
					c0.8,0,1.6-0.2,2.3-0.6s1.3-0.9,1.7-1.6s0.7-1.4,0.7-2.3c0-0.7-0.2-1.4-0.6-2.1c-0.4-0.7-0.9-1.2-1.6-1.6
					c-0.7-0.4-1.5-0.6-2.4-0.6h-5.3v8.9L176.8,25.7L176.8,25.7z"/>
				<path class="st0" d="M188.6,14.1h4.1l7.7,19.7h0.1l7.7-19.7h4.1v24h-2.8V22.9l0.1-4.6h-0.1l-7.9,19.8h-2.4l-7.9-19.8h-0.1
					l0.1,4.6v15.3h-2.8L188.6,14.1L188.6,14.1z"/>
			</g>
		</g>
	</g>
</g>
</svg>
