<?xml version="1.0" encoding="utf-8"?>
<!-- Generator: Adobe Illustrator 21.1.0, SVG Export Plug-In . SVG Version: 6.00 Build 0)  -->
<svg version="1.1" xmlns="http://www.w3.org/2000/svg" xmlns:xlink="http://www.w3.org/1999/xlink" x="0px" y="0px"
	 viewBox="0 0 217.6 33.4" style="enable-background:new 0 0 217.6 33.4;" xml:space="preserve">
<style type="text/css">
	.st0{display:none;}
	.st1{display:inline;}
	.st2{fill:#377DFF;}
	.st3{opacity:0.65;fill:#3F7DE0;enable-background:new    ;}
	.st4{opacity:0.5;fill:#00DFFC;enable-background:new    ;}
	.st5{opacity:0.7;fill:#3F7DE0;enable-background:new    ;}
	.st6{fill:#FFFFFF;}
	.st7{fill:#1E272B;}
	.st8{fill:url(#SVGID_1_);}
	.st9{opacity:0.25;fill:#242E35;enable-background:new    ;}
	.st10{enable-background:new    ;}
	.st11{fill:url(#SVGID_2_);}
	.st12{display:inline;enable-background:new    ;}
	.st13{fill:url(#SVGID_3_);}
	.st14{fill:#137CDB;}
</style>
<g id="Layer_1" class="st0">
	<g id="Layer_1_3_" class="st1">
		<g id="Layer_1_2_" class="st0">
			<g id="Layer_1_1_" class="st1">
				<path class="st2" d="M90,31V2.8h17.9v5.2H96.7V14h8.4v5.2h-8.4V31H90z"/>
				<path class="st2" d="M117.2,8.6v4.2c1.6-2.9,3.7-4.4,6.3-4.4v7H122c-1.5,0-2.7,0.4-3.5,1.1c-0.8,0.8-1.2,2.1-1.2,3.9V31h-6.7
					V8.6H117.2z"/>
				<path class="st2" d="M127,28c-2.2-2.1-3.3-4.9-3.3-8.4s1.1-6.2,3.3-8.3c2.2-2.1,4.9-3.1,8.1-3.1s5.9,1,8.1,3.1
					c2.2,2.1,3.3,4.8,3.3,8.3s-1.1,6.2-3.3,8.4c-2.2,2.2-4.9,3.2-8.1,3.2S129.1,30.2,127,28z M138.4,24c0.9-1,1.3-2.4,1.3-4.2
					s-0.5-3.2-1.4-4.2s-2-1.4-3.3-1.4s-2.3,0.5-3.2,1.4c-0.9,1-1.4,2.3-1.4,4.2s0.5,3.2,1.4,4.2s2,1.4,3.3,1.4
					C136.4,25.3,137.5,24.8,138.4,24z"/>
				<path class="st2" d="M155.6,8.6v3.3c1.4-2.4,3.6-3.5,6.6-3.5c2.5,0,4.5,0.9,6.1,2.6s2.3,4,2.3,7v13.1h-6.7V18.8
					c0-1.4-0.4-2.6-1.1-3.4c-0.7-0.8-1.8-1.2-3.1-1.2s-2.3,0.4-3.1,1.2c-0.7,0.8-1.1,1.9-1.1,3.4V31h-6.7V8.6H155.6z"/>
				<path class="st2" d="M183.6,25.2h2.4V31h-3.4c-2.5,0-4.4-0.6-5.7-1.7c-1.3-1.1-2-3-2-5.7v-9.3h-2V8.6h2V3.1h6.7v5.5h4.4v5.7
					h-4.4v9.3C181.6,24.5,182.2,25.2,183.6,25.2z"/>
				<path class="st3" d="M54.1,33.8L54.1,33.8c-9.9,0-18-8-18-18l0,0c0-9.9,8-18,18-18h11.3c3.7,0,6.6,3,6.6,6.6v11.4
					C72.1,25.8,64,33.8,54.1,33.8z"/>
				<path class="st4" d="M59.1,28.8L59.1,28.8c-9.9,0-18-8-18-18l0,0c0-9.9,8-18,18-18h11.3c3.7,0.1,6.7,3.1,6.7,6.7v11.4
					C77.1,20.8,69.1,28.8,59.1,28.8z"/>
				<path class="st5" d="M49.1,38.8L49.1,38.8c-10,0-18-8-18-18l0,0c0-9.9,8-18,18-18h11.3c3.7,0,6.6,3,6.6,6.6v11.4
					C67,30.8,59,38.8,49.1,38.8z"/>
				<path class="st6" d="M48.5,26.8V11.1h10.2V14h-6.4v3.4h4.8v2.9h-4.8v6.5H48.5z"/>
			</g>
			<g id="Layer_2" class="st1">
				<g id="Layer_2_1_">
					<g>
						<path class="st7" d="M46.6,9.5c0.7-1.9,1.4-3.8,2.3-5.6c1.2-2.5,4-3.3,6.5-2.1c2.3,1.1,3.1,3.9,2.2,6.3
							c-1.7,4.2-3.3,8.4-4.9,12.6c-1,2.6-2,5.3-3.1,7.9c-0.9,2.1-2.7,3-4.8,2.8c-3.1,0.1-4.7-1-5.7-3.7"/>
						
							<linearGradient id="SVGID_1_" gradientUnits="userSpaceOnUse" x1="33.9105" y1="305.7434" x2="43.7992" y2="329.8795" gradientTransform="matrix(1 0 0 1 0 -304)">
							<stop  offset="0" style="stop-color:#1C8DF3"/>
							<stop  offset="0.3621" style="stop-color:#137CDB"/>
							<stop  offset="0.7281" style="stop-color:#0C6FCA"/>
							<stop  offset="1" style="stop-color:#0A6BC4"/>
						</linearGradient>
						<path class="st8" d="M39.1,27.8c-0.3-0.7-1.9-4.9-2-5.2c-1.6-4-3.2-8-4.7-12.1c-0.6-1.5-1.4-2.9-1.3-4.6
							c0.2-2.1,1.8-4.1,3.8-4.4c2.4-0.4,4.6,0.7,5.5,2.8c1.1,2.6,4.1,10.4,4.1,10.4L39.1,27.8z"/>
						<polyline class="st9" points="39.1,27.8 38.2,25.3 44.5,14.6 						"/>
					</g>
					<g>
						<g class="st10">
							<path class="st7" d="M64.5,4.8h5.3l5.4,15.7l0.9,3.3h0.3l1-3.3L83,4.8h5.3l-9.5,25.9h-5.1L64.5,4.8z"/>
							<path class="st7" d="M91.8,4.8h4.9v25.9h-4.9V4.8z"/>
							<path class="st7" d="M104.4,29.3c-1.7-1.3-3-3.1-3.7-5.4l4.6-1.8c0.4,1.4,1,2.5,1.8,3.3c0.8,0.8,2,1.2,3.3,1.2
								c1.1,0,2-0.3,2.8-0.8s1.2-1.3,1.2-2.3s-0.4-1.8-1.1-2.4s-2-1.3-3.9-2l-1.6-0.6c-1.7-0.6-3.1-1.5-4.3-2.7
								c-1.2-1.2-1.8-2.7-1.8-4.5c0-1.4,0.4-2.6,1.1-3.7s1.7-2,3-2.6c1.3-0.6,2.7-1,4.3-1c2.3,0,4.2,0.5,5.5,1.6
								c1.4,1.1,2.3,2.4,2.8,3.9l-4.3,1.9c-0.3-0.8-0.7-1.5-1.4-2s-1.5-0.8-2.6-0.8s-1.9,0.2-2.6,0.7s-1,1.1-1,1.9s0.3,1.4,1,2
								s1.7,1.1,3.2,1.6l1.6,0.5c2.2,0.8,4,1.8,5.2,3.1s1.8,2.9,1.8,5c0,1.7-0.4,3.1-1.3,4.3s-2,2-3.4,2.6s-2.8,0.9-4.2,0.9
								C108.1,31.2,106.1,30.7,104.4,29.3z"/>
							<path class="st7" d="M123.9,4.8h4.9v25.9h-4.9V4.8z"/>
							<path class="st7" d="M139.6,29.5c-2.1-1.2-3.7-2.8-4.9-4.9s-1.8-4.4-1.8-6.8c0-2.5,0.6-4.8,1.8-6.8c1.2-2.1,2.8-3.7,4.9-4.9
								c2.1-1.2,4.4-1.8,6.9-1.8s4.8,0.6,6.9,1.8c2.1,1.2,3.7,2.8,4.9,4.9s1.8,4.4,1.8,6.8c0,2.5-0.6,4.8-1.8,6.8
								c-1.2,2.1-2.8,3.7-4.9,4.9c-2.1,1.2-4.4,1.8-6.9,1.8S141.6,30.7,139.6,29.5z M151,25.5c1.3-0.7,2.4-1.8,3.1-3.2
								s1.1-2.9,1.1-4.6s-0.4-3.3-1.1-4.6c-0.8-1.4-1.8-2.4-3.1-3.2c-1.3-0.7-2.8-1.1-4.4-1.1s-3,0.4-4.4,1.1
								c-1.3,0.7-2.4,1.8-3.1,3.2c-0.8,1.4-1.1,2.9-1.1,4.6s0.4,3.3,1.1,4.6s1.8,2.4,3.1,3.2c1.3,0.8,2.8,1.1,4.4,1.1
								C148.1,26.7,149.6,26.2,151,25.5z"/>
							<path class="st7" d="M164.8,4.8h5.7l10.4,17.4h0.3l-0.3-5V4.8h4.9v25.9h-5.1l-11-18.4h-0.3l0.3,5v13.4h-4.8L164.8,4.8
								L164.8,4.8z"/>
						</g>
					</g>
				</g>
			</g>
		</g>
		<g id="Layer_2_2_">
			<g id="Layer_2_3_">
				<g id="Layer_2_4_">
					<g>
						<path class="st7" d="M20.8,9.1c0.8-2.2,1.6-4.3,2.6-6.4c1.4-2.8,4.6-3.8,7.4-2.4c2.6,1.3,3.5,4.4,2.5,7.2
							c-1.9,4.8-3.8,9.6-5.6,14.4c-1.1,3-2.3,6-3.5,9c-1,2.4-3.1,3.4-5.5,3.2c-3.5,0.1-5.4-1.1-6.5-4.2"/>
						
							<linearGradient id="SVGID_2_" gradientUnits="userSpaceOnUse" x1="6.2715" y1="304.2811" x2="17.5381" y2="331.7804" gradientTransform="matrix(1 0 0 1 0 -304)">
							<stop  offset="0" style="stop-color:#1C8DF3"/>
							<stop  offset="0.3621" style="stop-color:#137CDB"/>
							<stop  offset="0.7281" style="stop-color:#0C6FCA"/>
							<stop  offset="1" style="stop-color:#0A6BC4"/>
						</linearGradient>
						<path class="st11" d="M12.2,30c-0.3-0.8-2.2-5.6-2.3-5.9c-1.8-4.6-3.6-9.2-5.3-13.8C3.9,8.6,3,6.9,3.1,5.1
							c0.2-2.4,2.1-4.7,4.3-5c2.7-0.5,5.2,0.8,6.3,3.2C15,6.2,18.4,15,18.4,15L12.2,30z"/>
						<polyline class="st9" points="12.2,30 11.2,27.2 18.4,15 						"/>
					</g>
					<g class="st0">
						<g class="st12">
							<path class="st7" d="M45.4,6.9h4.9l5,14.5l0.8,3.1h0.3l0.9-3.1L62.5,7h4.9l-8.8,24h-4.7L45.4,6.9z"/>
							<path class="st7" d="M70.7,6.9h4.5v24h-4.5V6.9z"/>
							<path class="st7" d="M82.4,29.7c-1.6-1.2-2.8-2.9-3.4-5l4.3-1.7c0.4,1.3,0.9,2.3,1.7,3.1s1.9,1.1,3.1,1.1
								c1,0,1.9-0.3,2.6-0.7c0.7-0.5,1.1-1.2,1.1-2.1s-0.4-1.7-1-2.2s-1.9-1.2-3.6-1.9l-1.5-0.6c-1.6-0.6-2.9-1.4-4-2.5
								S80,14.6,80,13c0-1.3,0.4-2.4,1-3.4s1.6-1.9,2.8-2.4c1.2-0.6,2.5-0.9,4-0.9c2.1,0,3.9,0.5,5.1,1.5c1.3,1,2.1,2.2,2.6,3.6
								l-4,1.8c-0.4-0.8-0.8-1.4-1.4-1.9s-1.4-0.7-2.4-0.7s-1.8,0.2-2.4,0.6c-0.6,0.5-0.9,1-0.9,1.8c0,0.7,0.3,1.3,0.9,1.9
								s1.6,1,3,1.5l1.5,0.5c2,0.7,3.7,1.7,4.8,2.9c1.1,1.2,1.7,2.7,1.7,4.6c0,1.6-0.4,2.9-1.2,4s-1.9,1.9-3.1,2.4
								c-1.3,0.6-2.6,0.8-3.9,0.8C85.8,31.5,84,31,82.4,29.7z"/>
							<path class="st7" d="M100.5,6.9h4.5v24h-4.5V6.9z"/>
							<path class="st7" d="M115.1,29.8c-1.9-1.1-3.4-2.6-4.5-4.5c-1.1-1.9-1.7-4.1-1.7-6.3c0-2.3,0.6-4.4,1.7-6.3s2.6-3.4,4.5-4.5
								s4.1-1.7,6.4-1.7s4.4,0.6,6.4,1.7c1.9,1.1,3.4,2.6,4.5,4.5s1.7,4.1,1.7,6.3c0,2.3-0.6,4.4-1.7,6.3c-1.1,1.9-2.6,3.4-4.5,4.5
								c-1.9,1.1-4.1,1.7-6.4,1.7C119.1,31.5,116.9,31,115.1,29.8z M125.6,26.2c1.2-0.6,2.2-1.7,2.9-3c0.6-1.3,1-2.7,1-4.3
								s-0.4-3.1-1-4.3c-0.7-1.3-1.7-2.2-2.9-3c-1.2-0.6-2.6-1-4.1-1s-2.8,0.4-4.1,1c-1.2,0.6-2.2,1.7-2.9,3c-0.7,1.3-1,2.7-1,4.3
								s0.4,3.1,1,4.3c0.6,1.2,1.7,2.2,2.9,3c1.2,0.7,2.6,1,4.1,1S124.2,26.8,125.6,26.2z"/>
							<path class="st7" d="M138.2,6.9h5.3l9.6,16.1h0.3l-0.3-4.6V6.9h4.5v24H153l-10.2-17h-0.3l0.3,4.6V31h-4.4L138.2,6.9
								L138.2,6.9z"/>
						</g>
					</g>
				</g>
			</g>
		</g>
	</g>
	<g id="Layer_2_5_" class="st1">
		<g id="Layer_2_6_">
			<g>
				<g class="st10">
					<path class="st7" d="M44.9,6.9h4.9l5,14.5l0.9,3.1H56l0.9-3.1L62,6.9h4.9l-8.8,24h-4.8L44.9,6.9z"/>
					<path class="st7" d="M69.3,11c-0.6-0.6-0.8-1.2-0.8-2c0-0.8,0.3-1.4,0.8-2c0.6-0.5,1.2-0.8,2-0.8s1.4,0.3,2,0.8
						c0.5,0.5,0.8,1.2,0.8,2c0,0.8-0.3,1.5-0.8,2c-0.5,0.6-1.2,0.8-2,0.8S69.9,11.6,69.3,11z M69.1,13.8h4.4v17.1h-4.4V13.8z"/>
					<path class="st7" d="M79.6,30.2c-1.3-0.9-2.2-2-2.7-3.3l3.9-1.7c0.4,0.8,0.9,1.4,1.5,1.8s1.4,0.6,2.3,0.6c0.8,0,1.5-0.1,2-0.4
						c0.5-0.3,0.8-0.7,0.8-1.3s-0.2-1-0.7-1.3s-1.2-0.5-2.2-0.8l-2-0.4c-1.4-0.3-2.5-0.9-3.5-1.8s-1.4-2-1.4-3.3
						c0-1,0.3-1.9,0.9-2.7c0.6-0.8,1.4-1.4,2.4-1.8s2.1-0.6,3.4-0.6c3.5,0,5.9,1.2,7.1,3.7l-3.8,1.6c-0.7-1.2-1.7-1.8-3.2-1.8
						c-0.8,0-1.4,0.1-1.8,0.4s-0.7,0.6-0.7,1.1c0,0.8,0.8,1.4,2.3,1.8l2.5,0.6c1.7,0.4,3,1.1,3.8,1.9c0.9,0.9,1.3,1.9,1.3,3.2
						c0,1.1-0.3,2.1-1,2.9c-0.6,0.8-1.5,1.5-2.6,2s-2.3,0.7-3.7,0.7C82.6,31.5,80.9,31,79.6,30.2z"/>
					<path class="st7" d="M95.4,11c-0.6-0.6-0.8-1.2-0.8-2c0-0.8,0.3-1.4,0.8-2c0.6-0.5,1.2-0.8,2-0.8s1.4,0.3,2,0.8
						c0.5,0.5,0.8,1.2,0.8,2c0,0.8-0.3,1.5-0.8,2c-0.5,0.6-1.2,0.8-2,0.8S96,11.6,95.4,11z M95.2,13.8h4.4v17.1h-4.4V13.8z"/>
					<path class="st7" d="M107.5,30.2c-1.4-0.8-2.5-1.9-3.2-3.3s-1.2-2.9-1.2-4.7c0-1.7,0.4-3.2,1.2-4.6c0.8-1.4,1.9-2.5,3.2-3.3
						c1.4-0.8,3-1.2,4.7-1.2s3.3,0.4,4.7,1.2c1.4,0.8,2.5,1.9,3.2,3.3c0.8,1.4,1.2,2.9,1.2,4.6s-0.4,3.3-1.2,4.7s-1.9,2.5-3.2,3.3
						c-1.4,0.8-3,1.2-4.7,1.2S108.9,31,107.5,30.2z M114.6,26.8c0.7-0.4,1.3-1,1.7-1.7c0.4-0.8,0.6-1.7,0.6-2.7s-0.2-1.9-0.6-2.7
						c-0.4-0.8-1-1.3-1.7-1.7c-0.7-0.4-1.5-0.6-2.4-0.6s-1.6,0.2-2.4,0.6c-0.7,0.4-1.3,1-1.7,1.7c-0.4,0.8-0.7,1.6-0.7,2.7
						c0,1,0.2,1.9,0.7,2.7c0.5,0.8,1,1.4,1.7,1.8c0.7,0.4,1.5,0.6,2.4,0.6C113.1,27.3,113.9,27.2,114.6,26.8z"/>
					<path class="st7" d="M124.3,13.8h4.1v2.1h0.3c0.5-0.8,1.2-1.5,2.2-2c0.9-0.5,2-0.7,3.1-0.7c2.1,0,3.6,0.6,4.7,1.9
						c1.1,1.3,1.6,3,1.6,5.1v10.6h-4.4v-10c0-1.1-0.3-1.9-0.8-2.6c-0.6-0.6-1.3-0.9-2.4-0.9c-1.2,0-2.1,0.5-2.9,1.4
						c-0.7,0.9-1.1,2.1-1.1,3.5v8.7h-4.4L124.3,13.8L124.3,13.8z"/>
					<path class="st7" d="M149.9,29.8c-1.9-1.1-3.4-2.6-4.5-4.5s-1.6-4-1.6-6.4s0.5-4.5,1.6-6.4s2.6-3.4,4.5-4.5s4-1.6,6.3-1.6
						c1.8,0,3.4,0.3,4.9,1s2.8,1.7,3.9,2.9l-2,2c-0.9-1.1-1.9-1.9-3-2.4s-2.3-0.8-3.7-0.8c-1.7,0-3.3,0.4-4.8,1.2
						c-1.5,0.8-2.6,2-3.5,3.5s-1.3,3.2-1.3,5.2s0.4,3.7,1.3,5.2c0.9,1.5,2,2.6,3.5,3.5s3.1,1.2,4.8,1.2c2.9,0,5.4-1.2,7.4-3.6l2.1,2
						c-1.1,1.3-2.5,2.4-4.1,3.1c-1.6,0.8-3.4,1.2-5.4,1.2C153.9,31.5,151.8,30.8,149.9,29.8z"/>
					<path class="st7" d="M169.9,6.9h8.1c1.3,0,2.6,0.3,3.7,0.9c1.1,0.6,2.1,1.4,2.7,2.5c0.7,1.1,1,2.3,1,3.7c0,1.1-0.3,2.2-0.8,3.1
						c-0.5,1-1.2,1.8-2.1,2.4c-0.9,0.6-1.9,1.1-2.9,1.3l-0.1,0.1l6.8,9.8v0.1H183l-6.5-9.8h-3.8v9.8h-2.8V6.9z M177.8,18.5
						c0.8,0,1.6-0.2,2.3-0.6s1.3-0.9,1.7-1.6s0.7-1.4,0.7-2.3c0-0.7-0.2-1.4-0.6-2.1c-0.4-0.7-0.9-1.2-1.6-1.6
						c-0.7-0.4-1.5-0.6-2.4-0.6h-5.3v8.9L177.8,18.5L177.8,18.5z"/>
					<path class="st7" d="M189.6,6.9h4.1l7.7,19.7h0.1l7.7-19.7h4.1v24h-2.8V15.6l0.1-4.6h-0.1l-7.9,19.8h-2.4L192.3,11h-0.1
						l0.1,4.6V31h-2.8L189.6,6.9L189.6,6.9z"/>
				</g>
			</g>
		</g>
	</g>
</g>
<g id="Layer_2_7_">
	<g>
		<path class="st7" d="M17,9.1c0.8-2.1,1.5-4.2,2.5-6.2c1.3-2.7,4.4-3.6,7.2-2.3c2.5,1.2,3.5,4.3,2.4,7c-1.9,4.6-3.6,9.3-5.4,13.9
			c-1.1,2.9-2.2,5.8-3.4,8.7c-1,2.3-2.9,3.3-5.3,3.1c-3.2,0-5-1.2-6.1-4.1"/>
		
			<linearGradient id="SVGID_3_" gradientUnits="userSpaceOnUse" x1="3.1064" y1="33.0334" x2="14.0104" y2="6.4195" gradientTransform="matrix(1 0 0 -1 0 33.5)">
			<stop  offset="0" style="stop-color:#1C8DF3"/>
			<stop  offset="0.3621" style="stop-color:#137CDB"/>
			<stop  offset="0.7281" style="stop-color:#0C6FCA"/>
			<stop  offset="1" style="stop-color:#0A6BC4"/>
		</linearGradient>
		<path class="st13" d="M8.9,29.2c-0.3-0.8-2.1-5.4-2.2-5.7C4.9,19,3.1,14.6,1.5,10.1C0.8,8.5-0.1,6.9,0,5.1c0.2-2.4,2-4.6,4.2-4.9
			c2.7-0.4,5.1,0.7,6,3.1c1.2,2.9,4.5,11.4,4.5,11.4L8.9,29.2z"/>
		<polyline class="st9" points="8.9,29.2 7.8,26.5 14.7,14.7 		"/>
	</g>
	<g>
		<g class="st10">
			<path class="st7" d="M41.5,6.1l6.8,20.1l6.8-20.1h5.4l-9,25.4h-6.5l-9-25.4H41.5z"/>
			<path class="st7" d="M63.6,3.8c0.6-0.5,1.3-0.8,2.3-0.8s1.7,0.3,2.3,0.8C68.7,4.3,69,5,69,5.8c0,0.8-0.3,1.4-0.9,2
				c-0.6,0.5-1.3,0.8-2.3,0.8s-1.7-0.3-2.3-0.8c-0.6-0.5-0.9-1.2-0.9-2C62.8,5,63.1,4.3,63.6,3.8z M68.4,11.5v19.9h-5.1V11.5H68.4z"
				/>
			<path class="st7" d="M85.7,13.1c1.5,1.2,2.4,2.9,2.7,4.9h-4.8c-0.2-1-0.6-1.7-1.3-2.3c-0.7-0.6-1.5-0.9-2.6-0.9
				c-0.9,0-1.5,0.2-2,0.6c-0.5,0.4-0.7,1-0.7,1.7c0,0.6,0.2,1,0.6,1.3s0.9,0.6,1.4,0.8c0.6,0.2,1.4,0.4,2.5,0.7
				c1.5,0.3,2.7,0.7,3.7,1.1c0.9,0.4,1.8,1,2.4,1.8c0.7,0.8,1,1.9,1,3.3c0,1.7-0.7,3.1-2,4.1c-1.3,1.1-3.1,1.6-5.4,1.6
				c-2.6,0-4.7-0.6-6.2-1.7c-1.6-1.2-2.5-2.8-2.8-5h4.9c0.1,1,0.6,1.8,1.3,2.3c0.7,0.6,1.7,0.8,2.9,0.8c0.9,0,1.5-0.2,2-0.6
				c0.5-0.4,0.7-1,0.7-1.6c0-0.6-0.2-1-0.6-1.4c-0.4-0.4-0.9-0.6-1.5-0.8c-0.6-0.2-1.4-0.4-2.5-0.7c-1.5-0.3-2.7-0.7-3.6-1
				c-0.9-0.3-1.7-0.9-2.4-1.7c-0.7-0.8-1-1.8-1-3.2c0-1.7,0.7-3.1,2-4.2c1.3-1.1,3.1-1.6,5.5-1.6C82.3,11.3,84.3,11.9,85.7,13.1z"/>
			<path class="st7" d="M92.8,3.8c0.6-0.5,1.3-0.8,2.3-0.8s1.7,0.3,2.3,0.8c0.6,0.5,0.9,1.2,0.9,2c0,0.8-0.3,1.4-0.9,2
				c-0.6,0.5-1.3,0.8-2.3,0.8s-1.7-0.3-2.3-0.8c-0.6-0.5-0.9-1.2-0.9-2C91.9,5,92.2,4.3,92.8,3.8z M97.6,11.5v19.9h-5.1V11.5H97.6z"
				/>
			<path class="st7" d="M116.6,12.5c1.5,0.8,2.8,2,3.7,3.5c0.9,1.5,1.3,3.4,1.3,5.5c0,2.1-0.4,3.9-1.3,5.4c-0.9,1.5-2.1,2.7-3.7,3.5
				c-1.5,0.8-3.3,1.2-5.2,1.2c-1.9,0-3.7-0.4-5.2-1.2c-1.5-0.8-2.8-2-3.7-3.5s-1.3-3.3-1.3-5.4c0-2.1,0.4-3.9,1.3-5.5
				s2.1-2.7,3.7-3.5c1.5-0.8,3.3-1.2,5.2-1.2C113.3,11.3,115.1,11.7,116.6,12.5z M107.8,17.2c-1,1-1.5,2.4-1.5,4.3
				c0,1.9,0.5,3.3,1.5,4.3c1,1,2.2,1.5,3.6,1.5c1.4,0,2.6-0.5,3.6-1.5c1-1,1.5-2.4,1.5-4.3c0-1.9-0.5-3.3-1.5-4.3
				c-1-1-2.2-1.5-3.6-1.5C110,15.7,108.8,16.2,107.8,17.2z"/>
			<path class="st7" d="M142.6,13.5c1.4,1.5,2.1,3.6,2.1,6.4v11.6h-5v-11c0-1.6-0.4-2.8-1.2-3.7c-0.8-0.9-1.9-1.3-3.3-1.3
				c-1.4,0-2.6,0.5-3.5,1.4c-0.9,0.9-1.3,2.3-1.3,4v10.6h-5.1V11.5h5.1v4c0.5-1.3,1.4-2.4,2.6-3.1c1.2-0.8,2.6-1.1,4.2-1.1
				C139.4,11.3,141.2,12,142.6,13.5z"/>
			<path class="st14" d="M164.4,13.5c1.7,1.3,2.7,3.1,3.1,5.4H164c-0.2-1.4-0.9-2.5-2-3.3c-1.1-0.8-2.4-1.2-4-1.2
				c-1.2,0-2.2,0.3-3.1,0.8c-0.9,0.5-1.7,1.3-2.3,2.4c-0.6,1.1-0.9,2.4-0.9,4c0,1.6,0.3,3,0.9,4c0.6,1.1,1.3,1.9,2.3,2.4
				c0.9,0.5,2,0.8,3.1,0.8c1.6,0,2.9-0.4,4-1.2c1.1-0.8,1.7-1.9,2-3.3h3.5c-0.4,2.3-1.4,4.1-3.1,5.4c-1.7,1.3-3.7,2-6.3,2
				c-1.9,0-3.6-0.4-5-1.2c-1.5-0.8-2.6-2-3.4-3.5c-0.8-1.5-1.2-3.3-1.2-5.4c0-2.1,0.4-3.9,1.2-5.4c0.8-1.5,2-2.7,3.4-3.5
				c1.5-0.8,3.1-1.2,5-1.2C160.7,11.5,162.8,12.1,164.4,13.5z"/>
			<path class="st14" d="M177.9,12.5c1.2-0.8,2.7-1.1,4.5-1.1V15h-1c-1.8,0-3.4,0.5-4.5,1.4c-1.2,0.9-1.8,2.5-1.8,4.7v10.4h-3.3
				V11.7h3.3v4C175.7,14.4,176.6,13.3,177.9,12.5z"/>
			<path class="st14" d="M215.5,13.6c1.4,1.5,2.1,3.6,2.1,6.4v11.5h-3.3V20.3c0-1.9-0.5-3.4-1.4-4.5c-0.9-1-2.2-1.5-3.9-1.5
				c-1.7,0-3.1,0.6-4.2,1.7c-1,1.1-1.6,2.8-1.6,5v10.5H200V20.3c0-1.9-0.5-3.4-1.4-4.5c-1-1-2.3-1.5-3.9-1.5c-1.8,0-3.1,0.6-4.2,1.7
				c-1,1.1-1.6,2.8-1.6,5v10.5h-3.3V11.7h3.3v4.5c0.5-1.6,1.3-2.8,2.6-3.6c1.2-0.8,2.7-1.2,4.3-1.2c1.7,0,3.1,0.4,4.4,1.3
				c1.2,0.9,2.1,2.1,2.6,3.8c0.6-1.6,1.5-2.8,2.8-3.7c1.3-0.9,2.8-1.3,4.4-1.3C212.2,11.4,214,12.1,215.5,13.6z"/>
		</g>
	</g>
</g>
</svg>
