<?xml version="1.0" encoding="utf-8"?>
<!-- Generator: Adobe Illustrator 21.1.0, SVG Export Plug-In . SVG Version: 6.00 Build 0)  -->
<svg version="1.1" id="Layer_2_9_" xmlns="http://www.w3.org/2000/svg" xmlns:xlink="http://www.w3.org/1999/xlink" x="0px" y="0px"
	 viewBox="0 0 182.1 26.4" style="enable-background:new 0 0 182.1 26.4;" xml:space="preserve">
<style type="text/css">
	.st0{enable-background:new    ;}
	.st1{fill:#1E272B;}
	.st2{fill:#137CDB;}
</style>
<g id="Layer_2_10_">
	<g>
		<g class="st0">
			<path class="st1" d="M33,3.7h4.2l4.3,12.5l0.8,2.6h0.2l0.8-2.6l4.5-12.5H52l-7.5,20.7h-4.1L33,3.7z"/>
			<path class="st1" d="M54.8,3.7h3.9v20.7h-3.9V3.7z"/>
			<path class="st1" d="M64.8,23.3c-1.4-1-2.4-2.5-2.9-4.3l3.7-1.4c0.3,1.1,0.8,2,1.5,2.6c0.7,0.7,1.6,1,2.6,1
				c0.9,0,1.6-0.2,2.2-0.7c0.6-0.4,0.9-1,0.9-1.8c0-0.8-0.3-1.4-0.9-1.9c-0.6-0.5-1.6-1-3.1-1.6l-1.3-0.5c-1.3-0.5-2.5-1.2-3.4-2.1
				c-0.9-1-1.4-2.2-1.4-3.6C62.7,8,63,7,63.5,6.1c0.6-0.9,1.3-1.6,2.4-2.1c1-0.5,2.2-0.8,3.5-0.8c1.9,0,3.3,0.4,4.4,1.3
				c1.1,0.9,1.8,1.9,2.2,3.1l-3.4,1.4c-0.2-0.6-0.6-1.2-1.1-1.6c-0.5-0.4-1.2-0.7-2-0.7c-0.8,0-1.5,0.2-2.1,0.6
				c-0.5,0.4-0.8,0.9-0.8,1.5c0,0.6,0.3,1.1,0.8,1.6c0.5,0.4,1.4,0.9,2.6,1.3l1.3,0.4c1.8,0.6,3.2,1.4,4.1,2.4c1,1,1.4,2.3,1.4,4
				c0,1.3-0.3,2.5-1,3.4C75,23,74.1,23.7,73,24.2c-1.1,0.5-2.2,0.7-3.4,0.7C67.8,24.9,66.2,24.4,64.8,23.3z"/>
			<path class="st1" d="M80.4,3.7h3.9v20.7h-3.9V3.7z"/>
			<path class="st1" d="M93,23.4c-1.6-1-2.9-2.3-3.9-3.9c-0.9-1.7-1.4-3.5-1.4-5.5c0-2,0.5-3.8,1.4-5.5c0.9-1.7,2.2-3,3.9-3.9
				c1.6-1,3.5-1.4,5.5-1.4c2,0,3.9,0.5,5.5,1.4s2.9,2.3,3.9,3.9c0.9,1.7,1.4,3.5,1.4,5.5c0,2-0.5,3.8-1.4,5.5
				c-0.9,1.7-2.2,3-3.9,3.9c-1.6,1-3.5,1.4-5.5,1.4C96.5,24.9,94.6,24.4,93,23.4z M102,20.3c1.1-0.6,1.9-1.4,2.5-2.5
				c0.6-1.1,0.9-2.3,0.9-3.7c0-1.4-0.3-2.6-0.9-3.7c-0.6-1.1-1.4-1.9-2.5-2.5s-2.2-0.9-3.5-0.9S96.1,7.2,95,7.8
				c-1.1,0.6-1.9,1.4-2.5,2.5c-0.6,1.1-0.9,2.3-0.9,3.7c0,1.4,0.3,2.6,0.9,3.7c0.6,1.1,1.4,1.9,2.5,2.5c1,0.6,2.2,0.9,3.5,0.9
				S100.9,20.9,102,20.3z"/>
			<path class="st1" d="M113,3.7h4.5l8.3,13.9h0.2l-0.2-4V3.7h3.9v20.7h-4.1l-8.8-14.7h-0.2l0.2,4v10.7H113V3.7z"/>
			<path class="st2" d="M136.7,23.8c-1.1-0.7-2-1.6-2.7-2.8c-0.6-1.2-1-2.5-1-4s0.3-2.8,1-4s1.5-2.1,2.7-2.8s2.4-1,3.8-1
				c1.6,0,2.9,0.4,4,1.1c1.1,0.7,1.9,1.7,2.3,3l-2.2,0.9c-0.4-0.9-0.9-1.6-1.6-2.1s-1.6-0.7-2.6-0.7c-0.9,0-1.7,0.2-2.4,0.7
				s-1.4,1.1-1.8,2c-0.5,0.8-0.7,1.8-0.7,2.9c0,1.1,0.2,2.1,0.7,2.9c0.5,0.8,1.1,1.5,1.8,2c0.8,0.5,1.6,0.7,2.4,0.7
				c1,0,1.9-0.2,2.7-0.7c0.8-0.5,1.3-1.2,1.7-2.1l2.2,0.9c-0.5,1.2-1.3,2.2-2.4,2.9c-1.1,0.8-2.5,1.1-4,1.1
				C139.1,24.9,137.9,24.5,136.7,23.8z"/>
			<path class="st2" d="M149.5,9.7h2.3V12h0.1c0.3-0.8,0.8-1.5,1.7-2c0.8-0.5,1.7-0.8,2.6-0.8c0.7,0,1.3,0.1,1.7,0.3v2.7
				c-0.6-0.3-1.3-0.5-2.1-0.5c-0.7,0-1.4,0.2-2,0.6c-0.6,0.4-1.1,0.9-1.4,1.6c-0.4,0.7-0.5,1.4-0.5,2.2v8.2h-2.5V9.7z"/>
			<path class="st2" d="M160.4,9.7h2.3v2.2h0.1c0.4-0.8,1.1-1.4,1.9-1.9c0.8-0.5,1.7-0.8,2.7-0.8c1.1,0,2,0.3,2.8,0.8
				c0.8,0.5,1.4,1.2,1.7,2.1c0.5-0.9,1.2-1.6,2.1-2.1c0.9-0.5,1.9-0.8,3-0.8c1.7,0,3,0.5,3.8,1.5s1.3,2.4,1.3,4.2v9.5h-2.4v-9.1
				c0-1.4-0.3-2.4-0.8-3c-0.6-0.6-1.4-0.9-2.5-0.9c-0.7,0-1.4,0.2-2,0.6c-0.6,0.4-1.1,1-1.4,1.7c-0.3,0.7-0.5,1.5-0.5,2.3v8.3H170
				v-9c0-1.4-0.3-2.4-0.8-3c-0.6-0.6-1.4-0.9-2.5-0.9c-0.7,0-1.4,0.2-2,0.6c-0.6,0.4-1.1,1-1.4,1.7s-0.5,1.5-0.5,2.3v8.3h-2.5V9.7z"
				/>
		</g>
	</g>
</g>
<path id="Fill-7" class="st2" d="M9.1,15.2c1.1,2.5,4,3.6,6.5,2.6c2.5-1.1,3.6-4,2.6-6.5c-1.1-2.5-4-3.6-6.5-2.6
	C9.1,9.8,8,12.7,9.1,15.2"/>
<path id="Fill-9" class="st1" d="M23.5,3.5C23.5,3.5,23.5,3.5,23.5,3.5c-1.4-1.5-3.1-2.6-4.9-3.4c-1.2-0.5-2.6,0.1-3.1,1.3
	c-0.5,1.2,0.1,2.6,1.3,3.1c1.2,0.5,2.3,1.2,3.2,2.2c0,0,0,0,0,0c0.3,0.4,0.6,0.7,0.9,1.1c1.6,2.4,2,5.5,0.9,8.2
	c-1.1,2.7-3.4,4.7-6.3,5.4l0,0c0,0,0,0,0,0c-0.4,0.1-0.9,0.2-1.4,0.2c-1.3,0.1-2.6-0.1-3.9-0.6C6,19.4,3.8,14.6,5.1,10.2l0,0l0-0.1
	c0.1-0.2,0.1-0.4,0.2-0.5c0.1-0.2,0.2-0.3,0.2-0.5l0-0.1c0,0,0,0,0,0c0.9-1.9,2.5-3.4,4.5-4.3c1.2-0.5,1.7-1.9,1.2-3.1
	c-0.5-1.2-1.9-1.7-3.1-1.2l0,0C5.2,1.7,2.7,4,1.3,7l0,0l0,0.1C1.2,7.3,1,7.6,0.9,7.9C0.8,8.1,0.7,8.4,0.6,8.7l0,0.1c0,0,0,0,0,0
	c-2.1,6.8,1.4,14.1,8,16.7c1.9,0.7,3.9,1,5.9,0.9c0.8-0.1,1.4-0.2,2.1-0.3c0,0,0,0,0,0c0.8-0.2,1.6-0.5,2.4-0.8
	c3.3-1.4,5.9-4.1,7.2-7.5c1.6-4.2,1.1-8.9-1.4-12.6C24.5,4.6,24,4.1,23.5,3.5"/>
</svg>
