<?xml version="1.0" encoding="utf-8"?>
<!-- Generator: Adobe Illustrator 21.1.0, SVG Export Plug-In . SVG Version: 6.00 Build 0)  -->
<svg version="1.1" id="Layer_1" xmlns="http://www.w3.org/2000/svg" xmlns:xlink="http://www.w3.org/1999/xlink" x="0px" y="0px"
	 viewBox="0 0 182.4 31.3" style="enable-background:new 0 0 182.4 31.3;" xml:space="preserve">
<style type="text/css">
	.st0{display:none;}
	.st1{display:inline;}
	.st2{fill:#377DFF;}
	.st3{opacity:0.65;fill:#3F7DE0;enable-background:new    ;}
	.st4{opacity:0.5;fill:#00DFFC;enable-background:new    ;}
	.st5{opacity:0.7;fill:#3F7DE0;enable-background:new    ;}
	.st6{fill:#FFFFFF;}
	.st7{fill:#1E272B;}
	.st8{fill:url(#SVGID_1_);}
	.st9{opacity:0.25;fill:#242E35;enable-background:new    ;}
	.st10{enable-background:new    ;}
	.st11{fill:url(#SVGID_2_);}
	.st12{display:inline;enable-background:new    ;}
	.st13{fill:url(#SVGID_3_);}
	.st14{fill:#137CDB;}
</style>
<g id="Layer_1_4_" class="st0">
	<g id="Layer_1_3_" class="st1">
		<g id="Layer_1_2_" class="st0">
			<g id="Layer_1_1_" class="st1">
				<path class="st2" d="M88.3,29.9V1.7h17.9v5.2H95v6h8.4v5.2H95v11.8H88.3z"/>
				<path class="st2" d="M115.5,7.5v4.2c1.6-2.9,3.7-4.4,6.3-4.4v7h-1.5c-1.5,0-2.7,0.4-3.5,1.1c-0.8,0.8-1.2,2.1-1.2,3.9v10.6h-6.7
					V7.5H115.5z"/>
				<path class="st2" d="M125.3,26.9c-2.2-2.1-3.3-4.9-3.3-8.4s1.1-6.2,3.3-8.3c2.2-2.1,4.9-3.1,8.1-3.1s5.9,1,8.1,3.1
					c2.2,2.1,3.3,4.8,3.3,8.3s-1.1,6.2-3.3,8.4s-4.9,3.2-8.1,3.2S127.4,29.1,125.3,26.9z M136.7,22.9c0.9-1,1.3-2.4,1.3-4.2
					s-0.5-3.2-1.4-4.2s-2-1.4-3.3-1.4s-2.3,0.5-3.2,1.4c-0.9,1-1.4,2.3-1.4,4.2s0.5,3.2,1.4,4.2s2,1.4,3.3,1.4
					C134.7,24.2,135.8,23.7,136.7,22.9z"/>
				<path class="st2" d="M153.9,7.5v3.3c1.4-2.4,3.6-3.5,6.6-3.5c2.5,0,4.5,0.9,6.1,2.6s2.3,4,2.3,7V30h-6.7V17.7
					c0-1.4-0.4-2.6-1.1-3.4c-0.7-0.8-1.8-1.2-3.1-1.2s-2.3,0.4-3.1,1.2c-0.7,0.8-1.1,1.9-1.1,3.4v12.2h-6.7V7.5H153.9z"/>
				<path class="st2" d="M181.9,24.1h2.4v5.8h-3.4c-2.5,0-4.4-0.6-5.7-1.7s-2-3-2-5.7v-9.3h-2V7.5h2V2h6.7v5.5h4.4v5.7h-4.4v9.3
					C179.9,23.4,180.5,24.1,181.9,24.1z"/>
				<path class="st3" d="M52.4,32.7L52.4,32.7c-9.9,0-18-8-18-18l0,0c0-9.9,8-18,18-18h11.3c3.7,0,6.6,3,6.6,6.6v11.4
					C70.4,24.7,62.3,32.7,52.4,32.7z"/>
				<path class="st4" d="M57.4,27.7L57.4,27.7c-9.9,0-18-8-18-18l0,0c0-9.9,8-18,18-18h11.3c3.7,0.1,6.7,3.1,6.7,6.7V9.8
					C75.4,19.7,67.4,27.7,57.4,27.7z"/>
				<path class="st5" d="M47.4,37.7L47.4,37.7c-10,0-18-8-18-18l0,0c0-9.9,8-18,18-18h11.3c3.7,0,6.6,3,6.6,6.6v11.4
					C65.3,29.7,57.3,37.7,47.4,37.7z"/>
				<path class="st6" d="M46.8,25.7V10H57v2.9h-6.4v3.4h4.8v2.9h-4.8v6.5H46.8z"/>
			</g>
			<g id="Layer_2" class="st1">
				<g id="Layer_2_1_">
					<g>
						<path class="st7" d="M44.9,8.4c0.7-1.9,1.4-3.8,2.3-5.6c1.2-2.5,4-3.3,6.5-2.1C56,1.8,56.8,4.6,55.9,7
							c-1.7,4.2-3.3,8.4-4.9,12.6c-1,2.6-2,5.3-3.1,7.9c-0.9,2.1-2.7,3-4.8,2.8c-3.1,0.1-4.7-1-5.7-3.7"/>
						
							<linearGradient id="SVGID_1_" gradientUnits="userSpaceOnUse" x1="32.216" y1="-270.8117" x2="42.1047" y2="-294.9478" gradientTransform="matrix(1 0 0 -1 0 -270.1223)">
							<stop  offset="0" style="stop-color:#1C8DF3"/>
							<stop  offset="0.3621" style="stop-color:#137CDB"/>
							<stop  offset="0.7281" style="stop-color:#0C6FCA"/>
							<stop  offset="1" style="stop-color:#0A6BC4"/>
						</linearGradient>
						<path class="st8" d="M37.4,26.7c-0.3-0.7-1.9-4.9-2-5.2c-1.6-4-3.2-8-4.7-12.1c-0.6-1.5-1.4-2.9-1.3-4.6
							c0.2-2.1,1.8-4.1,3.8-4.4c2.4-0.4,4.6,0.7,5.5,2.8c1.1,2.6,4.1,10.4,4.1,10.4L37.4,26.7z"/>
						<polyline class="st9" points="37.4,26.7 36.5,24.2 42.8,13.5 						"/>
					</g>
					<g>
						<g class="st10">
							<path class="st7" d="M62.8,3.7h5.3l5.4,15.7l0.9,3.3h0.3l1-3.3l5.6-15.7h5.3l-9.5,25.9H72L62.8,3.7z"/>
							<path class="st7" d="M90.1,3.7H95v25.9h-4.9V3.7z"/>
							<path class="st7" d="M102.7,28.2c-1.7-1.3-3-3.1-3.7-5.4l4.6-1.8c0.4,1.4,1,2.5,1.8,3.3s2,1.2,3.3,1.2c1.1,0,2-0.3,2.8-0.8
								s1.2-1.3,1.2-2.3s-0.4-1.8-1.1-2.4s-2-1.3-3.9-2l-1.6-0.6c-1.7-0.6-3.1-1.5-4.3-2.7c-1.2-1.2-1.8-2.7-1.8-4.5
								c0-1.4,0.4-2.6,1.1-3.7s1.7-2,3-2.6s2.7-1,4.3-1c2.3,0,4.2,0.5,5.5,1.6c1.4,1.1,2.3,2.4,2.8,3.9l-4.3,1.9
								c-0.3-0.8-0.7-1.5-1.4-2s-1.5-0.8-2.6-0.8s-1.9,0.2-2.6,0.7s-1,1.1-1,1.9s0.3,1.4,1,2s1.7,1.1,3.2,1.6l1.6,0.5
								c2.2,0.8,4,1.8,5.2,3.1s1.8,2.9,1.8,5c0,1.7-0.4,3.1-1.3,4.3s-2,2-3.4,2.6s-2.8,0.9-4.2,0.9
								C106.4,30.1,104.4,29.6,102.7,28.2z"/>
							<path class="st7" d="M122.2,3.7h4.9v25.9h-4.9V3.7z"/>
							<path class="st7" d="M137.9,28.4c-2.1-1.2-3.7-2.8-4.9-4.9s-1.8-4.4-1.8-6.8c0-2.5,0.6-4.8,1.8-6.8c1.2-2.1,2.8-3.7,4.9-4.9
								c2.1-1.2,4.4-1.8,6.9-1.8s4.8,0.6,6.9,1.8c2.1,1.2,3.7,2.8,4.9,4.9s1.8,4.4,1.8,6.8c0,2.5-0.6,4.8-1.8,6.8
								c-1.2,2.1-2.8,3.7-4.9,4.9c-2.1,1.2-4.4,1.8-6.9,1.8S139.9,29.6,137.9,28.4z M149.3,24.4c1.3-0.7,2.4-1.8,3.1-3.2
								s1.1-2.9,1.1-4.6s-0.4-3.3-1.1-4.6c-0.8-1.4-1.8-2.4-3.1-3.2c-1.3-0.7-2.8-1.1-4.4-1.1s-3,0.4-4.4,1.1
								c-1.3,0.7-2.4,1.8-3.1,3.2c-0.8,1.4-1.1,2.9-1.1,4.6s0.4,3.3,1.1,4.6s1.8,2.4,3.1,3.2c1.3,0.8,2.8,1.1,4.4,1.1
								C146.4,25.6,147.9,25.1,149.3,24.4z"/>
							<path class="st7" d="M163.1,3.7h5.7l10.4,17.4h0.3l-0.3-5V3.7h4.9v25.9H179l-11-18.4h-0.3l0.3,5v13.4h-4.8L163.1,3.7
								L163.1,3.7z"/>
						</g>
					</g>
				</g>
			</g>
		</g>
		<g id="Layer_2_2_">
			<g id="Layer_2_3_">
				<g id="Layer_2_4_">
					<g>
						<path class="st7" d="M19.1,8c0.8-2.2,1.6-4.3,2.6-6.4c1.4-2.8,4.6-3.8,7.4-2.4c2.6,1.3,3.5,4.4,2.5,7.2
							c-1.9,4.8-3.8,9.6-5.6,14.4c-1.1,3-2.3,6-3.5,9c-1,2.4-3.1,3.4-5.5,3.2c-3.5,0.1-5.4-1.1-6.5-4.2"/>
						
							<linearGradient id="SVGID_2_" gradientUnits="userSpaceOnUse" x1="4.5849" y1="-269.3462" x2="15.8515" y2="-296.8455" gradientTransform="matrix(1 0 0 -1 0 -270.1223)">
							<stop  offset="0" style="stop-color:#1C8DF3"/>
							<stop  offset="0.3621" style="stop-color:#137CDB"/>
							<stop  offset="0.7281" style="stop-color:#0C6FCA"/>
							<stop  offset="1" style="stop-color:#0A6BC4"/>
						</linearGradient>
						<path class="st11" d="M10.5,28.9c-0.3-0.8-2.2-5.6-2.3-5.9c-1.8-4.6-3.6-9.2-5.3-13.8C2.2,7.5,1.3,5.8,1.4,4
							c0.2-2.4,2.1-4.7,4.3-5c2.7-0.5,5.2,0.8,6.3,3.2c1.3,2.9,4.7,11.7,4.7,11.7L10.5,28.9z"/>
						<polyline class="st9" points="10.5,28.9 9.5,26.1 16.7,13.9 						"/>
					</g>
					<g class="st0">
						<g class="st12">
							<path class="st7" d="M43.7,5.8h4.9l5,14.5l0.8,3.1h0.3l0.9-3.1l5.2-14.4h4.9l-8.8,24h-4.7L43.7,5.8z"/>
							<path class="st7" d="M69,5.8h4.5v24H69V5.8z"/>
							<path class="st7" d="M80.7,28.6c-1.6-1.2-2.8-2.9-3.4-5l4.3-1.7c0.4,1.3,0.9,2.3,1.7,3.1s1.9,1.1,3.1,1.1
								c1,0,1.9-0.3,2.6-0.7c0.7-0.5,1.1-1.2,1.1-2.1s-0.4-1.7-1-2.2s-1.9-1.2-3.6-1.9L84,18.6c-1.6-0.6-2.9-1.4-4-2.5
								s-1.7-2.6-1.7-4.2c0-1.3,0.4-2.4,1-3.4s1.6-1.9,2.8-2.4c1.2-0.6,2.5-0.9,4-0.9c2.1,0,3.9,0.5,5.1,1.5c1.3,1,2.1,2.2,2.6,3.6
								l-4,1.8c-0.4-0.8-0.8-1.4-1.4-1.9S87,9.5,86,9.5s-1.8,0.2-2.4,0.6c-0.6,0.5-0.9,1-0.9,1.8c0,0.7,0.3,1.3,0.9,1.9s1.6,1,3,1.5
								l1.5,0.5c2,0.7,3.7,1.7,4.8,2.9c1.1,1.2,1.7,2.7,1.7,4.6c0,1.6-0.4,2.9-1.2,4s-1.9,1.9-3.1,2.4c-1.3,0.6-2.6,0.8-3.9,0.8
								C84.1,30.4,82.3,29.9,80.7,28.6z"/>
							<path class="st7" d="M98.8,5.8h4.5v24h-4.5V5.8z"/>
							<path class="st7" d="M113.4,28.7c-1.9-1.1-3.4-2.6-4.5-4.5s-1.7-4.1-1.7-6.3c0-2.3,0.6-4.4,1.7-6.3s2.6-3.4,4.5-4.5
								s4.1-1.7,6.4-1.7s4.4,0.6,6.4,1.7c1.9,1.1,3.4,2.6,4.5,4.5s1.7,4.1,1.7,6.3c0,2.3-0.6,4.4-1.7,6.3c-1.1,1.9-2.6,3.4-4.5,4.5
								s-4.1,1.7-6.4,1.7C117.4,30.4,115.2,29.9,113.4,28.7z M123.9,25.1c1.2-0.6,2.2-1.7,2.9-3c0.6-1.3,1-2.7,1-4.3s-0.4-3.1-1-4.3
								c-0.7-1.3-1.7-2.2-2.9-3c-1.2-0.6-2.6-1-4.1-1s-2.8,0.4-4.1,1c-1.2,0.6-2.2,1.7-2.9,3c-0.7,1.3-1,2.7-1,4.3s0.4,3.1,1,4.3
								c0.6,1.2,1.7,2.2,2.9,3c1.2,0.7,2.6,1,4.1,1S122.5,25.7,123.9,25.1z"/>
							<path class="st7" d="M136.5,5.8h5.3l9.6,16.1h0.3l-0.3-4.6V5.8h4.5v24h-4.6l-10.2-17h-0.3l0.3,4.6v12.5h-4.4L136.5,5.8
								L136.5,5.8z"/>
						</g>
					</g>
				</g>
			</g>
		</g>
	</g>
	<g id="Layer_2_5_" class="st1">
		<g id="Layer_2_6_">
			<g>
				<g class="st10">
					<path class="st7" d="M43.2,5.8h4.9l5,14.5l0.9,3.1h0.3l0.9-3.1l5.1-14.5h4.9l-8.8,24h-4.8L43.2,5.8z"/>
					<path class="st7" d="M67.6,9.9c-0.6-0.6-0.8-1.2-0.8-2s0.3-1.4,0.8-2c0.6-0.5,1.2-0.8,2-0.8s1.4,0.3,2,0.8
						c0.5,0.5,0.8,1.2,0.8,2s-0.3,1.5-0.8,2c-0.5,0.6-1.2,0.8-2,0.8S68.2,10.5,67.6,9.9z M67.4,12.7h4.4v17.1h-4.4V12.7z"/>
					<path class="st7" d="M77.9,29.1c-1.3-0.9-2.2-2-2.7-3.3l3.9-1.7c0.4,0.8,0.9,1.4,1.5,1.8s1.4,0.6,2.3,0.6c0.8,0,1.5-0.1,2-0.4
						s0.8-0.7,0.8-1.3s-0.2-1-0.7-1.3s-1.2-0.5-2.2-0.8l-2-0.4c-1.4-0.3-2.5-0.9-3.5-1.8s-1.4-2-1.4-3.3c0-1,0.3-1.9,0.9-2.7
						s1.4-1.4,2.4-1.8s2.1-0.6,3.4-0.6c3.5,0,5.9,1.2,7.1,3.7l-3.8,1.6c-0.7-1.2-1.7-1.8-3.2-1.8c-0.8,0-1.4,0.1-1.8,0.4
						c-0.4,0.3-0.7,0.6-0.7,1.1c0,0.8,0.8,1.4,2.3,1.8l2.5,0.6c1.7,0.4,3,1.1,3.8,1.9c0.9,0.9,1.3,1.9,1.3,3.2c0,1.1-0.3,2.1-1,2.9
						c-0.6,0.8-1.5,1.5-2.6,2s-2.3,0.7-3.7,0.7C80.9,30.4,79.2,29.9,77.9,29.1z"/>
					<path class="st7" d="M93.7,9.9c-0.6-0.6-0.8-1.2-0.8-2s0.3-1.4,0.8-2c0.6-0.5,1.2-0.8,2-0.8s1.4,0.3,2,0.8
						c0.5,0.5,0.8,1.2,0.8,2s-0.3,1.5-0.8,2c-0.5,0.6-1.2,0.8-2,0.8S94.3,10.5,93.7,9.9z M93.5,12.7h4.4v17.1h-4.4V12.7z"/>
					<path class="st7" d="M105.8,29.1c-1.4-0.8-2.5-1.9-3.2-3.3s-1.2-2.9-1.2-4.7c0-1.7,0.4-3.2,1.2-4.6c0.8-1.4,1.9-2.5,3.2-3.3
						c1.4-0.8,3-1.2,4.7-1.2s3.3,0.4,4.7,1.2c1.4,0.8,2.5,1.9,3.2,3.3c0.8,1.4,1.2,2.9,1.2,4.6s-0.4,3.3-1.2,4.7s-1.9,2.5-3.2,3.3
						c-1.4,0.8-3,1.2-4.7,1.2S107.2,29.9,105.8,29.1z M112.9,25.7c0.7-0.4,1.3-1,1.7-1.7c0.4-0.8,0.6-1.7,0.6-2.7s-0.2-1.9-0.6-2.7
						c-0.4-0.8-1-1.3-1.7-1.7c-0.7-0.4-1.5-0.6-2.4-0.6s-1.6,0.2-2.4,0.6c-0.7,0.4-1.3,1-1.7,1.7c-0.4,0.8-0.7,1.6-0.7,2.7
						c0,1,0.2,1.9,0.7,2.7c0.5,0.8,1,1.4,1.7,1.8s1.5,0.6,2.4,0.6C111.4,26.2,112.2,26.1,112.9,25.7z"/>
					<path class="st7" d="M122.6,12.7h4.1v2.1h0.3c0.5-0.8,1.2-1.5,2.2-2c0.9-0.5,2-0.7,3.1-0.7c2.1,0,3.6,0.6,4.7,1.9
						c1.1,1.3,1.6,3,1.6,5.1v10.6h-4.4v-10c0-1.1-0.3-1.9-0.8-2.6c-0.6-0.6-1.3-0.9-2.4-0.9c-1.2,0-2.1,0.5-2.9,1.4
						c-0.7,0.9-1.1,2.1-1.1,3.5v8.7h-4.4L122.6,12.7L122.6,12.7z"/>
					<path class="st7" d="M148.2,28.7c-1.9-1.1-3.4-2.6-4.5-4.5s-1.6-4-1.6-6.4s0.5-4.5,1.6-6.4s2.6-3.4,4.5-4.5s4-1.6,6.3-1.6
						c1.8,0,3.4,0.3,4.9,1s2.8,1.7,3.9,2.9l-2,2c-0.9-1.1-1.9-1.9-3-2.4S156,8,154.6,8c-1.7,0-3.3,0.4-4.8,1.2s-2.6,2-3.5,3.5
						s-1.3,3.2-1.3,5.2s0.4,3.7,1.3,5.2c0.9,1.5,2,2.6,3.5,3.5s3.1,1.2,4.8,1.2c2.9,0,5.4-1.2,7.4-3.6l2.1,2
						c-1.1,1.3-2.5,2.4-4.1,3.1c-1.6,0.8-3.4,1.2-5.4,1.2C152.2,30.4,150.1,29.7,148.2,28.7z"/>
					<path class="st7" d="M168.2,5.8h8.1c1.3,0,2.6,0.3,3.7,0.9c1.1,0.6,2.1,1.4,2.7,2.5c0.7,1.1,1,2.3,1,3.7c0,1.1-0.3,2.2-0.8,3.1
						c-0.5,1-1.2,1.8-2.1,2.4c-0.9,0.6-1.9,1.1-2.9,1.3l-0.1,0.1l6.8,9.8v0.1h-3.3l-6.5-9.8H171v9.8h-2.8V5.8z M176.1,17.4
						c0.8,0,1.6-0.2,2.3-0.6s1.3-0.9,1.7-1.6s0.7-1.4,0.7-2.3c0-0.7-0.2-1.4-0.6-2.1c-0.4-0.7-0.9-1.2-1.6-1.6
						c-0.7-0.4-1.5-0.6-2.4-0.6h-5.3v8.9L176.1,17.4L176.1,17.4z"/>
					<path class="st7" d="M187.9,5.8h4.1l7.7,19.7h0.1l7.7-19.7h4.1v24h-2.8V14.5l0.1-4.6h-0.1l-7.9,19.8h-2.4l-7.9-19.8h-0.1
						l0.1,4.6v15.4h-2.8L187.9,5.8L187.9,5.8z"/>
				</g>
			</g>
		</g>
	</g>
</g>
<g id="Layer_2_7_" class="st0">
	<g class="st1">
		<path class="st7" d="M12.3,8c0.8-2.1,1.5-4.2,2.5-6.2c1.3-2.7,4.4-3.6,7.2-2.3c2.5,1.2,3.5,4.3,2.4,7c-1.9,4.6-3.6,9.3-5.4,13.9
			c-1.1,2.9-2.2,5.8-3.4,8.7c-1,2.3-2.9,3.3-5.3,3.1c-3.2,0-5-1.2-6.1-4.1"/>
		
			<linearGradient id="SVGID_3_" gradientUnits="userSpaceOnUse" x1="-1.5892" y1="165.9131" x2="9.3077" y2="192.5096" gradientTransform="matrix(1 0 0 1 0 -166.5)">
			<stop  offset="0" style="stop-color:#1C8DF3"/>
			<stop  offset="0.3621" style="stop-color:#137CDB"/>
			<stop  offset="0.7281" style="stop-color:#0C6FCA"/>
			<stop  offset="1" style="stop-color:#0A6BC4"/>
		</linearGradient>
		<path class="st13" d="M4.2,28.1c-0.3-0.8-2.1-5.4-2.2-5.7C0.2,17.9-1.6,13.5-3.2,9c-0.7-1.6-1.6-3.2-1.5-5c0.2-2.4,2-4.6,4.2-4.9
			c2.7-0.4,5.1,0.7,6,3.1C6.7,5.1,10,13.6,10,13.6L4.2,28.1z"/>
		<polyline class="st9" points="4.2,28.1 3.1,25.4 10,13.6 		"/>
	</g>
	<g class="st1">
		<g class="st10">
			<path class="st7" d="M36.7,4.1l7,20.8l7.1-20.8h5.6l-9.3,26.3h-6.7L31.1,4.1H36.7z"/>
			<path class="st7" d="M59.5,1.8C60.1,1.3,60.9,1,61.8,1c1,0,1.8,0.3,2.3,0.8C64.7,2.3,65,3,65,3.9c0,0.8-0.3,1.5-0.9,2
				s-1.4,0.8-2.3,0.8c-1,0-1.8-0.3-2.3-0.8c-0.6-0.5-0.9-1.2-0.9-2C58.7,3,58.9,2.3,59.5,1.8z M64.5,9.7v20.6h-5.3V9.7H64.5z"/>
			<path class="st7" d="M82.4,11.4c1.5,1.3,2.5,3,2.8,5.1h-4.9c-0.2-1-0.6-1.8-1.3-2.4c-0.7-0.6-1.6-0.9-2.7-0.9
				c-0.9,0-1.6,0.2-2.1,0.6c-0.5,0.4-0.7,1-0.7,1.7c0,0.6,0.2,1,0.6,1.4s0.9,0.6,1.5,0.8c0.6,0.2,1.5,0.4,2.6,0.7
				c1.6,0.3,2.8,0.7,3.8,1.1s1.8,1,2.5,1.8s1.1,2,1.1,3.4c0,1.8-0.7,3.2-2.1,4.3s-3.2,1.6-5.6,1.6c-2.7,0-4.8-0.6-6.4-1.8
				c-1.6-1.2-2.6-2.9-2.9-5.2h5c0.1,1,0.6,1.8,1.3,2.4c0.8,0.6,1.8,0.9,3,0.9c0.9,0,1.6-0.2,2-0.7c0.5-0.4,0.7-1,0.7-1.7
				c0-0.6-0.2-1.1-0.6-1.5s-0.9-0.7-1.5-0.9c-0.6-0.2-1.5-0.4-2.6-0.7c-1.5-0.3-2.8-0.7-3.7-1.1c-1-0.4-1.8-0.9-2.5-1.7
				c-0.7-0.8-1-1.9-1-3.3c0-1.8,0.7-3.2,2-4.4c1.4-1.1,3.3-1.7,5.7-1.7C78.9,9.5,80.9,10.1,82.4,11.4z"/>
			<path class="st7" d="M89.7,1.8C90.3,1.3,91.1,1,92,1c1,0,1.8,0.3,2.3,0.8c0.6,0.5,0.9,1.2,0.9,2.1c0,0.8-0.3,1.5-0.9,2
				S92.9,6.7,92,6.7c-1,0-1.8-0.3-2.3-0.8c-0.6-0.5-0.9-1.2-0.9-2C88.8,3,89.1,2.3,89.7,1.8z M94.7,9.7v20.6h-5.3V9.7H94.7z"/>
			<path class="st7" d="M114.4,10.7c1.6,0.8,2.9,2.1,3.8,3.7s1.4,3.5,1.4,5.6c0,2.2-0.5,4-1.4,5.6s-2.2,2.8-3.8,3.7
				c-1.6,0.9-3.4,1.3-5.4,1.3s-3.8-0.4-5.4-1.3s-2.9-2.1-3.8-3.7s-1.4-3.5-1.4-5.6c0-2.2,0.5-4,1.4-5.6s2.2-2.8,3.8-3.7
				c1.6-0.8,3.4-1.3,5.4-1.3C111,9.5,112.8,9.9,114.4,10.7z M105.2,15.6c-1,1-1.5,2.5-1.5,4.5s0.5,3.5,1.5,4.5s2.3,1.5,3.7,1.5
				c1.5,0,2.7-0.5,3.7-1.5s1.5-2.5,1.5-4.5s-0.5-3.5-1.5-4.5s-2.3-1.5-3.7-1.5C107.5,14,106.3,14.5,105.2,15.6z"/>
			<path class="st7" d="M141.3,11.8c1.4,1.6,2.1,3.8,2.1,6.6v12h-5.2V19c0-1.6-0.4-2.9-1.3-3.8c-0.8-0.9-2-1.4-3.5-1.4
				s-2.7,0.5-3.6,1.5c-0.9,1-1.3,2.4-1.3,4.2v11h-5.2V9.7h5.3v4.2c0.5-1.4,1.4-2.5,2.7-3.3s2.7-1.2,4.3-1.2
				C138,9.4,139.9,10.2,141.3,11.8z"/>
			<path class="st14" d="M163.9,11.8c1.7,1.4,2.8,3.3,3.2,5.6h-3.6c-0.2-1.5-0.9-2.6-2-3.4c-1.1-0.8-2.5-1.2-4.1-1.2
				c-1.2,0-2.3,0.3-3.3,0.8s-1.8,1.4-2.4,2.5c-0.6,1.1-0.9,2.5-0.9,4.2s0.3,3.1,0.9,4.2c0.6,1.1,1.4,2,2.4,2.5s2.1,0.8,3.3,0.8
				c1.6,0,3-0.4,4.1-1.3c1.1-0.8,1.8-2,2-3.5h3.6c-0.4,2.4-1.5,4.2-3.2,5.6s-3.9,2.1-6.5,2.1c-2,0-3.7-0.4-5.2-1.3
				c-1.5-0.8-2.7-2.1-3.6-3.6c-0.9-1.6-1.3-3.4-1.3-5.6c0-2.1,0.4-4,1.3-5.6c0.9-1.6,2-2.8,3.6-3.7c1.5-0.8,3.3-1.3,5.2-1.3
				C160,9.7,162.2,10.4,163.9,11.8z"/>
			<path class="st14" d="M177.8,10.8c1.3-0.8,2.8-1.2,4.6-1.2v3.7h-1c-1.9,0-3.5,0.5-4.7,1.5s-1.8,2.6-1.8,4.9v10.8h-3.4V9.9h3.4V14
				C175.5,12.6,176.5,11.5,177.8,10.8z"/>
			<path class="st14" d="M216.7,11.9c1.5,1.5,2.2,3.7,2.2,6.6v11.9h-3.4V18.8c0-2-0.5-3.6-1.5-4.6c-1-1.1-2.3-1.6-4-1.6
				c-1.8,0-3.2,0.6-4.3,1.8s-1.6,2.9-1.6,5.2v10.8h-3.4V18.8c0-2-0.5-3.6-1.5-4.6c-1-1.1-2.3-1.6-4-1.6c-1.8,0-3.3,0.6-4.3,1.8
				c-1.1,1.2-1.6,2.9-1.6,5.2v10.8h-3.4V9.9h3.4v4.7c0.5-1.6,1.4-2.8,2.7-3.7s2.7-1.3,4.4-1.3s3.2,0.4,4.5,1.3
				c1.3,0.9,2.2,2.2,2.7,3.9c0.6-1.7,1.5-2.9,2.9-3.9c1.3-0.9,2.9-1.4,4.5-1.4C213.3,9.6,215.2,10.4,216.7,11.9z"/>
		</g>
	</g>
</g>
<g id="Layer_2_8_">
	<g>
		<g class="st10">
			<path class="st7" d="M32.7,3.7h4.2l5.4,16l0.8,2.7h0.2l0.9-2.7l5.7-16H54L45.2,28h-4L32.7,3.7z"/>
			<path class="st7" d="M56.4,7.5c-0.5-0.5-0.7-1.1-0.7-1.8c0-0.7,0.2-1.3,0.7-1.8c0.5-0.5,1.1-0.7,1.8-0.7c0.7,0,1.3,0.2,1.8,0.7
				c0.5,0.5,0.7,1.1,0.7,1.8c0,0.7-0.2,1.3-0.7,1.8c-0.5,0.5-1.1,0.7-1.8,0.7C57.4,8.2,56.8,8,56.4,7.5z M56.3,10.7H60V28h-3.7V10.7
				z"/>
			<path class="st7" d="M66.1,27.2c-1.3-0.9-2.2-2-2.7-3.3l3.3-1.5c0.4,0.9,1,1.6,1.7,2.1c0.7,0.5,1.6,0.7,2.5,0.7
				c0.9,0,1.7-0.2,2.3-0.5s0.9-0.8,0.9-1.5c0-0.6-0.3-1.1-0.8-1.5c-0.5-0.4-1.4-0.7-2.5-0.9l-2.1-0.5c-1.4-0.3-2.5-0.9-3.4-1.8
				s-1.4-1.9-1.4-3.2c0-1,0.3-1.9,0.9-2.7c0.6-0.8,1.4-1.4,2.4-1.8c1-0.4,2.1-0.6,3.3-0.6c1.6,0,3,0.3,4.2,1
				c1.2,0.6,2.1,1.6,2.6,2.8l-3.2,1.4c-0.7-1.3-1.9-2-3.6-2c-0.8,0-1.5,0.2-2.1,0.5s-0.8,0.8-0.8,1.3c0,0.5,0.2,0.9,0.6,1.3
				c0.4,0.3,1.1,0.6,1.9,0.8l2.5,0.6c1.7,0.4,3,1.1,3.8,1.9c0.9,0.9,1.3,1.9,1.3,3.2c0,1.1-0.3,2-0.9,2.9c-0.6,0.8-1.5,1.5-2.6,1.9
				s-2.3,0.7-3.6,0.7C68.9,28.5,67.3,28.1,66.1,27.2z"/>
			<path class="st7" d="M81.4,7.5c-0.5-0.5-0.7-1.1-0.7-1.8c0-0.7,0.2-1.3,0.7-1.8c0.5-0.5,1.1-0.7,1.8-0.7c0.7,0,1.3,0.2,1.8,0.7
				c0.5,0.5,0.7,1.1,0.7,1.8c0,0.7-0.2,1.3-0.7,1.8c-0.5,0.5-1.1,0.7-1.8,0.7C82.5,8.2,81.9,8,81.4,7.5z M81.3,10.7H85V28h-3.7V10.7
				z"/>
			<path class="st7" d="M92.9,27.3c-1.4-0.8-2.4-1.9-3.2-3.3c-0.8-1.4-1.2-3-1.2-4.7c0-1.7,0.4-3.3,1.2-4.7c0.8-1.4,1.8-2.5,3.2-3.3
				c1.4-0.8,2.9-1.2,4.7-1.2c1.7,0,3.3,0.4,4.7,1.2c1.4,0.8,2.4,1.9,3.2,3.3c0.8,1.4,1.2,2.9,1.2,4.6c0,1.7-0.4,3.3-1.2,4.7
				c-0.8,1.4-1.8,2.5-3.2,3.3c-1.4,0.8-2.9,1.2-4.7,1.2C95.9,28.5,94.3,28.1,92.9,27.3z M100.2,24.4c0.8-0.5,1.5-1.1,1.9-2
				c0.5-0.9,0.7-1.9,0.7-3.1c0-1.2-0.2-2.2-0.7-3c-0.5-0.9-1.1-1.5-1.9-2c-0.8-0.5-1.7-0.7-2.6-0.7c-0.9,0-1.8,0.2-2.6,0.7
				c-0.8,0.5-1.5,1.1-1.9,2c-0.5,0.9-0.7,1.9-0.7,3c0,1.2,0.2,2.2,0.7,3.1c0.5,0.9,1.1,1.5,1.9,2c0.8,0.5,1.7,0.7,2.6,0.7
				C98.5,25.1,99.4,24.9,100.2,24.4z"/>
			<path class="st7" d="M109.7,10.7h3.6V13h0.2c0.5-0.8,1.2-1.5,2.2-2c1-0.5,2-0.8,3.1-0.8c2.1,0,3.7,0.6,4.8,1.8
				c1.1,1.2,1.6,2.9,1.6,5V28h-3.7V17.6c0-1.4-0.3-2.3-1-3c-0.7-0.6-1.6-0.9-2.8-0.9c-0.8,0-1.6,0.2-2.2,0.7s-1.2,1.1-1.5,1.8
				c-0.4,0.8-0.5,1.6-0.5,2.5V28h-3.7V10.7z"/>
			<path class="st14" d="M143.8,23.8c-0.3,0.7-0.7,1.3-1.1,1.9c-0.4,0.6-1,1.1-1.5,1.5c-0.6,0.4-1.3,0.8-2,1
				c-0.8,0.2-1.6,0.4-2.5,0.4c-1.2,0-2.3-0.2-3.3-0.7c-1-0.5-1.9-1.1-2.6-1.9c-0.7-0.8-1.3-1.7-1.7-2.8c-0.4-1.1-0.6-2.2-0.6-3.5
				s0.2-2.4,0.6-3.5c0.4-1.1,1-2,1.7-2.8c0.7-0.8,1.6-1.4,2.6-1.9c1-0.5,2.1-0.7,3.3-0.7c0.9,0,1.8,0.1,2.5,0.4c0.8,0.2,1.4,0.6,2,1
				c0.6,0.4,1.1,0.9,1.5,1.5c0.4,0.6,0.8,1.2,1,1.9l-1.9,0.8c-0.5-1.2-1.2-2-2.1-2.7c-0.9-0.6-2-0.9-3.2-0.9c-0.8,0-1.5,0.2-2.2,0.5
				c-0.7,0.3-1.4,0.8-1.9,1.4c-0.6,0.6-1,1.3-1.4,2.2c-0.3,0.8-0.5,1.8-0.5,2.8s0.2,2,0.5,2.8c0.3,0.8,0.8,1.6,1.4,2.2
				c0.6,0.6,1.2,1.1,1.9,1.4c0.7,0.3,1.5,0.5,2.2,0.5c1.3,0,2.4-0.3,3.3-0.9c0.9-0.6,1.6-1.5,2.1-2.7L143.8,23.8z"/>
			<path class="st14" d="M146.5,28V11.4h2v2.9h0.1c0.2-0.5,0.4-1,0.8-1.4s0.7-0.8,1.2-1.1c0.4-0.3,0.9-0.5,1.4-0.7
				c0.5-0.2,1-0.3,1.4-0.3c0.5,0,0.9,0,1.3,0.1c0.3,0.1,0.7,0.2,1,0.4l-0.7,2c-0.5-0.2-1.1-0.3-1.9-0.3c-0.6,0-1.2,0.1-1.7,0.4
				c-0.5,0.3-1,0.7-1.4,1.2c-0.4,0.5-0.7,1.1-1,1.8c-0.2,0.7-0.4,1.4-0.4,2.3V28H146.5z"/>
			<path class="st14" d="M157.8,11.4h2v3.1h0.1c0.2-0.5,0.5-1,0.9-1.4s0.8-0.8,1.3-1.2c0.5-0.3,1-0.6,1.6-0.8
				c0.6-0.2,1.2-0.3,1.8-0.3c1.4,0,2.5,0.4,3.4,1.1c0.9,0.7,1.5,1.6,1.8,2.7c0.5-1.1,1.3-2,2.3-2.7s2.2-1.1,3.7-1.1
				c1,0,1.8,0.2,2.6,0.5c0.7,0.3,1.3,0.8,1.8,1.4c0.5,0.6,0.8,1.3,1,2.1c0.2,0.8,0.3,1.7,0.3,2.6V28h-2.2V17.8
				c0-1.6-0.3-2.9-0.9-3.7s-1.7-1.3-3.1-1.3c-0.7,0-1.4,0.2-2,0.5c-0.6,0.4-1.2,0.8-1.6,1.4c-0.4,0.6-0.8,1.2-1,2
				c-0.2,0.8-0.4,1.5-0.4,2.4V28H169V17.9c0-1.7-0.3-3-1-3.8c-0.6-0.8-1.7-1.3-3-1.3c-0.8,0-1.5,0.2-2.1,0.5
				c-0.6,0.4-1.2,0.8-1.6,1.5c-0.4,0.6-0.8,1.3-1,2.1c-0.2,0.8-0.4,1.6-0.4,2.4V28h-2.2V11.4z"/>
		</g>
	</g>
</g>
<g>
	<path class="st7" d="M5.6,27.6C-0.3,23.2-1.8,14,2.3,7.4C7-0.1,17.4-2.3,24.7,2.7c1.1,0.7,1.2,1.4,0.7,2.5
		c-0.6,1.4-1.5,2.6-2.6,3.6c-0.9,0.9-1.7,1.2-3,0.4c-4.6-2.7-10.9-0.9-12,6c-0.4,2.4,0.8,4.7,2.7,6.5c-0.3,0.1-0.6,0.2-0.9,0.4
		C7.5,23.3,6.7,25.5,5.6,27.6z"/>
	<path class="st7" d="M5.6,27.6c1.1-2.1,1.9-4.3,4.1-5.6c0.3-0.2,0.6-0.3,0.9-0.4c3.4,2.5,6.1,2.6,9.8,0.4c0.7-0.4,1.2-0.4,1.8,0.1
		c1.6,1.3,2.8,2.9,3.5,4.9c0.2,0.5,0.1,0.9-0.3,1.3C20.8,32.8,10.9,31.9,5.6,27.6z"/>
	<path class="st14" d="M10.9,15.7c0-2.8,2.2-4.9,4.9-4.9c2.7,0,4.9,2.2,4.9,4.9c0,2.8-2.2,5-5.1,5C12.9,20.7,10.8,18.5,10.9,15.7z"
		/>
</g>
</svg>
